<?xml version="1.0" encoding="utf-8"?>
<!-- Generator: Adobe Illustrator 16.0.0, SVG Export Plug-In . SVG Version: 6.00 Build 0)  -->
<!DOCTYPE svg PUBLIC "-//W3C//DTD SVG 1.1//EN" "http://www.w3.org/Graphics/SVG/1.1/DTD/svg11.dtd">
<svg version="1.1" id="Layer_1" xmlns="http://www.w3.org/2000/svg" xmlns:xlink="http://www.w3.org/1999/xlink" x="0px" y="0px"
	 width="164.547px" height="153.443px" viewBox="0 0 164.547 153.443" enable-background="new 0 0 164.547 153.443"
	 xml:space="preserve">
<path fill="#331200" d="M1.774,153.443c-0.979,0-1.774-0.797-1.774-1.775v-11.104c0-0.98,0.796-1.777,1.774-1.777h23.208V86.826
	H6.326v9.326c0,0.979-0.796,1.775-1.775,1.775c-0.979,0-1.776-0.797-1.776-1.775V85.049c0-0.979,0.797-1.775,1.776-1.775h5.973
	L5.62,66.107c-0.046-0.159-0.069-0.322-0.069-0.488c0-0.979,0.796-1.776,1.775-1.776h7.592l5.166-5.164l-8.461-8.459
	c-0.335-0.335-0.521-0.781-0.521-1.255c0-0.475,0.185-0.92,0.521-1.256s0.781-0.521,1.255-0.521c0.475,0,0.92,0.185,1.255,0.521
	l8.46,8.46l4.295-4.297c0.335-0.335,0.782-0.52,1.256-0.52c0.474,0,0.92,0.185,1.255,0.52s0.521,0.782,0.521,1.256
	s-0.185,0.92-0.52,1.255l-9.461,9.46h12.37c0.165,0,0.329,0.023,0.488,0.069c0.457,0.13,0.834,0.431,1.064,0.845
	c0.23,0.415,0.285,0.895,0.154,1.351L29.11,83.273h12.525V14.655h-6.552c-0.979,0-1.774-0.796-1.774-1.775V1.776
	C33.309,0.797,34.105,0,35.083,0h94.377c0.979,0,1.775,0.797,1.775,1.776v11.104c0,0.979-0.797,1.775-1.775,1.775h-6.551v68.619
	h37.086c0.979,0,1.775,0.797,1.775,1.775v11.104c0,0.979-0.797,1.775-1.775,1.775c-0.98,0-1.777-0.797-1.777-1.775v-9.326h-18.654
	v51.961h23.207c0.979,0,1.775,0.797,1.775,1.777v11.104c0,0.979-0.797,1.775-1.775,1.775H1.774z M3.551,149.891h157.445v-7.551
	H3.551V149.891z M117.357,138.787h18.654V86.826h-18.654V138.787z M95.15,138.787h18.656V86.826H95.15V138.787z M72.946,138.787
	H91.6V86.826H72.946V138.787z M50.739,138.787h18.655V86.826H50.739V138.787z M28.532,138.787h18.657V86.826H28.532V138.787z
	 M84.049,83.273h35.309V50.74H84.049V83.273z M45.188,83.273h35.308V50.74H45.188V83.273z M14.218,83.273h11.201l4.536-15.878H9.681
	L14.218,83.273z M84.049,47.188h35.309V14.655H84.049V47.188z M45.188,47.188h35.308V14.655H45.188V47.188z M36.861,11.103h90.825
	V3.551H36.861V11.103z"/>
</svg>
