<?xml version="1.0" encoding="utf-8"?>
<!-- Generator: Adobe Illustrator 16.0.0, SVG Export Plug-In . SVG Version: 6.00 Build 0)  -->
<!DOCTYPE svg PUBLIC "-//W3C//DTD SVG 1.1//EN" "http://www.w3.org/Graphics/SVG/1.1/DTD/svg11.dtd">
<svg version="1.1" id="Layer_1" xmlns="http://www.w3.org/2000/svg" xmlns:xlink="http://www.w3.org/1999/xlink" x="0px" y="0px"
	 width="296px" height="264.354px" viewBox="0 0 296 264.354" enable-background="new 0 0 296 264.354" xml:space="preserve">
<path fill="#331200" d="M242.915,264.354c-2.128,0-3.859-1.731-3.859-3.859v-27.781H56.944v27.781c0,2.128-1.731,3.859-3.859,3.859
	H21.438c-2.128,0-3.859-1.731-3.859-3.859v-27.781H3.859c-2.128,0-3.859-1.731-3.859-3.859v-75c0-13.018,6.269-25.44,16.77-33.231
	l0.808-0.6V50.734C17.578,22.759,40.337,0,68.313,0h56.543c2.128,0,3.859,1.731,3.859,3.859s-1.731,3.859-3.859,3.859H68.313
	c-23.719,0-43.016,19.297-43.016,43.016v64.915l2.65-0.912c4.332-1.489,8.844-2.245,13.412-2.245h3.172V76.899
	c0-11.39,9.267-20.656,20.656-20.656h66.016c5.814,0,11.396,2.482,15.314,6.811L148,64.692l1.482-1.638
	c3.918-4.329,9.5-6.811,15.314-6.811h66.016c11.39,0,20.656,9.267,20.656,20.656v35.594h3.172c4.568,0,9.081,0.755,13.412,2.245
	l2.65,0.912V50.734c0-23.719-19.297-43.016-43.016-43.016h-55.371c-2.128,0-3.859-1.731-3.859-3.859S170.188,0,172.316,0h55.371
	c27.975,0,50.734,22.759,50.734,50.734v69.287l0.809,0.6c10.5,7.792,16.77,20.215,16.77,33.232v75c0,2.128-1.731,3.859-3.859,3.859
	h-13.719v27.781c0,2.128-1.731,3.859-3.859,3.859H242.915z M246.774,256.634h23.929v-23.922h-23.929V256.634z M25.297,256.634
	h23.929v-23.922H25.297V256.634z M274.563,224.986l0.1,0.007h13.619v-20.406H51.86c-2.128,0-3.859-1.731-3.859-3.859
	s1.731-3.859,3.859-3.859h236.421v-43.016c0-18.55-15.091-33.641-33.641-33.641H41.359c-18.549,0-33.641,15.091-33.641,33.641
	v71.141h13.645l0.132-0.008l31.589,0.001l0.1,0.007h189.656l0.113-0.007H274.563z M164.797,63.961
	c-7.134,0-12.938,5.804-12.938,12.938v35.594h91.891V76.899c0-7.134-5.804-12.938-12.938-12.938H164.797z M65.188,63.961
	c-7.134,0-12.938,5.804-12.938,12.938v35.594h91.891V76.899c0-7.134-5.804-12.938-12.938-12.938H65.188z"/>
<path fill="#331200" d="M148,7.718c-1.015,0-2.01-0.412-2.729-1.131s-1.131-1.713-1.131-2.729s0.412-2.01,1.131-2.729
	s1.713-1.131,2.729-1.131c1.016,0,2.01,0.412,2.729,1.131s1.131,1.713,1.131,2.729c0,1.015-0.412,2.01-1.131,2.729
	S149.015,7.718,148,7.718z"/>
<path fill="#331200" d="M28.516,204.586c-1.015,0-2.01-0.412-2.729-1.131s-1.131-1.713-1.131-2.729s0.412-2.01,1.131-2.729
	s1.713-1.131,2.729-1.131s2.01,0.412,2.729,1.131s1.131,1.714,1.131,2.729s-0.412,2.01-1.131,2.729S29.531,204.586,28.516,204.586z"
	/>
</svg>
