<?xml version="1.0" encoding="utf-8"?>
<!-- Generator: Adobe Illustrator 16.0.0, SVG Export Plug-In . SVG Version: 6.00 Build 0)  -->
<!DOCTYPE svg PUBLIC "-//W3C//DTD SVG 1.1//EN" "http://www.w3.org/Graphics/SVG/1.1/DTD/svg11.dtd">
<svg version="1.1" id="Layer_1" xmlns="http://www.w3.org/2000/svg" xmlns:xlink="http://www.w3.org/1999/xlink" x="0px" y="0px"
	 width="216.874px" height="213.239px" viewBox="0 0 216.874 213.239" enable-background="new 0 0 216.874 213.239"
	 xml:space="preserve">
<g>
	<rect fill="none" width="216.874" height="213.236"/>
	<path fill="#331200" d="M39.343,198.695c-1.644-0.004-2.979-1.341-2.979-2.981v-43.64c0-0.881,0.391-1.716,1.073-2.289
		l17.781-14.801c3.104-2.588,7.04-4.034,11.082-4.071H113.6l0.306-0.005c6.437,0,11.841,5.245,12.047,11.688l0.008,0.388
		c0,6.655-5.414,12.069-12.07,12.069H90.254c-2.368,0-4.294,1.928-4.294,4.294c0,2.368,1.926,4.295,4.294,4.295h42.684
		l40.828-29.151c2.31-1.658,5.024-2.534,7.852-2.534c0.752,0,1.5,0.063,2.223,0.183c3.565,0.588,6.688,2.529,8.789,5.466
		c0.207,0.279,0.413,0.591,0.624,0.942c3.593,6.021,1.934,13.922-3.776,17.989l-44.124,36.454
		c-4.432,3.671-10.039,5.695-15.786,5.704h0.001H39.343z M129.565,192.736c4.367-0.011,8.629-1.548,11.994-4.335l44.253-36.551
		c3.382-2.457,4.361-6.844,2.331-10.246c-0.106-0.174-0.216-0.344-0.336-0.51c-1.189-1.657-2.939-2.747-4.934-3.079
		c-0.412-0.066-0.828-0.1-1.234-0.1c-1.586,0-3.108,0.489-4.402,1.417l-41.607,29.714c-0.521,0.364-1.119,0.555-1.738,0.555H90.254
		c-5.653,0-10.252-4.6-10.252-10.252s4.599-10.251,10.252-10.251h23.636c3.371,0,6.112-2.743,6.112-6.112
		c-0.105-3.415-2.863-6.114-6.278-6.114l-0.009-1.062v1.062h-47.39c-2.644,0.021-5.235,0.976-7.289,2.688l-16.713,13.913v39.264
		H129.565z"/>
	<rect fill="none" width="216.874" height="213.236"/>
	<path fill="#331200" d="M0,213.239v-5.96h36.255v-55.861H0v-5.957h39.234c1.643,0,2.979,1.336,2.979,2.979v61.818
		c0,1.644-1.336,2.98-2.979,2.98H0z"/>
	<rect fill="none" width="216.874" height="213.236"/>
	<path fill="#331200" d="M17.524,198.693c-5.652,0-10.251-4.601-10.251-10.253s4.599-10.252,10.251-10.252
		c5.653,0,10.252,4.6,10.252,10.252C27.775,194.093,23.176,198.693,17.524,198.693z M17.524,184.147
		c-2.367,0-4.293,1.925-4.293,4.293s1.926,4.296,4.293,4.296c2.368,0,4.295-1.928,4.295-4.296S19.893,184.147,17.524,184.147z"/>
	<rect fill="none" width="216.874" height="213.236"/>
	<path fill="#331200" d="M24.798,136.872C11.125,136.872,0,125.747,0,112.074c0-1.642,1.336-2.978,2.979-2.978h210.917
		c1.643,0,2.978,1.336,2.978,2.978c0,13.673-11.123,24.798-24.796,24.798H24.798z M6.338,115.843
		c1.779,8.731,9.542,15.07,18.46,15.07h167.279c8.918,0,16.681-6.339,18.459-15.07l0.16-0.789H6.177L6.338,115.843z"/>
	<rect fill="none" width="216.874" height="213.236"/>
	<path fill="#331200" d="M17.524,115.054c-1.643,0-2.979-1.337-2.979-2.979v-3.637c0-51.771,42.119-93.89,93.891-93.89
		c51.771,0,93.891,42.119,93.891,93.89v3.637c0,1.643-1.335,2.979-2.976,2.979H17.524z M196.369,109.099v-0.661
		c0-48.486-39.446-87.933-87.933-87.933s-87.933,39.447-87.933,87.933v0.661H196.369z"/>
	<rect fill="none" width="216.874" height="213.236"/>
	<path fill="#331200" d="M42.528,64.279l0.618-0.891c1.496-2.153,3.12-4.262,4.827-6.267l0.702-0.825l4.454,3.955l-0.672,0.791
		c-1.537,1.81-3.007,3.72-4.37,5.677l-0.593,0.851L42.528,64.279z"/>
	<rect fill="none" width="216.874" height="213.236"/>
	<path fill="#331200" d="M54.617,50.177l0.806-0.725c14.104-12.697,32.313-19.92,51.274-20.339l1.084-0.024l0.002,5.958
		l-1.037,0.024c-17.481,0.409-34.271,7.069-47.277,18.754l-0.772,0.694L54.617,50.177z"/>
	<rect fill="none" width="216.874" height="213.236"/>
	<rect x="105.458" fill="#331200" width="5.958" height="16.868"/>
</g>
</svg>
