<?xml version="1.0" encoding="utf-8"?>
<!-- Generator: Adobe Illustrator 16.0.0, SVG Export Plug-In . SVG Version: 6.00 Build 0)  -->
<!DOCTYPE svg PUBLIC "-//W3C//DTD SVG 1.1//EN" "http://www.w3.org/Graphics/SVG/1.1/DTD/svg11.dtd">
<svg version="1.1" id="Layer_1" xmlns="http://www.w3.org/2000/svg" xmlns:xlink="http://www.w3.org/1999/xlink" x="0px" y="0px"
	 width="298px" height="259.074px" viewBox="0 0 298 259.074" enable-background="new 0 0 298 259.074" xml:space="preserve">
<g>
	<path fill="#331200" d="M79.759,15.149c-1.872,0-3.395-1.523-3.395-3.395v-8.36C76.365,1.523,77.888,0,79.759,0
		s3.395,1.523,3.395,3.395v8.36C83.154,13.626,81.631,15.149,79.759,15.149z"/>
	<path fill="#331200" d="M79.759,92.021c-1.872,0-3.395-1.523-3.395-3.395v-8.36c0-1.872,1.523-3.395,3.395-3.395
		s3.395,1.523,3.395,3.395v8.36C83.154,90.498,81.631,92.021,79.759,92.021z"/>
	<path fill="#331200" d="M55.536,25.182c-0.907,0-1.759-0.353-2.399-0.994l-5.912-5.911c-0.642-0.642-0.995-1.494-0.995-2.401
		c0-0.907,0.353-1.759,0.994-2.4c0.642-0.641,1.494-0.995,2.401-0.995c0.907,0,1.759,0.354,2.399,0.995l5.912,5.911
		c0.642,0.641,0.995,1.494,0.995,2.4s-0.353,1.759-0.994,2.4C57.296,24.829,56.443,25.182,55.536,25.182L55.536,25.182z"/>
	<path fill="#331200" d="M109.894,79.539c-0.907,0-1.759-0.353-2.401-0.994l-5.912-5.912c-1.323-1.324-1.323-3.477,0-4.801
		c0.642-0.641,1.494-0.994,2.401-0.994s1.759,0.353,2.401,0.994l5.912,5.912c0.641,0.641,0.994,1.494,0.994,2.4
		s-0.353,1.759-0.994,2.4C111.653,79.186,110.801,79.539,109.894,79.539z"/>
	<path fill="#331200" d="M37.144,49.405c-1.872,0-3.395-1.523-3.395-3.395s1.523-3.395,3.395-3.395h8.36
		c1.872,0,3.395,1.523,3.395,3.395s-1.523,3.395-3.395,3.395H37.144z"/>
	<path fill="#331200" d="M114.015,49.405c-1.872,0-3.395-1.523-3.395-3.395s1.523-3.395,3.395-3.395h8.36
		c1.872,0,3.395,1.523,3.395,3.395s-1.523,3.395-3.395,3.395H114.015z"/>
	<path fill="#331200" d="M49.625,79.539c-1.666,0-2.71-1.088-3.132-2.107c-0.419-1.01-0.446-2.51,0.731-3.688l5.912-5.912
		c0.642-0.641,1.494-0.994,2.401-0.994s1.759,0.353,2.401,0.994c1.323,1.324,1.323,3.477,0,4.801l-5.912,5.912
		C51.385,79.186,50.532,79.539,49.625,79.539z"/>
	<path fill="#331200" d="M103.982,25.183c-0.907,0-1.76-0.354-2.401-0.995c-0.641-0.642-0.994-1.494-0.994-2.4
		c0-0.907,0.353-1.759,0.995-2.4l5.912-5.911c0.641-0.641,1.494-0.995,2.4-0.995s1.759,0.354,2.401,0.995
		c1.323,1.324,1.323,3.478-0.001,4.801l-5.911,5.911C105.742,24.829,104.889,25.183,103.982,25.183L103.982,25.183z"/>
	<path fill="#331200" d="M245.234,259.074c-1.872,0-3.395-1.522-3.395-3.395s1.522-3.395,3.395-3.395h39.75
		c1.712,0,3.307-0.679,4.491-1.911c1.185-1.233,1.799-2.857,1.729-4.574c-0.131-3.291-2.923-5.969-6.224-5.969
		c-0.583,0-1.167,0.085-1.735,0.253c-0.542,0.16-1.101,0.241-1.658,0.241c-2.347,0-4.445-1.404-5.346-3.578
		c-1.739-4.198-5.937-7.019-10.444-7.019c-1.153,0-2.301,0.181-3.413,0.537c-0.525,0.169-1.072,0.268-1.628,0.292
		c-0.092,0.004-0.184,0.006-0.276,0.006c-2.329,0-4.491-1.271-5.644-3.317c-2.605-4.63-7.514-7.506-12.808-7.506
		c-7.331,0-13.591,5.478-14.562,12.74c-0.333,2.488-2.496,4.364-5.031,4.364c-0.339,0-0.682-0.034-1.018-0.101
		c-0.529-0.105-1.049-0.158-1.546-0.158c-1.866,0-3.205,0.736-4.386,1.386c-1.066,0.587-1.986,1.093-3.223,1.093
		c-0.562,0-1.153-0.103-1.81-0.314c-0.687-0.222-1.389-0.334-2.086-0.334c-0.99,0-1.757,0.219-2.265,0.364
		c-0.117,0.033-0.217,0.063-0.301,0.081c-0.381,0.083-0.772,0.126-1.164,0.126c-2.027,0-3.913-1.1-4.921-2.87
		c-1.662-2.918-4.772-4.73-8.116-4.73c-4.475,0-8.332,3.188-9.172,7.579c-0.488,2.563-2.642,4.354-5.236,4.354
		c-0.214,0-0.431-0.012-0.648-0.037c-0.169-0.02-0.335-0.029-0.5-0.029c-2.414,0-4.482,2.038-4.517,4.45
		c-0.017,1.221,0.445,2.371,1.3,3.238c0.855,0.866,1.997,1.344,3.216,1.344h48.681c1.872,0,3.395,1.522,3.395,3.395
		s-1.522,3.395-3.395,3.395H3.395c-1.872,0-3.395-1.522-3.395-3.395s1.523-3.395,3.395-3.395h4.492L43.52,181.02
		c1.121-2.241,3.29-3.579,5.802-3.579c2.5,0,4.662,1.339,5.783,3.58l1.789,3.582l33.938-67.878c1.588-3.177,4.66-5.074,8.216-5.074
		s6.628,1.897,8.216,5.074c0.572,1.144,1.72,1.854,2.997,1.854c1.279,0,2.429-0.71,3.001-1.854l20.427-40.855
		c1.589-3.178,4.66-5.075,8.217-5.075c3.556,0,6.627,1.897,8.215,5.075l25.813,51.626L193.4,92.563
		c1.764-3.529,5.178-5.636,9.131-5.636c3.946,0,7.356,2.107,9.121,5.636l47.69,95.384c10.176,20.354,15.639,31.28,18.562,37.117
		c2.131,4.255,2.992,5.975,3.479,6.669l-0.089-0.047c0.056,0.089,0.197,0.351,0.54,1.006l0.334,0.64l0.714-0.117
		c0.692-0.113,1.395-0.171,2.088-0.171c6.902,0,12.743,5.601,13.02,12.484c0.143,3.584-1.142,6.976-3.616,9.552
		c-2.475,2.575-5.81,3.994-9.389,3.994H245.234z M99.048,118.433c-0.912,0-1.734,0.509-2.144,1.328l-36.216,72.431l30.047,60.094
		h22.803l58.601-117.199l-28.091-56.181c-0.41-0.819-1.231-1.329-2.144-1.329s-1.733,0.509-2.143,1.328l-20.428,40.857
		c-1.755,3.51-5.146,5.605-9.073,5.605c-3.924,0-7.314-2.095-9.069-5.605C100.782,118.942,99.961,118.433,99.048,118.433z
		 M15.478,252.285h67.668L65.732,217.46l-5.397,5.514c-1.428,1.458-3.345,2.261-5.399,2.261c-1.808,0-3.555-0.646-4.918-1.819
		l-7.798-6.71l-0.648,0.8c-0.406,0.501-0.806,1.017-1.205,1.532c-2.34,3.02-4.551,5.871-8.149,5.871
		c-0.642,0-1.329-0.091-2.042-0.269l-0.779-0.195L15.478,252.285z M121.131,252.283h44.447l-0.372-1.279
		c-0.306-1.052-0.479-2.322-0.465-3.397c0.083-5.881,4.745-10.767,10.614-11.122l0.683-0.041l0.209-0.651
		c2.148-6.696,8.32-11.195,15.356-11.195c5.237,0,10.169,2.565,13.191,6.863l0.371,0.527l0.633-0.12
		c0.834-0.157,1.689-0.237,2.544-0.237c1.109,0,2.213,0.134,3.279,0.397l0.403,0.1l0.354-0.215c2.274-1.376,4.878-2.104,7.53-2.104
		l1.122,0.021l0.198-0.768c2.452-9.486,11.005-16.112,20.8-16.112c7.338,0,14.319,3.875,18.219,10.113l0.388,0.62l0.708-0.182
		c1.305-0.334,2.651-0.521,4.004-0.556c0.156-0.005,0.313-0.007,0.472-0.007c0.591,0,1.184,0.029,1.762,0.085l1.8,0.176
		l-40.847-81.692l-14.348,14.66c-1.665,1.701-3.902,2.639-6.298,2.639c-2.11,0-4.148-0.754-5.739-2.123l-9.389-8.078
		c-0.367-0.315-0.834-0.49-1.316-0.49c-0.61,0-1.182,0.273-1.566,0.75l-5.032,6.206c-1.678,2.07-4.174,3.257-6.847,3.257
		c-2.222,0-4.343-0.83-5.974-2.338l-1.88-1.737L121.131,252.283z M42.326,210.24c1.799,0,3.544,0.649,4.914,1.828l7.745,6.665
		l7.535-7.699l-13.208-26.417l-12.897,25.792l1.482,1.257C39.163,210.747,40.736,210.24,42.326,210.24z M191.449,141.326
		c2.104,0,4.142,0.757,5.74,2.133l9.387,8.078c0.366,0.314,0.833,0.487,1.314,0.487c0.548,0,1.061-0.215,1.443-0.605l15.988-16.336
		L205.58,95.599c-0.583-1.164-1.753-1.887-3.055-1.887c-1.3,0-2.47,0.723-3.053,1.887l-26.165,52.331l3.327,3.077
		c0.375,0.347,0.861,0.537,1.37,0.537c0.61,0,1.182-0.272,1.566-0.747l5.032-6.208C186.285,142.515,188.78,141.326,191.449,141.326z
		"/>
	<path fill="#331200" d="M79.759,71.304c-13.947,0-25.293-11.347-25.293-25.294c0-13.947,11.347-25.293,25.293-25.293
		c9.38,0,17.944,5.152,22.348,13.446c0.878,1.653,0.248,3.713-1.406,4.591c-0.497,0.264-1.031,0.398-1.589,0.398
		c-1.261,0-2.411-0.691-3.001-1.803c-3.225-6.071-9.49-9.842-16.352-9.842c-10.203,0-18.504,8.301-18.504,18.503
		c0,10.203,8.301,18.504,18.504,18.504c6.862,0,13.128-3.771,16.352-9.841c0.591-1.112,1.742-1.803,3.002-1.803
		c0.557,0,1.091,0.134,1.588,0.397c1.653,0.879,2.284,2.938,1.406,4.592C97.702,66.152,89.139,71.304,79.759,71.304z"/>
</g>
</svg>
