<?xml version="1.0" encoding="utf-8"?>
<!-- Generator: Adobe Illustrator 16.0.0, SVG Export Plug-In . SVG Version: 6.00 Build 0)  -->
<!DOCTYPE svg PUBLIC "-//W3C//DTD SVG 1.1//EN" "http://www.w3.org/Graphics/SVG/1.1/DTD/svg11.dtd">
<svg version="1.1" id="Layer_1" xmlns="http://www.w3.org/2000/svg" xmlns:xlink="http://www.w3.org/1999/xlink" x="0px" y="0px"
	 width="216.123px" height="169.215px" viewBox="0 0 216.123 169.215" enable-background="new 0 0 216.123 169.215"
	 xml:space="preserve">
<g>
	<path fill="#331200" d="M91.552,50.921c-2.395,1.694-4.446,3.827-6.047,6.285c-0.795,1.219-0.452,2.852,0.768,3.647
		s2.853,0.452,3.648-0.768l0,0c1.238-1.903,2.826-3.554,4.68-4.866c1.182-0.85,1.451-2.497,0.602-3.678
		c-0.842-1.171-2.468-1.448-3.65-0.622V50.921z"/>
	<path fill="#331200" d="M43.817,163.943H24.499V43.203c0-0.044,0.006-0.084,0.006-0.127c0-20.845,16.081-37.804,35.847-37.804
		c19.001,0,34.59,15.676,35.767,35.408c-11.688,1.39-20.495,11.292-20.512,23.062v4.118c0,1.456,1.18,2.636,2.636,2.636h11.729
		c1.165,4.217,4.932,7.332,9.344,7.332s8.179-3.113,9.344-7.332h10.766c1.455,0,2.636-1.18,2.636-2.636v-4.118
		c-0.016-11.827-8.904-21.759-20.657-23.081C100.204,18.028,82.251,0,60.352,0C37.755,0,19.359,19.196,19.236,42.838
		c-0.004,0.061-0.009,0.122-0.009,0.184v120.919H2.636c-1.456,0-2.636,1.18-2.636,2.636c0,1.455,1.18,2.636,2.636,2.636h41.182
		c1.456,0,2.636-1.181,2.636-2.636C46.453,165.122,45.273,163.942,43.817,163.943L43.817,163.943z M99.314,72.557
		c-1.484-0.024-2.854-0.8-3.638-2.061h7.276C102.169,71.757,100.799,72.533,99.314,72.557z M116.789,63.742v1.482H80.878v-1.482
		c0-9.917,8.039-17.955,17.956-17.955C108.75,45.787,116.789,53.825,116.789,63.742z"/>
	<path fill="#331200" d="M203.676,123.22v-17.439c-0.055-6.124-5.057-11.049-11.181-11.009h-48.229
		c-2.967-0.015-5.814,1.16-7.907,3.264c-0.217,0.22-0.421,0.445-0.617,0.678c-2.139-2.507-5.269-3.947-8.563-3.941H78.674
		c-6.125-0.04-11.126,4.885-11.181,11.009v17.488c-6.537,0.579-11.566,6.026-11.621,12.589v30.722c0,1.456,1.18,2.636,2.636,2.636
		h20.435c1.456,0,2.636-1.18,2.636-2.636v-3.511l108.839,0.033v3.478c0,1.456,1.18,2.636,2.636,2.636h20.434
		c1.456,0,2.636-1.18,2.636-2.636v-30.723C216.061,128.977,210.554,123.385,203.676,123.22z M140.093,101.754
		c1.105-1.107,2.608-1.725,4.173-1.714h48.229c3.215-0.043,5.857,2.523,5.909,5.737v18.375c-4.799,1.907-7.959,6.538-7.986,11.702
		v1.032l-52.047-0.013l0.007-30.831C138.353,104.442,138.97,102.896,140.093,101.754L140.093,101.754z M78.674,100.041h48.502
		c3.215-0.043,5.858,2.524,5.909,5.74l0.012,31.093l-51.519-0.015v-1.002c-0.034-5.486-3.59-10.329-8.814-12.004v-18.072
		c0.051-3.215,2.694-5.781,5.909-5.738V100.041z M76.308,163.941H61.145v-28.084c0.115-4.188,3.603-7.488,7.79-7.374
		c4.026,0.11,7.263,3.349,7.374,7.374V163.941z M81.579,157.794V142.13l54.153,0.015h0.003l54.682,0.015v15.669L81.579,157.794z
		 M210.852,163.943h-15.162v-28.086c0.11-4.188,3.594-7.492,7.781-7.382c4.031,0.106,7.274,3.35,7.381,7.382V163.943z"/>
</g>
</svg>
