<?xml version="1.0" encoding="utf-8"?>
<!-- Generator: Adobe Illustrator 16.0.0, SVG Export Plug-In . SVG Version: 6.00 Build 0)  -->
<!DOCTYPE svg PUBLIC "-//W3C//DTD SVG 1.1//EN" "http://www.w3.org/Graphics/SVG/1.1/DTD/svg11.dtd">
<svg version="1.1" id="Layer_1" xmlns="http://www.w3.org/2000/svg" xmlns:xlink="http://www.w3.org/1999/xlink" x="0px" y="0px"
	 width="270.999px" height="296px" viewBox="0 0 270.999 296" enable-background="new 0 0 270.999 296" xml:space="preserve">
<g>
	<path fill="#331200" d="M53.001,81c-15.425-0.015-27.987-12.577-28.002-28.002c0-15.438,12.561-27.998,28-27.998s28,12.561,28,28
		C80.999,68.438,68.438,80.999,53.001,81L53.001,81z M52.999,31c-12.131,0-22,9.869-22,22s9.869,22,22,22s22-9.869,22-22
		S65.13,31,52.999,31z"/>
	<path fill="#331200" d="M27.999,271c-1.654,0-3-1.346-3-3v-67h-22c-0.939,0-1.836-0.448-2.4-1.2
		c-0.569-0.758-0.746-1.754-0.474-2.662l30-99.998c0.384-1.28,1.539-2.14,2.875-2.14h40c1.336,0,2.491,0.859,2.874,2.139l30,100
		c0.083,0.28,0.126,0.57,0.126,0.861c0,1.654-1.346,3-3,3h-22v67c0,1.654-1.346,3-3,3H27.999z M55.999,265h19v-67
		c0-1.654,1.346-3,3-3h20.968l-28.2-94H35.231l-28.2,94h20.968c1.654,0,3,1.346,3,3v67h19v-70h6V265z"/>
	<path fill="#331200" d="M222.997,81c-15.438-0.001-27.998-12.562-27.998-28c0-15.439,12.561-28,28-28s28,12.561,28,28
		C250.984,68.423,238.423,80.985,222.997,81L222.997,81z M222.999,31c-12.131,0-22,9.869-22,22s9.869,22,22,22s22-9.869,22-22
		S235.13,31,222.999,31z"/>
	<path fill="#331200" d="M197.999,271c-1.654,0-3-1.346-3-3v-67h-17c-1.654,0-3-1.346-3-3v-70c0.021-18.175,14.825-32.979,33.002-33
		h29.998c18.175,0.021,32.979,14.825,33,33.002V198c0,1.654-1.346,3-3,3h-17v67c0,1.654-1.346,3-3,3H197.999z M225.999,265h19V135h6
		v60h14v-67c-0.017-14.872-12.128-26.982-26.998-27h-30.002c-14.872,0.018-26.983,12.128-27,26.998V195h14v-60h6v130h19v-70h6V265z"
		/>
	<rect x="134.999" fill="#331200" width="6" height="296"/>
</g>
</svg>
