<?xml version="1.0" encoding="utf-8"?>
<!-- Generator: Adobe Illustrator 16.0.0, SVG Export Plug-In . SVG Version: 6.00 Build 0)  -->
<!DOCTYPE svg PUBLIC "-//W3C//DTD SVG 1.1//EN" "http://www.w3.org/Graphics/SVG/1.1/DTD/svg11.dtd">
<svg version="1.1" id="Layer_1" xmlns="http://www.w3.org/2000/svg" xmlns:xlink="http://www.w3.org/1999/xlink" x="0px" y="0px"
	 width="237.543px" height="269.012px" viewBox="0 0 237.543 269.012" enable-background="new 0 0 237.543 269.012"
	 xml:space="preserve">
<path fill="#331200" d="M79.645,269.012c-18.26,0-35.557-5.85-50.023-16.915c-14.004-10.713-24.376-25.897-29.204-42.755
	c-0.274-0.955-0.16-1.96,0.322-2.829c0.482-0.869,1.274-1.499,2.231-1.773c0.335-0.096,0.681-0.145,1.025-0.145
	c1.65,0,3.121,1.109,3.576,2.698c9.154,31.957,38.791,54.275,72.072,54.275c41.334,0,74.961-33.627,74.961-74.961
	c0-35.425-25.13-66.3-59.754-73.416l-1.916-0.394v18.485l1.191,0.312c24.967,6.535,42.404,29.157,42.404,55.013
	c0,31.366-25.52,56.886-56.886,56.886c-31.367,0-56.886-25.52-56.886-56.886c0-12.354,3.894-24.104,11.259-33.978
	c6.403-8.588,15.028-15.166,24.941-19.024l1.017-0.396v-18.979l-2.06,0.627c-24.509,7.463-43.899,27.385-50.602,51.991
	c-0.441,1.615-1.917,2.745-3.589,2.745c-0.33,0-0.659-0.045-0.976-0.132c-0.964-0.263-1.765-0.881-2.257-1.744
	c-0.493-0.862-0.621-1.866-0.359-2.826c3.964-14.549,11.884-27.748,22.904-38.17c10.084-9.536,22.496-16.411,35.892-19.881
	l1.126-0.292l0.066-1.161c0.737-12.879,4.42-25.626,10.651-36.863c3.474-6.268,8.744-11.197,15.24-14.254l2.252-1.06l-1.904-1.604
	C79.728,46.022,75.923,37.87,75.923,29.24C75.923,13.117,89.041,0,105.164,0c16.124,0,29.241,13.117,29.241,29.24
	c0,10.304-5.542,19.966-14.464,25.216l-2.142,1.26l2.038,1.422c9.121,6.367,14.567,16.776,14.567,27.843v40.035l0.524,0.475
	c1.68,1.522,3.335,3.155,4.919,4.854l0.474,0.507h18.897c7.843,0,15.409,2.339,21.882,6.766
	c6.474,4.427,11.397,10.629,14.239,17.938l20.198,51.901l0.922,0.133c12.02,1.727,21.083,12.192,21.083,24.345v4.646
	c0,2.052-1.67,3.722-3.722,3.722h-91.719l-0.477,0.544C125.943,258.746,103.353,269.012,79.645,269.012z M57.674,142.29
	c-16.945,8.354-27.472,25.335-27.472,44.317c0,27.263,22.18,49.442,49.443,49.442c27.263,0,49.443-22.18,49.443-49.442
	c0-21.482-13.689-40.373-34.063-47.008l-2.089-0.68v14.193c0,9.088-7.394,16.481-16.481,16.481s-16.481-7.394-16.481-16.481v-11.958
	L57.674,142.29z M148.125,140.778c5.954,8.89,10.066,18.693,12.222,29.139l0.263,1.272h6.803c1.455,0,2.784,0.857,3.386,2.183
	l27.01,59.488h32.347l-0.07-1.663c-0.391-9.204-7.918-16.413-17.136-16.413c-1.546,0-2.908-0.932-3.469-2.373l-21.074-54.154
	c-4.718-12.126-16.174-19.961-29.187-19.961h-12.757L148.125,140.778z M161.81,180.348c0.159,2.104,0.24,4.21,0.24,6.26
	c0,15.536-4.371,30.686-12.641,43.808l-1.541,2.445h41.766l-24.621-54.229h-3.334L161.81,180.348z M100.46,58.481
	c-9.629,0-18.511,5.231-23.18,13.651c-6.453,11.64-9.863,24.826-9.863,38.134v42.847c0,4.983,4.054,9.038,9.038,9.038
	c4.983,0,9.038-4.055,9.038-9.038v-51.393c0-2.052,1.669-3.722,3.721-3.722c2.052,0,3.722,1.67,3.722,3.724v3.541l1.314,0.234
	c10.843,1.936,21.02,5.958,30.247,11.958l2.464,1.602V84.982C126.961,70.369,115.073,58.481,100.46,58.481z M105.164,7.443
	c-12.019,0-21.797,9.778-21.797,21.797s9.778,21.797,21.797,21.797c12.02,0,21.797-9.778,21.797-21.797S117.184,7.443,105.164,7.443
	z"/>
<path fill="#331200" d="M0.961,190.775c-0.979,0-1.938-0.398-2.631-1.091c-0.693-0.693-1.09-1.652-1.09-2.631
	c0-0.979,0.397-1.938,1.09-2.632c0.69-0.693,1.647-1.09,2.631-1.09c0.984,0,1.941,0.396,2.628,1.087
	c0.696,0.696,1.094,1.655,1.094,2.635c0,0.979-0.397,1.938-1.09,2.631C2.9,190.377,1.941,190.775,0.961,190.775z"/>
<path fill="#331200" d="M99.698,213.988c-1.096,0-2.132-0.479-2.842-1.314c-0.642-0.757-0.951-1.721-0.87-2.711
	c0.082-0.991,0.543-1.891,1.301-2.533c6.132-5.201,9.649-12.791,9.649-20.822c0-2.053,1.669-3.722,3.722-3.722
	s3.722,1.669,3.722,3.722c0,10.222-4.474,19.88-12.275,26.497C101.43,213.675,100.576,213.988,99.698,213.988z"/>
<path fill="#331200" d="M79.645,221.34c-2.052,0-3.722-1.669-3.722-3.721s1.669-3.722,3.722-3.722h0.07
	c2.04,0,3.712,1.656,3.728,3.692c0.016,2.047-1.631,3.729-3.673,3.75H79.645z"/>
</svg>
