<?xml version="1.0" encoding="utf-8"?>
<!-- Generator: Adobe Illustrator 16.0.0, SVG Export Plug-In . SVG Version: 6.00 Build 0)  -->
<!DOCTYPE svg PUBLIC "-//W3C//DTD SVG 1.1//EN" "http://www.w3.org/Graphics/SVG/1.1/DTD/svg11.dtd">
<svg version="1.1" id="Layer_1" xmlns="http://www.w3.org/2000/svg" xmlns:xlink="http://www.w3.org/1999/xlink" x="0px" y="0px"
	 width="337.5px" height="384px" viewBox="0 0 337.5 384" enable-background="new 0 0 337.5 384" xml:space="preserve">
<path fill="#7BC143" d="M292.5,79.5V55.574H315V361.5H22.5V55.574H45V79.5h22.5V55.574H90V79.5h22.5V55.574H135V79.5h22.5V55.574
	H180V79.5h22.5V55.574H225V79.5h22.5V55.574H270V79.5H292.5z M270,0v33.074h-22.5V0H225v33.074h-22.5V0H180v33.074h-22.5V0H135
	v33.074h-22.5V0H90v33.074H67.5V0H45v33.074H0V384h337.5V33.074h-45V0H270z"/>
<rect x="90" y="116.051" fill="#7BC143" width="137.25" height="22.5"/>
<rect x="90" y="161.051" fill="#7BC143" width="180" height="22.5"/>
<rect x="90" y="206.051" fill="#7BC143" width="150.273" height="22.5"/>
<rect x="90" y="251.051" fill="#7BC143" width="180" height="22.5"/>
<rect x="90" y="296.051" fill="#7BC143" width="150.273" height="22.5"/>
<rect x="45" y="116.051" fill="#7BC143" width="22.5" height="22.5"/>
<rect x="45" y="161.051" fill="#7BC143" width="22.5" height="22.5"/>
<rect x="45" y="206.051" fill="#7BC143" width="22.5" height="22.5"/>
<rect x="45" y="251.051" fill="#7BC143" width="22.5" height="22.5"/>
<rect x="45" y="296.051" fill="#7BC143" width="22.5" height="22.5"/>
</svg>
