<?xml version="1.0" encoding="utf-8"?>
<!-- Generator: Adobe Illustrator 16.0.0, SVG Export Plug-In . SVG Version: 6.00 Build 0)  -->
<!DOCTYPE svg PUBLIC "-//W3C//DTD SVG 1.1//EN" "http://www.w3.org/Graphics/SVG/1.1/DTD/svg11.dtd">
<svg version="1.1" id="Capa_1" xmlns="http://www.w3.org/2000/svg" xmlns:xlink="http://www.w3.org/1999/xlink" x="0px" y="0px"
	 width="300px" height="300px" viewBox="0 0 300 300" enable-background="new 0 0 300 300" xml:space="preserve">
<g>
	<g>
		<path fill="#58A01C" d="M75,0c-5.917,0-10.714,4.797-10.714,10.714v21.428h21.428V10.714C85.714,4.797,80.917,0,75,0z"/>
	</g>
</g>
<g>
	<g>
		<path fill="#58A01C" d="M225,0c-5.918,0-10.715,4.797-10.715,10.714v21.428h21.429V10.714C235.715,4.797,230.918,0,225,0z"/>
	</g>
</g>
<g>
	<g>
		<path fill="#58A01C" d="M267.857,32.143h-32.143V75c0,5.917-4.797,10.715-10.715,10.715S214.285,80.917,214.285,75V32.143H85.714
			V75c0,5.917-4.797,10.715-10.714,10.715S64.285,80.917,64.285,75V32.143H32.143C14.391,32.143,0,46.534,0,64.286v203.572
			C0,285.609,14.391,300,32.143,300h235.714C285.609,300,300,285.609,300,267.857V64.286C300,46.534,285.609,32.143,267.857,32.143z
			 M278.57,267.857c0,5.918-4.797,10.715-10.714,10.715H32.143c-5.918,0-10.715-4.797-10.715-10.715V128.571H278.57V267.857z"/>
	</g>
</g>
<g>
	<g>
		<path fill="#58A01C" d="M85.714,150H64.286c-5.917,0-10.714,4.797-10.714,10.715c0,5.917,4.797,10.714,10.714,10.714h21.428
			c5.917,0,10.715-4.797,10.715-10.714C96.429,154.797,91.631,150,85.714,150z"/>
	</g>
</g>
<g>
	<g>
		<path fill="#58A01C" d="M160.715,150h-21.429c-5.917,0-10.714,4.797-10.714,10.715c0,5.917,4.797,10.714,10.714,10.714h21.429
			c5.917,0,10.714-4.797,10.714-10.714C171.429,154.797,166.632,150,160.715,150z"/>
	</g>
</g>
<g>
	<g>
		<path fill="#58A01C" d="M235.715,150h-21.429c-5.917,0-10.715,4.797-10.715,10.715c0,5.917,4.798,10.714,10.715,10.714h21.429
			c5.917,0,10.714-4.797,10.714-10.714C246.429,154.797,241.631,150,235.715,150z"/>
	</g>
</g>
<g>
	<g>
		<path fill="#58A01C" d="M85.714,192.857H64.286c-5.917,0-10.714,4.797-10.714,10.714c0,5.918,4.797,10.715,10.714,10.715h21.428
			c5.917,0,10.715-4.797,10.715-10.715C96.429,197.654,91.631,192.857,85.714,192.857z"/>
	</g>
</g>
<g>
	<g>
		<path fill="#58A01C" d="M160.715,192.857h-21.429c-5.917,0-10.714,4.797-10.714,10.714c0,5.918,4.797,10.715,10.714,10.715h21.429
			c5.917,0,10.714-4.797,10.714-10.715C171.429,197.654,166.632,192.857,160.715,192.857z"/>
	</g>
</g>
<g>
	<g>
		<path fill="#58A01C" d="M235.715,192.857h-21.429c-5.917,0-10.715,4.797-10.715,10.714c0,5.918,4.798,10.715,10.715,10.715h21.429
			c5.917,0,10.714-4.797,10.714-10.715C246.428,197.654,241.631,192.857,235.715,192.857z"/>
	</g>
</g>
<g>
	<g>
		<path fill="#58A01C" d="M85.714,235.715H64.286c-5.917,0-10.714,4.797-10.714,10.714s4.797,10.714,10.714,10.714h21.428
			c5.917,0,10.715-4.797,10.715-10.715C96.429,240.511,91.631,235.715,85.714,235.715z"/>
	</g>
</g>
<g>
	<g>
		<path fill="#58A01C" d="M160.715,235.715h-21.429c-5.917,0-10.714,4.797-10.714,10.714s4.797,10.714,10.714,10.714h21.429
			c5.917,0,10.714-4.797,10.714-10.714S166.632,235.715,160.715,235.715z"/>
	</g>
</g>
<g>
	<g>
		<path fill="#58A01C" d="M235.715,235.715h-21.429c-5.917,0-10.715,4.797-10.715,10.714s4.798,10.714,10.715,10.714h21.429
			c5.917,0,10.714-4.797,10.714-10.714S241.631,235.715,235.715,235.715z"/>
	</g>
</g>
</svg>
