<?xml version="1.0" encoding="utf-8"?>
<!-- Generator: Adobe Illustrator 16.0.0, SVG Export Plug-In . SVG Version: 6.00 Build 0)  -->
<!DOCTYPE svg PUBLIC "-//W3C//DTD SVG 1.1//EN" "http://www.w3.org/Graphics/SVG/1.1/DTD/svg11.dtd">
<svg version="1.1" id="Layer_1" xmlns="http://www.w3.org/2000/svg" xmlns:xlink="http://www.w3.org/1999/xlink" x="0px" y="0px"
	 width="214.979px" height="214.977px" viewBox="0 0 214.979 214.977" enable-background="new 0 0 214.979 214.977"
	 xml:space="preserve">
<g>
	<defs>
		<rect id="SVGID_1_" width="214.979" height="214.977"/>
	</defs>
	<clipPath id="SVGID_2_">
		<use xlink:href="#SVGID_1_"  overflow="visible"/>
	</clipPath>
	<path clip-path="url(#SVGID_2_)" fill="#331200" d="M146.047,214.977c-7.404,0-14.365-2.883-19.603-8.119l-2.656-2.656
		c-4.357-4.354-10.146-6.75-16.297-6.75c-6.152,0-11.94,2.396-16.297,6.75l-2.657,2.656c-5.236,5.236-12.198,8.119-19.602,8.119
		c-7.404,0-14.366-2.883-19.602-8.119l-2.656-2.656c-4.358-4.354-10.146-6.75-16.297-6.75s-11.939,2.396-16.297,6.75l-9.266,9.266
		l-3.304-3.305l9.265-9.266c1.8-1.799,3.87-3.355,6.151-4.629l0.6-0.334v-26.521H2.339c-1.289,0-2.336-1.049-2.336-2.338v-14.02
		c0-1.289,1.048-2.338,2.336-2.338h8.179V127.35H0.002v-4.672h17.525V74.775H2.339c-1.02,0-1.939-0.684-2.237-1.662
		c-0.301-0.989,0.078-2.043,0.942-2.62L35.053,47.82V16.357c0-1.288,1.048-2.337,2.337-2.337h48.364l20.442-13.628
		C106.582,0.136,107.03,0,107.491,0c0.463,0,0.91,0.136,1.296,0.392l20.441,13.628h48.363c1.289,0,2.337,1.049,2.337,2.337V47.82
		l34.01,22.674c0.851,0.568,1.238,1.645,0.941,2.618c-0.298,0.979-1.218,1.663-2.237,1.663h-15.188v47.903h17.525v4.672h-10.516
		v23.367h8.179c1.289,0,2.337,1.049,2.337,2.338v14.02c0,1.289-1.048,2.338-2.337,2.338h-15.188v26.521l0.599,0.334
		c2.285,1.275,4.354,2.834,6.151,4.629l9.265,9.266l-3.304,3.305l-9.266-9.266c-4.358-4.354-10.146-6.75-16.298-6.75
		c-6.15,0-11.939,2.396-16.297,6.75l-2.656,2.656C160.412,212.094,153.451,214.977,146.047,214.977 M127.354,201.158l2.396,2.396
		c4.358,4.352,10.146,6.748,16.298,6.748s11.939-2.396,16.297-6.748l2.656-2.658c3.54-3.539,7.992-6.051,12.873-7.266l0.888-0.219
		v-24h-42.062v-4.674h73.606v-9.348h-82.952V201.158z M36.221,193.412l0.887,0.219c4.882,1.215,9.333,3.727,12.874,7.266
		l2.656,2.656c4.358,4.354,10.146,6.75,16.297,6.75s11.939-2.396,16.297-6.748l2.397-2.396v-45.768H4.676v9.348h73.606v4.674H36.221
		V193.412z M107.491,192.777c4.696,0,9.348,1.207,13.451,3.49l1.737,0.967v-13.803H92.302v13.803l1.737-0.967
		C98.143,193.984,102.794,192.777,107.491,192.777 M183.434,192.777h1.168c2.196,0,4.46,0.287,6.728,0.854l1.452,0.363v-24.582
		h-9.348V192.777z M22.201,193.994l1.451-0.363c2.269-0.566,4.532-0.854,6.728-0.854h1.168v-23.365h-9.347V193.994z M92.302,178.758
		h30.377v-9.346H92.302V178.758z M92.302,164.738h30.377v-9.348H92.302V164.738z M190.444,150.717h9.347V127.35h-9.347V150.717z
		 M176.424,150.717h9.347V127.35h-9.347V150.717z M162.403,150.717h9.347V127.35h-9.347V150.717z M148.383,150.717h9.348V127.35
		h-9.348V150.717z M134.363,150.717h9.347V127.35h-9.347V150.717z M85.292,150.717h44.397V127.35h-7.01v-4.672h56.081V74.775H36.221
		v47.903h56.081v4.672h-7.01V150.717z M71.272,150.717h9.347V127.35h-9.347V150.717z M57.251,150.717h9.347V127.35h-9.347V150.717z
		 M43.231,150.717h9.347V127.35h-9.347V150.717z M29.211,150.717h9.347V127.35h-9.347V150.717z M15.191,150.717h9.347V127.35h-9.347
		V150.717z M183.434,122.678h9.348V74.775h-9.348V122.678z M22.201,122.678h9.347V74.775h-9.347V122.678z M10.056,70.101h194.87
		L107.491,5.145L10.056,70.101z M175.256,44.705V18.693h-39.018L175.256,44.705z M39.727,44.705l39.017-26.011H39.727V44.705z"/>
</g>
</svg>
