<?xml version="1.0" encoding="utf-8"?>
<!-- Generator: Adobe Illustrator 16.0.0, SVG Export Plug-In . SVG Version: 6.00 Build 0)  -->
<!DOCTYPE svg PUBLIC "-//W3C//DTD SVG 1.1//EN" "http://www.w3.org/Graphics/SVG/1.1/DTD/svg11.dtd">
<svg version="1.1" id="Layer_1" xmlns="http://www.w3.org/2000/svg" xmlns:xlink="http://www.w3.org/1999/xlink" x="0px" y="0px"
	 width="239.479px" height="235.423px" viewBox="0 0 239.479 235.423" enable-background="new 0 0 239.479 235.423"
	 xml:space="preserve">
<g>
	<defs>
		<rect id="SVGID_1_" width="239.479" height="235.423"/>
	</defs>
	<clipPath id="SVGID_2_">
		<use xlink:href="#SVGID_1_"  overflow="visible"/>
	</clipPath>
	<path clip-path="url(#SVGID_2_)" fill="#331200" d="M42.691,219.204c-1.18,0-2.14-0.96-2.14-2.14v-48.662
		c0-0.635,0.283-1.236,0.774-1.65l19.825-16.5c3.254-2.713,7.377-4.228,11.61-4.265h52.737c0.145-0.003,0.243-0.005,0.341-0.005
		c6.546,0,12.042,5.332,12.252,11.887c0,0,0.007,0.358,0.007,0.396c0,6.768-5.507,12.276-12.275,12.276H99.463
		c-3.292,0-5.971,2.678-5.971,5.971c0,3.294,2.679,5.972,5.971,5.972h47.978l45.837-32.729c2.377-1.706,5.165-2.605,8.069-2.605
		c0.76,0,1.527,0.062,2.281,0.188c3.667,0.604,6.875,2.598,9.034,5.615c0.221,0.299,0.431,0.615,0.644,0.972
		c3.692,6.188,1.987,14.309-3.882,18.489l-0.057,0.04l-49.214,40.664c-4.732,3.918-10.717,6.08-16.852,6.087h0.002H42.691z
		 M72.78,150.265c-3.237,0.027-6.387,1.189-8.886,3.27L44.83,169.406v45.52h98.47c5.148-0.009,10.165-1.822,14.13-5.104
		l49.347-40.757c4.217-3.062,5.448-8.614,2.861-12.946c-0.141-0.232-0.28-0.448-0.435-0.659c-1.5-2.093-3.727-3.483-6.263-3.903
		c-0.529-0.085-1.054-0.128-1.571-0.128c-2.021,0-3.957,0.626-5.598,1.804l-46.396,33.133c-0.366,0.256-0.802,0.396-1.251,0.396
		H99.463c-5.651,0-10.249-4.597-10.249-10.248s4.597-10.249,10.249-10.249h26.359c4.41,0,7.998-3.587,7.998-7.999
		c-0.138-4.514-3.733-8.002-8.185-8.002h-0.01L72.78,150.265z"/>
	<path clip-path="url(#SVGID_2_)" fill="#331200" d="M0,235.423v-4.277h40.43v-64.661H0v-4.276h42.569
		c1.179,0,2.139,0.959,2.139,2.138v68.938c0,1.181-0.959,2.139-2.139,2.139H0z"/>
	<path clip-path="url(#SVGID_2_)" fill="#331200" d="M18.36,219.204c-5.652,0-10.249-4.6-10.249-10.251
		c0-5.65,4.597-10.248,10.249-10.248c5.651,0,10.249,4.598,10.249,10.248C28.608,214.604,24.011,219.204,18.36,219.204
		 M18.36,202.983c-3.293,0-5.971,2.679-5.971,5.97c0,3.295,2.678,5.973,5.971,5.973c3.292,0,5.972-2.678,5.972-5.973
		C24.332,205.662,21.652,202.983,18.36,202.983"/>
	<path clip-path="url(#SVGID_2_)" fill="#331200" d="M26.47,150.265C11.875,150.265,0,138.39,0,123.796
		c0-1.18,0.959-2.139,2.139-2.139H237.34c1.179,0,2.138,0.958,2.138,2.139c0,14.594-11.873,26.469-26.469,26.469H26.47z
		 M4.726,128.233c2.095,10.286,11.239,17.754,21.745,17.754h186.539c10.504,0,19.649-7.468,21.743-17.754l0.468-2.299H4.258
		L4.726,128.233z"/>
	<path clip-path="url(#SVGID_2_)" fill="#331200" d="M18.36,125.934c-1.181,0-2.14-0.96-2.14-2.138v-4.055
		c0-57.081,46.438-103.519,103.519-103.519S223.257,62.66,223.257,119.741v4.055c0,1.178-0.959,2.138-2.137,2.138H18.36z
		 M119.739,20.499c-54.721,0-99.241,44.519-99.241,99.242v1.917h198.481v-1.917C218.979,65.018,174.46,20.499,119.739,20.499"/>
	<path clip-path="url(#SVGID_2_)" fill="#331200" d="M47.903,70.178c1.649-2.374,3.428-4.684,5.311-6.896l3.198,2.84
		c-1.744,2.054-3.398,4.203-4.942,6.42L47.903,70.178z"/>
	<path clip-path="url(#SVGID_2_)" fill="#331200" d="M61.412,54.842c15.576-14.022,35.47-21.915,56.412-22.378l0.002,4.279
		c-19.853,0.464-38.709,7.942-53.484,21.216L61.412,54.842z"/>
	<rect x="117.6" clip-path="url(#SVGID_2_)" fill="#331200" width="4.278" height="16.444"/>
</g>
</svg>
