<?xml version="1.0" encoding="utf-8"?>
<!-- Generator: Adobe Illustrator 16.0.0, SVG Export Plug-In . SVG Version: 6.00 Build 0)  -->
<!DOCTYPE svg PUBLIC "-//W3C//DTD SVG 1.1//EN" "http://www.w3.org/Graphics/SVG/1.1/DTD/svg11.dtd">
<svg version="1.1" id="Layer_1" xmlns="http://www.w3.org/2000/svg" xmlns:xlink="http://www.w3.org/1999/xlink" x="0px" y="0px"
	 width="181.271px" height="180.691px" viewBox="0 0 181.271 180.691" enable-background="new 0 0 181.271 180.691"
	 xml:space="preserve">
<g>
	<g>
		<path fill="#C17339" d="M160.396,127.635c-0.994-0.411-2.139-0.185-2.897,0.576l-29.078,29.076
			c-0.76,0.762-0.988,1.905-0.576,2.899s1.383,1.643,2.459,1.643h29.076c1.47,0,2.66-1.189,2.66-2.66v-29.077
			C162.038,129.018,161.39,128.047,160.396,127.635z M136.724,156.51l19.993-19.992v19.992H136.724z"/>
	</g>
</g>
<g>
	<g>
		<path fill="#C17339" d="M179.63,84.988c-0.994-0.412-2.139-0.185-2.899,0.577l-7.97,7.968v-54.18c0-1.47-1.19-2.66-2.66-2.66
			h-20.441l7.421-7.421c0.001-0.001,0.002-0.002,0.003-0.003l7.149-7.15c1.532-1.532,2.376-3.57,2.376-5.737
			s-0.844-4.202-2.376-5.735l-8.269-8.27C150.433,0.844,148.394,0,146.228,0c-2.167,0-4.205,0.844-5.735,2.376l-7.154,7.153
			l-8.646,8.646l-18.518,18.519H23.587V10.371c0-1.47-1.192-2.661-2.661-2.661C9.388,7.711,0,17.097,0,28.637v113.007
			c0,0.195,0.021,0.388,0.063,0.57c0.368,4.896,2.486,9.445,6.026,12.899c3.784,3.69,8.779,5.723,14.065,5.723h81.304L86.145,176.15
			c-0.761,0.761-0.988,1.905-0.577,2.898c0.412,0.994,1.383,1.644,2.458,1.644h90.585c1.47,0,2.66-1.191,2.66-2.66V87.447
			C181.272,86.37,180.624,85.4,179.63,84.988z M144.255,6.14c1.087-1.09,2.858-1.09,3.947,0l8.268,8.269
			c1.089,1.088,1.089,2.859,0,3.947l-5.271,5.271l-12.218-12.216L144.255,6.14z M135.219,15.175l12.216,12.217l-4.881,4.882
			l-12.217-12.216L135.219,15.175z M175.952,117.343h-4.909c-1.47,0-2.661,1.191-2.661,2.661c0,1.471,1.191,2.66,2.661,2.66h4.909
			v8.019h-4.909c-1.47,0-2.661,1.19-2.661,2.66c0,1.471,1.191,2.661,2.661,2.661h4.909v8.018h-4.909c-1.47,0-2.661,1.19-2.661,2.661
			c0,1.47,1.191,2.659,2.661,2.659h4.909v8.02h-4.909c-1.47,0-2.661,1.19-2.661,2.66s1.191,2.661,2.661,2.661h4.909v12.688H94.45
			l26.875-26.875c1.038-1.039,1.038-2.724,0-3.763c-0.119-0.119-0.248-0.223-0.383-0.314c-1.035-0.71-2.462-0.604-3.382,0.314
			l-10.783,10.783H20.155c-8.068,0-14.564-6.301-14.82-14.354c0.015-0.506,0.055-1.008,0.118-1.503c0-0.003,0.001-0.006,0.001-0.009
			c0.029-0.235,0.064-0.469,0.105-0.702c0.004-0.026,0.009-0.054,0.015-0.08c0.036-0.207,0.078-0.415,0.125-0.621
			c0.013-0.057,0.025-0.114,0.039-0.172c0.041-0.173,0.084-0.347,0.131-0.519c0.025-0.095,0.053-0.188,0.08-0.279
			c0.038-0.136,0.078-0.271,0.121-0.404s0.089-0.266,0.136-0.396c0.031-0.093,0.063-0.186,0.099-0.276
			c0.064-0.174,0.133-0.347,0.204-0.518c0.021-0.05,0.04-0.101,0.061-0.148c0.092-0.212,0.187-0.422,0.285-0.63
			c0.004-0.009,0.008-0.019,0.014-0.026c2.081-4.307,6.083-7.518,10.887-8.514c0.014-0.003,0.027-0.006,0.041-0.009
			c0.22-0.045,0.441-0.084,0.666-0.119c0.037-0.006,0.074-0.014,0.112-0.021c0.201-0.029,0.406-0.055,0.61-0.078
			c0.059-0.006,0.114-0.015,0.172-0.021c0.197-0.02,0.396-0.033,0.596-0.045c0.063-0.004,0.126-0.011,0.188-0.015
			c0.26-0.014,0.523-0.021,0.787-0.021c1.469,0,2.661-1.191,2.661-2.661v-19.291c0-1.47-1.192-2.661-2.661-2.661
			s-2.661,1.191-2.661,2.661v16.799c-4.493,0.568-8.663,2.572-11.951,5.783c-0.346,0.337-0.674,0.688-0.993,1.046V28.637
			c0-7.697,5.604-14.112,12.944-15.38v26.096v54.091v0.001c0,1.469,1.191,2.66,2.661,2.66s2.661-1.191,2.661-2.66v-0.001v-51.43
			h77.267l-14.71,14.709c-1.039,1.039-1.039,2.723,0,3.763c1.039,1.038,2.725,1.038,3.764,0l19.25-19.251
			c0.001-0.001,0.001-0.001,0.001-0.002l17.414-17.413l12.216,12.216l-1.434,1.435c-0.002,0.001-0.002,0.002-0.004,0.003
			L83.705,91.121L71.489,78.904L82.063,68.33c1.04-1.04,1.04-2.724,0-3.763c-1.039-1.039-2.723-1.039-3.762,0L65.844,77.023
			c-0.066,0.065-0.129,0.137-0.187,0.209c-0.021,0.023-0.037,0.05-0.056,0.075c-0.038,0.05-0.075,0.101-0.108,0.151
			c-0.021,0.03-0.037,0.063-0.057,0.093c-0.028,0.051-0.058,0.102-0.083,0.151c-0.017,0.033-0.032,0.067-0.048,0.103
			c-0.022,0.052-0.045,0.104-0.065,0.157c-0.008,0.021-0.017,0.037-0.023,0.057l-5.184,14.684L56.5,102.716
			c-0.046,0.134-0.081,0.27-0.105,0.404h-8.848c-1.469,0-2.661,1.191-2.661,2.661s1.191,2.66,2.661,2.66h73.682
			c1.472,0,2.661-1.19,2.661-2.66s-1.189-2.661-2.661-2.661H68.364l16.228-5.728c0.013-0.005,0.026-0.013,0.04-0.018
			c0.063-0.022,0.125-0.05,0.186-0.077c0.024-0.012,0.05-0.021,0.073-0.033c0.063-0.031,0.126-0.067,0.188-0.104
			c0.02-0.012,0.04-0.021,0.06-0.035c0.064-0.041,0.127-0.086,0.188-0.134c0.015-0.012,0.03-0.021,0.046-0.034
			c0.073-0.059,0.146-0.123,0.215-0.191l54.751-54.751h23.104v56.842l-38.06,38.059c-1.039,1.04-1.039,2.725,0,3.764
			c0.064,0.063,0.134,0.126,0.202,0.183c0.487,0.396,1.084,0.597,1.68,0.597s1.191-0.199,1.68-0.597
			c0.069-0.056,0.138-0.118,0.201-0.183c0.002-0.002,0,0,0.002-0.002l46.808-46.807v23.473H175.952z M78.838,93.779l-7.622,2.689
			l-5.078-5.077l2.69-7.621L78.838,93.779z"/>
	</g>
</g>
</svg>
