<?xml version="1.0" encoding="utf-8"?>
<!-- Generator: Adobe Illustrator 16.0.0, SVG Export Plug-In . SVG Version: 6.00 Build 0)  -->
<!DOCTYPE svg PUBLIC "-//W3C//DTD SVG 1.1//EN" "http://www.w3.org/Graphics/SVG/1.1/DTD/svg11.dtd">
<svg version="1.1" id="Layer_1" xmlns="http://www.w3.org/2000/svg" xmlns:xlink="http://www.w3.org/1999/xlink" x="0px" y="0px"
	 width="202.979px" height="206.232px" viewBox="0 0 202.979 206.232" enable-background="new 0 0 202.979 206.232"
	 xml:space="preserve">
<g>
	<g>
		<g>
			<path fill="#C17339" d="M3.516,206.233c-1.938,0-3.517-1.575-3.517-3.517v-37.052c0-0.938,0.366-1.822,1.03-2.487l68.464-68.469
				l-0.378-0.995c-2.973-7.82-4.479-16.077-4.479-24.543C64.636,31.031,95.666,0,133.807,0c18.445,0,35.809,7.203,48.889,20.283
				c13.08,13.079,20.282,30.44,20.282,48.888c0,38.142-31.03,69.171-69.171,69.171c-8.468,0-16.728-1.51-24.55-4.485l-0.994-0.378
				l-17.172,17.17c-0.664,0.665-1.547,1.031-2.485,1.031h-12.75v12.749c0,1.938-1.578,3.516-3.517,3.516h-6.702v6.703
				c0,1.938-1.578,3.517-3.517,3.517H47.857v14.278c0,0.94-0.367,1.825-1.032,2.488l-10.29,10.276
				c-0.664,0.661-1.546,1.025-2.485,1.025H3.516L3.516,206.233z M68.472,120.9c0.801,0,1.555,0.313,2.122,0.88
				c0.566,0.567,0.879,1.32,0.879,2.121c0,0.803-0.313,1.556-0.879,2.121L7.034,189.583v9.618h25.563l8.229-8.218v-16.337
				c0-1.938,1.578-3.518,3.516-3.518h14.265v-6.701c0-1.938,1.577-3.517,3.516-3.517h6.703v-12.748c0-1.94,1.577-3.519,3.516-3.519
				h14.81l17.788-17.789c0.015-0.013,0.027-0.024,0.042-0.038c0.67-0.65,1.565-1.017,2.478-1.017c0.484,0,0.957,0.101,1.405,0.296
				c7.876,3.458,16.269,5.211,24.944,5.211c34.263,0,62.139-27.875,62.14-62.138c0-34.265-27.876-62.139-62.139-62.139
				c-34.264,0-62.139,27.874-62.139,62.139c0,8.676,1.751,17.065,5.205,24.938c0.578,1.317,0.3,2.836-0.707,3.869l-0.049,0.052
				L7.034,167.12v13.974L66.35,121.78C66.917,121.214,67.67,120.9,68.472,120.9z"/>
		</g>
	</g>
	<g>
		<g>
			<path fill="#C17339" d="M148.798,66.014c-9.752,0-17.687-7.934-17.687-17.687c0-9.751,7.935-17.687,17.687-17.687
				s17.688,7.936,17.688,17.687C166.484,58.08,158.55,66.014,148.798,66.014z M148.798,37.674c-5.875,0-10.652,4.779-10.652,10.653
				s4.777,10.653,10.652,10.653c5.874,0,10.653-4.778,10.653-10.653S154.672,37.674,148.798,37.674z"/>
		</g>
	</g>
</g>
</svg>
