<?xml version="1.0" encoding="utf-8"?>
<!-- Generator: Adobe Illustrator 16.0.0, SVG Export Plug-In . SVG Version: 6.00 Build 0)  -->
<!DOCTYPE svg PUBLIC "-//W3C//DTD SVG 1.1//EN" "http://www.w3.org/Graphics/SVG/1.1/DTD/svg11.dtd">
<svg version="1.1" id="Layer_1" xmlns="http://www.w3.org/2000/svg" xmlns:xlink="http://www.w3.org/1999/xlink" x="0px" y="0px"
	 width="196.68px" height="253.146px" viewBox="0 0 196.68 253.146" enable-background="new 0 0 196.68 253.146"
	 xml:space="preserve">
<g>
	<path fill="#C17339" d="M96.682,253.147c-0.522,0-1.029-0.107-1.507-0.314l-12.94-5.641C32.334,225.374,0.055,176.084,0,121.621
		V54.875c0-1.38,0.75-2.649,1.958-3.312l93.24-51.098C95.755,0.161,96.383,0,97.014,0c0.616,0,1.229,0.154,1.772,0.445
		l95.896,51.097c1.232,0.657,1.998,1.933,1.997,3.332v65.424c-0.003,55.281-32.938,104.832-83.907,126.238l-14.592,6.301
		C97.705,253.042,97.201,253.147,96.682,253.147z M7.545,57.111v64.512c0.053,51.459,30.556,98.034,77.709,118.651l11.434,4.986
		l13.155-5.678l0.051-0.029c48.092-20.178,79.229-67.006,79.24-119.257l-0.001-63.158L97.038,8.063L7.545,57.111z"/>
	<path fill="#C17339" d="M83.413,154.93c-1.107,0-2.154-0.482-2.873-1.324l-25.219-29.53c-0.655-0.767-0.972-1.742-0.892-2.749
		c0.079-1.005,0.545-1.918,1.311-2.571c0.684-0.584,1.553-0.905,2.449-0.905c1.107,0,2.155,0.483,2.874,1.324l22.822,26.724
		l55.872-45.453c0.682-0.554,1.504-0.847,2.38-0.847c1.144,0,2.211,0.507,2.931,1.392c0.637,0.783,0.932,1.766,0.828,2.769
		c-0.103,1.003-0.59,1.904-1.372,2.54l-58.732,47.785C85.11,154.639,84.289,154.93,83.413,154.93z"/>
</g>
</svg>
