<?xml version="1.0" encoding="utf-8"?>
<!-- Generator: Adobe Illustrator 16.0.0, SVG Export Plug-In . SVG Version: 6.00 Build 0)  -->
<!DOCTYPE svg PUBLIC "-//W3C//DTD SVG 1.1//EN" "http://www.w3.org/Graphics/SVG/1.1/DTD/svg11.dtd">
<svg version="1.1" id="Layer_1" xmlns="http://www.w3.org/2000/svg" xmlns:xlink="http://www.w3.org/1999/xlink" x="0px" y="0px"
	 width="194.959px" height="194.943px" viewBox="0 0 194.959 194.943" enable-background="new 0 0 194.959 194.943"
	 xml:space="preserve">
<g>
	<defs>
		<rect id="SVGID_1_" width="194.959" height="194.943"/>
	</defs>
	<clipPath id="SVGID_2_">
		<use xlink:href="#SVGID_1_"  overflow="visible"/>
	</clipPath>
	<path clip-path="url(#SVGID_2_)" fill="#31170C" d="M1.872,194.943c-1.025-0.002-1.859-0.836-1.859-1.862s0.835-1.861,1.862-1.861
		l33.908-0.097c8.687-0.036,17.401-0.956,25.903-2.736l1.14-0.239v-12.094l-1.211-0.191c-5.405-0.852-10.082-4.056-12.83-8.788
		c-3.41-5.731-3.495-12.888-0.228-18.685c1.387-2.478,2.895-5.006,4.482-7.521l0.986-1.562l-1.755-0.569
		c-13.628-4.425-27.805-6.668-42.135-6.668c-2.674,0-5.384,0.08-8.054,0.237c-0.097,0.008-0.152,0.011-0.207,0.011
		c-0.61,0-1.184-0.299-1.534-0.799c-0.384-0.547-0.447-1.263-0.165-1.867c0.282-0.606,0.87-1.018,1.535-1.077
		c2.847-0.179,5.772-0.272,8.66-0.272c15.259,0,30.31,2.521,44.735,7.492l1.033,0.356l0.618-0.901c1.1-1.604,2.078-3.005,2.908-4.16
		c1.124-1.569,2.944-2.504,4.871-2.504c1.928,0,3.749,0.935,4.871,2.503c2.328,3.231,5.821,8.301,9.25,14.115l0.592,1.003
		l1.104-0.373c5.987-2.028,11.833-4.597,17.373-7.638l2.665-1.463l-2.824-1.128c-4.868-1.943-9.643-4.243-14.192-6.837
		C47.117,108.047,17.437,105.81,6.36,105.81c-2.072,0-3.463,0.078-4.108,0.125c-0.046,0.004-0.092,0.005-0.137,0.005
		c-0.621,0-1.2-0.307-1.548-0.819c-0.374-0.552-0.426-1.267-0.136-1.866c0.29-0.6,0.883-1.002,1.547-1.052
		c1.504-0.067,3.068-0.103,4.612-0.103c4.956,0,9.955,0.364,14.857,1.081l1.642,0.24v-5.283l-0.919-0.353
		c-1.71-0.659-3.186-1.878-4.154-3.433c-1.853-3.023-2.029-6.738-0.463-9.932c1.344-2.695,2.855-5.357,4.486-7.901
		c0.64-0.927,1.739-1.504,2.913-1.504c1.174,0,2.273,0.577,2.939,1.544c1.605,2.506,3.115,5.169,4.463,7.876
		c1.561,3.184,1.386,6.898-0.473,9.928c-0.963,1.545-2.439,2.763-4.148,3.421l-0.92,0.353v5.856l1.176,0.217
		c7.732,1.418,15.429,3.405,22.878,5.909l1.892,0.636v-9.663l-1.03-0.303c-2.813-0.827-5.189-2.669-6.692-5.188
		c-2.626-4.283-2.873-9.516-0.666-14.012c1.998-4.022,4.236-7.983,6.653-11.768c0.769-1.27,2.136-2.041,3.585-2.041
		c1.451,0,2.818,0.771,3.568,2.011c2.444,3.818,4.691,7.78,6.698,11.805c2.207,4.487,1.966,9.72-0.648,13.991
		c-1.515,2.535-3.895,4.376-6.713,5.201l-1.032,0.302v10.998l0.927,0.351c7.745,2.929,15.371,6.395,22.663,10.301l1.277,0.684
		l0.671-1.283c4.154-7.938,12.298-13.046,21.252-13.332c0.267-0.009,0.532-0.014,0.798-0.014c8.631,0,16.778,4.584,21.262,11.961
		l0.675,1.112l1.172-0.563c4.479-2.151,9.077-4.133,13.669-5.888l0.923-0.354v-12.532l-1.128-0.247
		c-3.985-0.875-7.459-3.394-9.528-6.91c-2.933-4.914-3.097-11.103-0.432-16.158c2.637-4.915,5.586-9.744,8.764-14.343
		c0.945-1.414,2.506-2.247,4.186-2.247s3.24,0.833,4.175,2.23c3.188,4.616,6.139,9.445,8.78,14.369
		c2.66,5.046,2.496,11.234-0.433,16.142c-2.074,3.523-5.548,6.042-9.533,6.917l-1.126,0.247v11.169l1.89-0.634
		c19.536-6.554,34.472-7.532,41.636-7.532c2.532,0,3.974,0.126,4.13,0.14c0.497,0.045,0.946,0.28,1.265,0.662
		c0.318,0.383,0.469,0.865,0.424,1.36c-0.086,0.951-0.897,1.695-1.851,1.695c-0.057,0-0.114-0.002-0.171-0.008
		c-0.143-0.015-1.556-0.146-4.103-0.146c-11.8,0-43.385,2.705-81.723,27.75c-0.294,0.197-0.655,0.418-1.011,0.633l-0.343,0.212
		c-6.261,3.984-12.931,7.355-19.838,10.025l-3.179,1.229l3.101,1.415c10.485,4.782,21.545,8.277,32.872,10.387l0.525,0.098
		l0.461-0.271c13.568-7.94,28.369-12.858,43.992-14.617l1.274-0.144v-7.268l-0.988-0.323c-1.928-0.631-3.548-1.944-4.562-3.7
		c-1.428-2.469-1.401-5.523,0.066-7.968c1.367-2.275,2.883-4.497,4.504-6.604c0.71-0.835,1.742-1.313,2.838-1.313
		s2.129,0.479,2.839,1.313c1.622,2.107,3.137,4.331,4.503,6.609c1.468,2.444,1.494,5.496,0.067,7.966
		c-1.013,1.753-2.631,3.065-4.556,3.696l-0.988,0.324v6.848l1.571-0.15c4.493-0.43,9.06-0.647,13.572-0.647
		c3.177,0,6.394,0.108,9.563,0.321c0.468,0.041,0.92,0.278,1.241,0.662c0.321,0.386,0.475,0.872,0.43,1.371
		c-0.086,0.96-0.905,1.711-1.865,1.711c-0.057,0-0.113-0.004-0.172-0.008c-0.222-0.029-3.381-0.275-8.319-0.275
		c-14.645,0-42.444,2.077-64.094,15.992c-1.313,0.811-2.321,1.479-3.243,2.15c-6.833,4.852-14.042,9.348-21.412,13.354
		c-9.463,5.054-19.57,8.853-30.029,11.286l-0.184,0.043l-0.167,0.088c-0.206,0.11-0.433,0.179-0.664,0.202
		c-0.079-0.014-0.173-0.024-0.276-0.024h-0.159l-0.155,0.034c-9.315,2.087-18.88,3.163-28.43,3.2L1.872,194.943z M82.751,155.602
		c0.416,3.963-0.474,8.035-2.505,11.467c-2.691,4.627-7.248,7.807-12.508,8.732l-1.186,0.208v11.283l1.799-0.472
		c8.932-2.343,17.592-5.734,25.738-10.081c6.119-3.329,12.122-7.008,17.85-10.939l2.662-1.825l-3.139-0.753
		c-9.14-2.19-18.123-5.245-26.701-9.08l-2.272-1.016L82.751,155.602z M54.662,168.511c2.644,2.449,6.159,3.873,9.851,3.873
		c5.146,0,9.946-2.766,12.526-7.219c2.729-4.581,2.797-10.329,0.167-14.987c-3.279-5.814-6.928-11.506-10.844-16.917
		c-0.401-0.587-1.101-0.955-1.848-0.955s-1.446,0.368-1.87,0.984c-3.894,5.382-7.542,11.076-10.823,16.898
		c-2.63,4.657-2.563,10.405,0.176,15.001l2.667,4.478V168.511z M165.549,124.084c-1.084,1.503-2.108,3.061-2.963,4.504
		c-0.801,1.289-0.818,2.936-0.028,4.269l0.028,0.047l0.032,0.046c0.936,1.332,2.467,2.126,4.095,2.126
		c1.627,0,3.158-0.794,4.094-2.126l0.032-0.046l0.029-0.047c0.789-1.333,0.771-2.978-0.046-4.292
		c-0.827-1.401-1.823-2.918-2.944-4.479l-1.163-1.617L165.549,124.084z M104.072,112.524c-7.933,0.015-15.136,4.394-18.797,11.431
		l-0.641,1.23l1.209,0.682c5.718,3.223,11.762,5.945,17.965,8.094l0.664,0.23l0.59-0.385c5.281-3.443,10.755-6.657,16.271-9.55
		l1.39-0.73l-0.851-1.319c-3.916-6.063-10.563-9.683-17.779-9.683H104.072z M142.1,67.438c-2.104,3.257-5.282,8.181-8.122,13.544
		c-2.1,3.901-1.977,8.688,0.324,12.486c1.869,3.341,5.455,5.443,9.333,5.443c3.879,0,7.465-2.102,9.358-5.486
		c2.276-3.754,2.399-8.541,0.295-12.45c-2.573-4.795-5.446-9.5-8.538-13.982l-1.221-1.77L142.1,67.438z M48.142,93.567
		c1.277,2.403,3.756,3.895,6.481,3.895c2.725,0,5.204-1.491,6.48-3.895c1.91-3.157,2.076-7.014,0.444-10.326
		c-2.006-4.07-4.21-7.788-5.707-10.189l-1.218-1.955l-1.218,1.955c-1.496,2.402-3.701,6.12-5.707,10.189
		C46.066,86.553,46.232,90.41,48.142,93.567 M21.155,92.346c0.755,1.351,2.181,2.236,3.729,2.309l0.068,0.003l0.068-0.003
		c1.548-0.073,2.974-0.958,3.729-2.309c1.156-1.92,1.255-4.264,0.263-6.276c-0.823-1.667-1.773-3.409-2.826-5.179l-1.233-2.073
		l-1.233,2.073c-1.05,1.765-2.001,3.506-2.826,5.175C19.9,88.08,19.999,90.425,21.155,92.346"/>
	<path clip-path="url(#SVGID_2_)" fill="#31170C" d="M69.458,59.776c-4.968-0.014-9.248-3.737-9.951-8.659l-0.176-1.231h-9.654
		c-5.358,0-9.79-4.182-10.098-9.52c-0.31-5.343,3.613-10.009,8.931-10.622l1.041-0.12l0.203-1.028
		c1.284-6.53,6.811-11.486,13.442-12.053c0.427-0.036,0.86-0.055,1.287-0.055c6.174,0,11.803,3.878,14.007,9.649l0.475,1.244
		L80.241,27c1.32-0.395,2.689-0.604,4.07-0.619c7.122,0.014,13.325,5.107,14.73,12.11l0.205,1.023l1.038,0.119
		c5.313,0.613,9.236,5.276,8.93,10.617c-0.307,5.34-4.736,9.524-10.085,9.525H69.458z M69.458,43.292c-3.518,0-6.38,2.863-6.38,6.38
		s2.862,6.38,6.38,6.38h29.671c1.723,0,3.319-0.661,4.519-1.861c1.192-1.192,1.87-2.842,1.861-4.527c0-3.51-2.862-6.373-6.38-6.373
		H97.48c-1.026,0-1.861-0.835-1.861-1.862c0-6.245-5.081-11.325-11.325-11.325c-6.245,0-11.326,5.08-11.326,11.325
		c0,1.027-0.834,1.862-1.861,1.862H69.458z M49.652,33.401c-1.698,0-3.294,0.661-4.494,1.861c-1.19,1.19-1.869,2.84-1.86,4.526
		c0,3.51,2.862,6.372,6.38,6.372h10.309l0.384-0.836c1.444-3.144,4.479-5.324,7.921-5.689l1.048-0.111l0.207-1.033
		c0.691-3.442,2.578-6.552,5.312-8.756l0.759-0.611l-0.289-0.931c-1.479-4.766-5.823-7.967-10.808-7.967
		c-0.566,0-1.138,0.043-1.7,0.128c-5.575,0.841-9.625,5.545-9.633,11.184c0,1.028-0.835,1.863-1.862,1.863H49.652z"/>
	<path clip-path="url(#SVGID_2_)" fill="#31170C" d="M135.367,33.402c-5.344,0-9.773-4.18-10.085-9.514
		c-0.313-5.346,3.609-10.015,8.93-10.628l1.039-0.119l0.204-1.026C136.852,5.095,143.059,0,150.216,0
		c7.156,0,13.364,5.094,14.76,12.114l0.204,1.026l1.039,0.119c5.314,0.612,9.236,5.275,8.931,10.617
		c-0.306,5.34-4.736,9.524-10.086,9.525H135.367z M135.365,16.918c-1.697,0-3.292,0.66-4.492,1.861
		c-1.837,1.831-2.383,4.563-1.389,6.963c0.992,2.391,3.304,3.935,5.893,3.935h29.687c2.272,0,4.391-1.222,5.525-3.19
		c1.137-1.968,1.137-4.412,0-6.379c-1.136-1.968-3.253-3.19-5.525-3.19h-1.647c-1.027,0-1.862-0.835-1.862-1.862
		c0-6.245-5.08-11.326-11.325-11.326c-6.244,0-11.325,5.081-11.325,11.326c0,1.026-0.835,1.862-1.861,1.862H135.365z"/>
</g>
</svg>
