<?xml version="1.0" encoding="utf-8"?>
<!-- Generator: Adobe Illustrator 16.0.0, SVG Export Plug-In . SVG Version: 6.00 Build 0)  -->
<!DOCTYPE svg PUBLIC "-//W3C//DTD SVG 1.1//EN" "http://www.w3.org/Graphics/SVG/1.1/DTD/svg11.dtd">
<svg version="1.1" id="Layer_1" xmlns="http://www.w3.org/2000/svg" xmlns:xlink="http://www.w3.org/1999/xlink" x="0px" y="0px"
	 width="171.811px" height="256px" viewBox="0 0 171.811 256" enable-background="new 0 0 171.811 256" xml:space="preserve">
<g>
	<defs>
		<rect id="SVGID_1_" width="171.811" height="256"/>
	</defs>
	<clipPath id="SVGID_2_">
		<use xlink:href="#SVGID_1_"  overflow="visible"/>
	</clipPath>
	<path clip-path="url(#SVGID_2_)" fill="#7BC042" d="M110.895,197.1l32.955-44.949c14.736-20.09,27.961-40.275,27.961-66.246
		c0-47.25-38.35-85.715-85.555-85.904h-0.361C38.535,0,0,38.535,0,85.904c0,25.965,13.225,46.156,27.961,66.246L60.914,197.1H22.596
		L0.385,256h171.041l-22.211-58.9H110.895z M40.055,143.279C26.35,124.586,15,107.365,15,85.904C15,46.914,46.625,15.18,85.564,15
		h0.34c39.096,0,70.906,31.811,70.906,70.904c0,21.461-11.35,38.686-25.055,57.375c0,0-44,60.166-45.791,62.615L40.055,143.279z
		 M22.074,241l10.896-28.9H71.91l13.855,18.895c0,0,11.58-15.238,14.24-18.895h38.834l10.895,28.9H22.074z"/>
	<path clip-path="url(#SVGID_2_)" fill="#7BC042" d="M138.811,85.904C138.811,56.73,115.074,33,85.904,33S33,56.73,33,85.904
		c0,29.17,23.734,52.9,52.904,52.9S138.811,115.074,138.811,85.904 M85.904,123.805c-20.898,0-37.904-17-37.904-37.9
		C48,65.006,65.006,48,85.904,48c20.9,0,37.906,17.006,37.906,37.904C123.811,106.805,106.805,123.805,85.904,123.805"/>
</g>
</svg>
