<?xml version="1.0" encoding="utf-8"?>
<!-- Generator: Adobe Illustrator 16.0.0, SVG Export Plug-In . SVG Version: 6.00 Build 0)  -->
<!DOCTYPE svg PUBLIC "-//W3C//DTD SVG 1.1//EN" "http://www.w3.org/Graphics/SVG/1.1/DTD/svg11.dtd">
<svg version="1.1" id="Layer_1" xmlns="http://www.w3.org/2000/svg" xmlns:xlink="http://www.w3.org/1999/xlink" x="0px" y="0px"
	 width="176.22px" height="96.401px" viewBox="0 0 176.22 96.401" enable-background="new 0 0 176.22 96.401" xml:space="preserve">
<g>
	<path fill="#038266" d="M134.137,74.954c0.208,0.426,0.617,0.4,0.991,0.443c1.725,0.197,3.447,0.375,5.169,0.58
		c8.637,1.029,17.047,3.066,25.322,5.68c3.18,1.006,6.311,2.166,9.463,3.258c0.404,0.139,0.849,0.217,1.138,0.686
		c-0.426,0.182-0.829,0.371-1.243,0.529c-9.3,3.592-18.806,6.475-28.609,8.316c-6.896,1.295-13.854,2.004-20.878,1.926
		c-2.183-0.023-4.364-0.189-6.543-0.316c-0.729-0.043-0.86-0.268-0.636-1.006c0.879-2.885,1.769-5.768,2.656-8.65
		c0.473-1.531,0.938-3.068,1.434-4.594c0.174-0.533,0.22-1.152,0.797-1.477c0.112-0.141,0.225-0.279,0.338-0.42l-0.018,0.014
		c0.65,0.066,1.257-0.039,1.851-0.34c2.332-1.184,4.674-2.344,7.013-3.512c0.352-0.176,0.646-0.404,0.812-0.773
		C133.55,75.301,133.872,75.208,134.137,74.954z"/>
	<path fill="#37BDB2" d="M52.637,79.915c0.563,0.297,0.78,0.848,0.942,1.395c1.376,4.611,2.739,9.225,4.088,13.842
		c0.208,0.709,0.067,0.867-0.751,0.918c-1.857,0.115-3.717,0.227-5.576,0.299c-1.091,0.043-2.186,0.045-3.275,0.002
		c-5.518-0.213-11.006-0.703-16.455-1.648c-10.41-1.805-20.466-4.826-30.313-8.604C0.842,85.944,0.347,85.84,0,85.471
		c0.139-0.393,0.471-0.455,0.768-0.564c9.467-3.488,19.098-6.383,29.059-8.1c3.672-0.633,7.361-1.088,11.064-1.449
		c0.372-0.037,0.79,0.002,0.943-0.477c0.43-0.041,0.707,0.297,1.066,0.428c0.184,0.355,0.475,0.592,0.829,0.768
		c2.349,1.172,4.702,2.338,7.044,3.529C51.375,79.913,51.99,79.975,52.637,79.915z"/>
	<path fill="#FAB041" d="M72.614,62.432c-2.313,0.545-4.627,1.092-6.941,1.637c-0.263-0.541-0.728-0.854-1.227-1.154
		c-3.324-1.994-6.832-3.629-10.303-5.342c-0.647-0.318-1.303-0.486-2.022-0.367l0.043,0.016c-0.12-0.139-0.24-0.277-0.36-0.416
		c-0.168-0.134-0.335-0.266-0.504-0.4c0.011-0.221-0.109-0.337-0.312-0.388l0.019,0.05c-0.001-0.415-0.267-0.717-0.475-1.032
		c-5.446-8.229-9.691-17.065-13.24-26.249c-1.387-3.59-2.703-7.208-3.804-10.899c-0.091-0.304-0.255-0.593-0.058-1.023
		c0.615,0.07,1.106,0.477,1.621,0.786c5.064,3.044,9.993,6.294,14.723,9.839c6.227,4.666,12.137,9.695,17.4,15.447
		c0.127,0.139,0.299,0.239,0.449,0.357c0.126,0.251,0.252,0.502,0.378,0.754c0.019,0.508-0.034,1.032,0.069,1.522
		c0.413,1.983,0.868,3.957,1.318,5.931c0.635,2.786,1.476,5.511,2.445,8.198C72.155,60.586,72.61,61.45,72.614,62.432z"/>
	<path fill="#7CC044" d="M109.946,63.797c-0.373-0.033-0.758-0.023-1.121-0.105c-1.786-0.404-3.566-0.834-5.348-1.256
		c0.364-1.021,0.74-2.039,1.09-3.066c1.254-3.7,2.18-7.491,3.066-11.292c0.203-0.868,0.316-1.759,0.438-2.645
		c0.054-0.378,0.055-0.778-0.357-1.009c0.263-0.366,0.525-0.731,0.789-1.097c0.334-0.296,0.691-0.568,0.997-0.892
		c7.912-8.356,16.933-15.348,26.59-21.549c1.893-1.214,3.825-2.363,5.74-3.54c0.269-0.167,0.521-0.384,0.883-0.351
		c0.309,0.436,0.034,0.846-0.099,1.258c-1.662,5.202-3.513,10.336-5.642,15.365c-3.188,7.528-6.901,14.78-11.427,21.6
		c-0.246,0.37-0.563,0.715-0.527,1.21c-0.246,0.146-0.491,0.293-0.737,0.439c-0.188,0.029-0.391,0.02-0.558,0.093
		c-4.144,1.787-8.226,3.693-12.066,6.08C111.128,63.372,110.63,63.805,109.946,63.797z"/>
	<path fill="#FFE703" d="M68.003,44.048c-0.126-0.251-0.253-0.502-0.379-0.754c0.07-1.808-0.423-3.562-0.521-5.356
		c-0.148-2.69-0.467-5.373-0.561-8.063c-0.272-7.774,0.08-15.527,1.015-23.25c0.238-1.974,0.497-3.945,0.753-5.917
		C68.343,0.468,68.417,0.233,68.468,0c0.439,0.033,0.566,0.35,0.739,0.61c6.489,9.749,12.115,19.954,16.316,30.911
		c0.16,0.418,0.324,0.837,0.47,1.262c0.116,0.339,0.05,0.625-0.298,0.8c-0.345,0.172-0.701,0.325-1.025,0.529
		c-3.467,2.171-4.269,6.737-1.604,9.846c0.796,0.929,1.006,1.741,0.873,2.919c-0.396,3.505-0.634,7.029-0.942,10.544
		c-0.096,1.088-0.219,2.17-0.332,3.256c-0.047,0.459-0.325,0.678-0.766,0.688c-0.514,0.008-1.024-0.006-1.537-0.008
		c-0.029-0.125-0.03-0.266-0.091-0.369c-1.422-2.488-2.828-4.985-4.456-7.345c-2.098-3.041-4.473-5.867-6.805-8.725
		C68.733,44.579,68.34,44.335,68.003,44.048z"/>
	<path fill="#C0D731" d="M108.503,43.328c-0.264,0.366-0.526,0.732-0.789,1.097c-1.819,2.049-3.587,4.139-5.229,6.333
		c-2.521,3.37-4.841,6.868-6.759,10.622c-0.322,0.008-0.642,0.037-0.963,0.02c-1.208-0.068-1.227-0.072-1.345-1.346
		c-0.439-4.729-0.848-9.463-1.318-14.189c-0.07-0.691,0.225-1.082,0.644-1.498c1.089-1.082,1.742-2.398,1.85-3.923
		c0.195-2.816-0.903-4.995-3.358-6.445c-0.276-0.164-0.579-0.281-0.854-0.444c-0.245-0.145-0.336-0.385-0.24-0.656
		c0.236-0.666,0.479-1.329,0.735-1.986c4.187-10.694,9.724-20.67,16.081-30.209c0.172-0.258,0.306-0.57,0.655-0.669
		c0.326,0.354,0.368,0.806,0.42,1.246c0.497,4.271,0.988,8.54,1.309,12.833c0.418,5.586,0.383,11.169,0.253,16.754
		c-0.087,3.659-0.474,7.3-0.984,10.927C108.538,42.3,108.537,42.816,108.503,43.328z"/>
	<path fill="#02A161" d="M124.282,56.869c0.246-0.147,0.491-0.294,0.737-0.439c5.043-1.896,10.154-3.579,15.391-4.86
		c5.86-1.435,11.777-2.562,17.767-3.296c2.991-0.368,5.985-0.696,8.942-1.037c0.279,0.438,0.008,0.653-0.199,0.871
		c-9.144,9.705-19.051,18.504-30.433,25.545c-0.76,0.469-1.562,0.869-2.349,1.301c-0.266,0.252-0.588,0.348-0.946,0.346
		c-1.15,0.1-2.221-0.439-3.385-0.377c-1.58,0.086-3.167,0.027-4.753,0.031c-0.888-3.227-3.115-5.334-5.858-7.01
		c-0.758-0.465-1.517-0.93-2.274-1.395c1.434-1.775,2.875-3.541,4.293-5.328C122.32,59.831,123.471,58.469,124.282,56.869z"/>
	<path fill="#02B085" d="M51.3,56.405c0.169,0.135,0.335,0.268,0.503,0.4c0.025,0.22,0.129,0.375,0.361,0.416l-0.043-0.016
		c0.086,0.537,0.475,0.898,0.768,1.313c1.968,2.773,4.115,5.404,6.379,7.941c-0.293,0.463-0.823,0.58-1.248,0.855
		c-0.965,0.625-1.955,1.219-2.885,1.896c-1.974,1.438-3.352,3.314-4,5.693c-2.684,0.063-5.383-0.18-8.042,0.4
		c-0.062,0.014-0.128,0.004-0.192,0.006c-0.359-0.131-0.637-0.469-1.066-0.426c-4.93-2.791-9.531-6.063-13.968-9.57
		c-6.514-5.146-12.546-10.816-18.219-16.874c-0.29-0.308-0.753-0.526-0.724-1.047c0.115-0.233,0.313-0.194,0.488-0.177
		c9.729,0.911,19.36,2.387,28.807,4.946c3.842,1.04,7.627,2.259,11.354,3.658c0.452,0.17,0.897,0.52,1.436,0.245l-0.02-0.049
		C50.823,56.364,51.112,56.346,51.3,56.405z"/>
	<path fill="#F17D23" d="M81.149,76.452c-0.008,1.795-0.021,3.588-0.485,5.34c-2.616-1.252-5.431-2.041-7.989-3.43
		c-0.078-0.098-0.139-0.223-0.237-0.293c-3.634-2.504-6.978-5.359-10.146-8.422c0.354-0.264,0.679-0.586,1.067-0.783
		c2.094-1.059,4.196-2.107,6.553-2.479c0.127,0.137,0.236,0.297,0.385,0.408c2.166,1.635,4.344,3.258,6.227,5.232
		c0.208,0.219,0.516,0.342,0.776,0.51c0.938,0.945,1.89,1.875,2.807,2.84C80.45,75.739,80.635,76.252,81.149,76.452z"/>
	<path fill="#05A094" d="M72.675,78.362c2.558,1.389,5.372,2.178,7.989,3.43c0.146,1.539-0.057,3.045-0.359,4.504
		c-0.483,0.273-0.939,0.18-1.375,0.127c-4.646-0.582-9.201-1.533-13.522-3.404c-1.827-0.793-3.555-1.752-5.051-3.088
		c-1.07-0.957-1.901-2.072-2.246-3.494c-0.058-0.238-0.019-0.502-0.024-0.754c1.678-0.191,3.309,0.27,4.928,0.518
		c1.932,0.299,3.867,0.711,5.76,1.311C70.028,77.907,71.317,78.346,72.675,78.362z"/>
	<path fill="#026529" d="M118.048,75.682c0.068,1.387-0.649,2.441-1.493,3.422c-0.976,1.131-2.184,1.977-3.471,2.707
		c-2.356,1.34-4.885,2.246-7.481,2.969c-2.722,0.756-5.497,1.24-8.295,1.611c-0.317,0.041-0.639,0.055-0.959,0.064
		c-0.381,0.012-0.596-0.191-0.622-0.563c-0.099-1.469-0.466-2.918-0.302-4.402c0.519,0.018,0.972-0.188,1.447-0.367
		c1.88-0.701,3.66-1.666,5.644-2.104c0.344-0.074,0.641-0.371,0.961-0.564c3.23-0.682,6.375-1.746,9.657-2.201
		C114.768,76.026,116.374,75.569,118.048,75.682z"/>
	<path fill="#038540" d="M103.477,78.456c-0.32,0.193-0.617,0.488-0.961,0.564c-1.983,0.436-3.764,1.402-5.644,2.104
		c-0.476,0.178-0.929,0.385-1.447,0.367c-0.363-1.656-0.495-3.336-0.442-5.027c0.339-0.279,0.709-0.525,1.013-0.838
		c0.831-0.854,1.636-1.734,2.451-2.605c0.245-0.199,0.506-0.381,0.732-0.598c2.296-2.184,4.771-4.141,7.356-5.967
		c2.491,0.676,4.92,1.504,7.035,3.047c-0.154,0.203-0.291,0.422-0.463,0.605c-2.237,2.377-4.755,4.422-7.348,6.389
		C104.965,77.1,103.973,77.499,103.477,78.456z"/>
	<path fill="#02A161" d="M95.726,61.377c1.918-3.752,4.238-7.25,6.761-10.621c1.641-2.193,3.409-4.284,5.228-6.333
		c0.414,0.231,0.411,0.63,0.358,1.009c-0.123,0.885-0.236,1.776-0.438,2.645c-0.887,3.8-1.812,7.592-3.066,11.293
		c-0.35,1.025-0.727,2.045-1.09,3.066C100.893,62.084,98.309,61.731,95.726,61.377z"/>
	<path fill="#FFE04F" d="M68.003,44.048c0.337,0.287,0.729,0.531,1.005,0.869c2.333,2.857,4.708,5.683,6.805,8.725
		c1.629,2.36,3.035,4.857,4.457,7.345c0.061,0.105,0.061,0.246,0.09,0.369c-1.889,0.266-3.78,0.533-5.672,0.797
		c-0.691,0.098-1.383,0.188-2.075,0.279c-0.003-0.982-0.459-1.846-0.778-2.732c-0.969-2.689-1.811-5.414-2.444-8.2
		c-0.45-1.975-0.905-3.947-1.319-5.93C67.969,45.079,68.022,44.556,68.003,44.048z"/>
	<path fill="#02A161" d="M98.447,73.02c-0.815,0.871-1.62,1.752-2.451,2.605c-0.304,0.313-0.674,0.561-1.013,0.838
		c-0.093-0.436-0.229-0.865-0.271-1.303c-0.278-2.99-0.539-5.98-0.802-8.971c-0.028-0.318-0.052-0.639-0.048-0.957
		c0.014-0.822,0.252-1.084,1.022-0.988c2.342,0.291,4.709,0.43,7,1.063c0.08,0.457-0.042,0.871-0.256,1.275
		c-0.705,1.342-1.4,2.691-2.099,4.037C99.125,71.399,98.561,72.11,98.447,73.02z"/>
	<path fill="#FFE04F" d="M81.149,76.452c-0.514-0.201-0.699-0.713-1.044-1.076c-0.917-0.963-1.869-1.895-2.807-2.84
		c0.013-0.727-0.376-1.313-0.664-1.939c-0.813-1.766-1.896-3.404-2.487-5.273c0.92-0.531,1.982-0.445,2.974-0.627
		c1.495-0.277,3.026-0.377,4.545-0.531c0.359-0.037,0.603,0.154,0.613,0.545c0.008,0.254,0.001,0.51-0.022,0.764
		c-0.211,2.406-0.432,4.814-0.643,7.225c-0.066,0.76-0.108,1.523-0.168,2.285C81.405,75.485,81.492,76.012,81.149,76.452z"/>
	<path fill="#02A161" d="M103.477,78.456c0.496-0.957,1.489-1.355,2.283-1.959c2.593-1.967,5.11-4.012,7.348-6.389
		c0.172-0.184,0.309-0.402,0.463-0.605c1.468,0.668,2.623,1.719,3.541,3.016c0.66,0.936,1.172,1.949,0.936,3.164
		c-1.674-0.113-3.279,0.344-4.913,0.57C109.851,76.709,106.708,77.774,103.477,78.456z"/>
	<path fill="#02B085" d="M72.675,78.362c-1.358-0.016-2.647-0.455-3.902-0.854c-1.892-0.598-3.827-1.01-5.76-1.309
		c-1.62-0.25-3.251-0.709-4.928-0.518c-0.208-1.365,0.397-2.475,1.181-3.49c0.819-1.059,1.816-1.936,3.026-2.545
		c3.168,3.063,6.511,5.918,10.146,8.424C72.537,78.139,72.597,78.264,72.675,78.362z"/>
	<path fill="#038540" d="M124.282,56.869c-0.811,1.6-1.963,2.961-3.067,4.352c-1.418,1.785-2.86,3.553-4.293,5.328
		c-2.173-0.813-4.348-1.621-6.518-2.441c-0.167-0.063-0.306-0.205-0.458-0.313c0.685,0.008,1.183-0.426,1.714-0.756
		c3.839-2.387,7.922-4.293,12.065-6.079C123.891,56.889,124.096,56.898,124.282,56.869z"/>
	<path fill="#F17D23" d="M59.268,66.458c-2.266-2.535-4.411-5.168-6.379-7.941c-0.294-0.412-0.682-0.773-0.768-1.311
		c0.719-0.119,1.375,0.049,2.021,0.367c3.471,1.713,6.979,3.348,10.303,5.342c0.5,0.301,0.965,0.613,1.227,1.154
		C63.538,64.866,61.403,65.661,59.268,66.458z"/>
	<path fill="#05A094" d="M42.901,75.311c0.066-0.004,0.131,0.006,0.193-0.008c2.659-0.578,5.357-0.336,8.042-0.398
		c-0.003,1.82,0.478,3.498,1.501,5.01c-0.647,0.061-1.263-0.002-1.863-0.309c-2.341-1.188-4.693-2.355-7.043-3.527
		C43.376,75.903,43.084,75.667,42.901,75.311z"/>
	<path fill="#026529" d="M125.054,74.954c1.584-0.004,3.172,0.055,4.753-0.031c1.164-0.063,2.234,0.477,3.385,0.377
		c-0.164,0.367-0.46,0.598-0.811,0.773c-2.339,1.166-4.681,2.326-7.013,3.51c-0.594,0.301-1.201,0.406-1.851,0.34
		C124.458,78.397,125.04,76.762,125.054,74.954z"/>
	<path fill="#7CC044" d="M98.447,73.02c0.114-0.91,0.679-1.621,1.084-2.4c0.698-1.346,1.394-2.693,2.099-4.037
		c0.211-0.404,0.336-0.818,0.256-1.275c1.605,0.156,3.15,0.555,4.65,1.148c-2.585,1.826-5.062,3.783-7.356,5.967
		C98.953,72.639,98.692,72.821,98.447,73.02z"/>
	<path fill="#FAB041" d="M74.147,65.325c0.592,1.869,1.674,3.506,2.487,5.273c0.289,0.625,0.677,1.213,0.664,1.938
		c-0.261-0.166-0.569-0.291-0.776-0.508c-1.883-1.977-4.061-3.596-6.227-5.234c-0.148-0.111-0.258-0.27-0.385-0.408
		C71.249,65.737,72.674,65.432,74.147,65.325z"/>
	<path fill="#026529" d="M123.536,79.909c-0.113,0.141-0.226,0.281-0.338,0.422C123.212,80.112,123.333,79.979,123.536,79.909z"/>
	<path fill="#FFFFFF" d="M51.3,56.405c-0.188-0.06-0.478-0.041-0.312-0.387C51.19,56.069,51.311,56.186,51.3,56.405z"/>
	<path fill="#F17D23" d="M52.165,57.221c-0.232-0.041-0.336-0.195-0.361-0.416C51.924,56.944,52.043,57.083,52.165,57.221z"/>
</g>
</svg>
