<?xml version="1.0" encoding="utf-8"?>
<!-- Generator: Adobe Illustrator 16.0.0, SVG Export Plug-In . SVG Version: 6.00 Build 0)  -->
<!DOCTYPE svg PUBLIC "-//W3C//DTD SVG 1.1//EN" "http://www.w3.org/Graphics/SVG/1.1/DTD/svg11.dtd">
<svg version="1.1" id="Layer_1" xmlns="http://www.w3.org/2000/svg" xmlns:xlink="http://www.w3.org/1999/xlink" x="0px" y="0px"
	 width="348.036px" height="270.978px" viewBox="0 0 348.036 270.978" enable-background="new 0 0 348.036 270.978"
	 xml:space="preserve">
<g>
	<path fill-rule="evenodd" clip-rule="evenodd" fill="#038266" d="M245.546,111.935c0.309,0.634,0.922,0.599,1.48,0.662
		c2.573,0.292,5.148,0.559,7.719,0.866c12.895,1.537,25.456,4.578,37.815,8.483c4.748,1.5,9.423,3.233,14.131,4.862
		c0.605,0.209,1.268,0.325,1.701,1.026c-0.637,0.272-1.24,0.553-1.859,0.792c-13.886,5.361-28.084,9.667-42.725,12.417
		c-10.297,1.935-20.689,2.993-31.177,2.877c-3.259-0.036-6.517-0.283-9.772-0.473c-1.088-0.063-1.284-0.399-0.948-1.503
		c1.312-4.309,2.641-8.612,3.967-12.917c0.706-2.289,1.401-4.582,2.14-6.86c0.259-0.797,0.328-1.723,1.189-2.205
		c0.169-0.209,0.337-0.418,0.506-0.628l-0.025,0.02c0.97,0.099,1.875-0.057,2.762-0.507c3.481-1.768,6.979-3.501,10.473-5.244
		c0.524-0.262,0.966-0.604,1.212-1.155C244.668,112.453,245.149,112.312,245.546,111.935z"/>
	<path fill-rule="evenodd" clip-rule="evenodd" fill="#37BDB2" d="M123.835,119.343c0.839,0.443,1.164,1.267,1.407,2.083
		c2.055,6.884,4.089,13.775,6.104,20.67c0.31,1.06,0.101,1.296-1.122,1.371c-2.773,0.172-5.549,0.338-8.327,0.447
		c-1.628,0.063-3.262,0.066-4.89,0.003c-8.241-0.318-16.436-1.049-24.575-2.461c-15.546-2.697-30.563-7.208-45.267-12.848
		c-0.68-0.261-1.42-0.416-1.938-0.967c0.208-0.587,0.703-0.681,1.146-0.844c14.138-5.207,28.52-9.531,43.397-12.094
		c5.482-0.944,10.992-1.624,16.523-2.166c0.555-0.055,1.18,0.004,1.409-0.709c0.642-0.063,1.055,0.441,1.592,0.637
		c0.274,0.532,0.71,0.883,1.238,1.146c3.509,1.75,7.022,3.493,10.519,5.27C121.948,119.339,122.867,119.433,123.835,119.343z"/>
	<path fill-rule="evenodd" clip-rule="evenodd" fill="#FAB041" d="M153.667,93.235c-3.455,0.815-6.91,1.629-10.367,2.444
		c-0.392-0.808-1.086-1.274-1.832-1.722c-4.963-2.98-10.203-5.421-15.385-7.978c-0.967-0.478-1.946-0.729-3.02-0.55l0.064,0.025
		c-0.18-0.207-0.359-0.414-0.539-0.622c-0.25-0.199-0.5-0.397-0.751-0.597c0.015-0.33-0.164-0.504-0.466-0.579l0.029,0.073
		c-0.003-0.62-0.4-1.07-0.711-1.54c-8.133-12.289-14.471-25.485-19.771-39.2c-2.072-5.361-4.037-10.764-5.681-16.277
		c-0.136-0.453-0.38-0.885-0.086-1.528c0.92,0.105,1.652,0.711,2.421,1.173c7.563,4.546,14.923,9.401,21.986,14.694
		c9.299,6.968,18.124,14.478,25.986,23.068c0.19,0.208,0.445,0.357,0.67,0.533c0.188,0.375,0.377,0.75,0.565,1.126
		c0.028,0.759-0.051,1.541,0.103,2.274c0.617,2.96,1.297,5.908,1.969,8.857c0.947,4.161,2.204,8.228,3.651,12.242
		C152.981,90.478,153.661,91.767,153.667,93.235z"/>
	<path fill-rule="evenodd" clip-rule="evenodd" fill="#7CC044" d="M209.419,95.273c-0.56-0.049-1.134-0.034-1.677-0.157
		c-2.666-0.604-5.324-1.246-7.985-1.874c0.544-1.526,1.107-3.046,1.628-4.58c1.874-5.526,3.254-11.188,4.579-16.863
		c0.303-1.297,0.471-2.628,0.656-3.951c0.079-0.565,0.082-1.162-0.536-1.506c0.394-0.546,0.786-1.092,1.18-1.639
		c0.498-0.442,1.033-0.849,1.489-1.331c11.816-12.48,25.287-22.92,39.71-32.181c2.824-1.813,5.712-3.529,8.571-5.287
		c0.402-0.248,0.776-0.572,1.317-0.524c0.462,0.651,0.052,1.263-0.146,1.879c-2.482,7.768-5.246,15.435-8.426,22.945
		c-4.761,11.242-10.306,22.072-17.064,32.258c-0.367,0.553-0.839,1.068-0.788,1.806c-0.366,0.219-0.733,0.438-1.101,0.657
		c-0.278,0.043-0.582,0.029-0.832,0.138c-6.188,2.667-12.283,5.514-18.02,9.079C211.183,94.637,210.441,95.284,209.419,95.273z"/>
	<path fill-rule="evenodd" clip-rule="evenodd" fill="#FFE703" d="M146.781,65.78c-0.188-0.375-0.378-0.75-0.565-1.126
		c0.105-2.701-0.632-5.319-0.778-8c-0.22-4.017-0.696-8.022-0.837-12.04c-0.406-11.609,0.119-23.187,1.516-34.721
		c0.355-2.947,0.742-5.891,1.125-8.835c0.047-0.359,0.156-0.711,0.234-1.058c0.656,0.05,0.846,0.522,1.104,0.911
		c9.691,14.559,18.092,29.8,24.367,46.162c0.24,0.625,0.484,1.25,0.701,1.884c0.174,0.506,0.074,0.933-0.446,1.195
		c-0.513,0.258-1.046,0.486-1.53,0.79c-5.178,3.243-6.375,10.061-2.396,14.703c1.189,1.388,1.502,2.6,1.303,4.36
		c-0.59,5.235-0.945,10.496-1.406,15.746c-0.143,1.623-0.328,3.241-0.496,4.862c-0.07,0.686-0.486,1.012-1.145,1.024
		c-0.766,0.016-1.529-0.005-2.295-0.009c-0.043-0.186-0.044-0.395-0.135-0.552c-2.123-3.714-4.224-7.442-6.655-10.969
		c-3.132-4.542-6.679-8.762-10.162-13.029C147.871,66.573,147.286,66.209,146.781,65.78z"/>
	<path fill-rule="evenodd" clip-rule="evenodd" fill="#C0D731" d="M207.264,64.705c-0.394,0.546-0.786,1.093-1.18,1.639
		c-2.716,3.059-5.355,6.18-7.808,9.457c-3.765,5.033-7.229,10.256-10.095,15.862c-0.479,0.011-0.959,0.054-1.436,0.027
		c-1.806-0.1-1.832-0.106-2.009-2.008c-0.656-7.063-1.266-14.131-1.969-21.19c-0.104-1.032,0.336-1.615,0.962-2.237
		c1.627-1.617,2.602-3.581,2.761-5.859c0.294-4.205-1.348-7.458-5.016-9.625c-0.411-0.244-0.862-0.42-1.274-0.664
		c-0.367-0.216-0.503-0.574-0.359-0.978c0.352-0.994,0.713-1.985,1.098-2.967c6.251-15.971,14.521-30.868,24.015-45.113
		c0.258-0.386,0.456-0.852,0.977-1c0.488,0.528,0.551,1.204,0.628,1.861c0.744,6.378,1.476,12.754,1.954,19.165
		c0.623,8.342,0.572,16.68,0.377,25.021c-0.128,5.464-0.706,10.902-1.468,16.318C207.315,63.17,207.313,63.941,207.264,64.705z"/>
	<path fill-rule="evenodd" clip-rule="evenodd" fill="#02A161" d="M230.827,84.927c0.367-0.219,0.734-0.438,1.101-0.657
		c7.532-2.831,15.164-5.344,22.985-7.258c8.751-2.142,17.588-3.824,26.532-4.922c4.466-0.549,8.938-1.038,13.354-1.547
		c0.418,0.654,0.011,0.975-0.296,1.301c-13.658,14.492-28.452,27.633-45.448,38.147c-1.135,0.702-2.335,1.297-3.507,1.943
		c-0.398,0.377-0.88,0.519-1.415,0.515c-1.718,0.149-3.316-0.654-5.055-0.56c-2.359,0.128-4.731,0.04-7.098,0.044
		c-1.326-4.818-4.651-7.964-8.747-10.468c-1.133-0.693-2.266-1.388-3.396-2.081c2.139-2.65,4.291-5.289,6.409-7.957
		C227.896,89.35,229.617,87.317,230.827,84.927z"/>
	<path fill-rule="evenodd" clip-rule="evenodd" fill="#02B085" d="M121.838,84.236c0.251,0.199,0.501,0.398,0.751,0.597
		c0.038,0.329,0.193,0.558,0.539,0.622c0,0-0.064-0.025-0.064-0.025c0.129,0.801,0.709,1.342,1.146,1.959
		c2.939,4.142,6.145,8.072,9.526,11.859c-0.438,0.693-1.229,0.869-1.862,1.278c-1.443,0.934-2.922,1.821-4.31,2.832
		c-2.947,2.147-5.004,4.951-5.972,8.504c-4.009,0.093-8.039-0.268-12.011,0.596c-0.092,0.02-0.19,0.007-0.287,0.01
		c-0.537-0.196-0.95-0.701-1.592-0.637c-7.362-4.166-14.233-9.053-20.859-14.29c-9.728-7.687-18.737-16.154-27.208-25.199
		c-0.433-0.461-1.125-0.787-1.081-1.564c0.171-0.348,0.466-0.29,0.729-0.265c14.529,1.362,28.913,3.565,43.02,7.387
		c5.738,1.554,11.39,3.373,16.955,5.464c0.675,0.253,1.34,0.776,2.143,0.366l-0.029-0.073
		C121.124,84.175,121.557,84.145,121.838,84.236z"/>
	<path fill-rule="evenodd" clip-rule="evenodd" fill="#3C2521" d="M214.741,201.961c0.03,2.146,1.073,3.828,2.428,5.344
		c1.72,1.926,3.937,3.059,6.417,3.605c5.912,1.307,11.418,0.342,16.426-3.148c0.154-0.107,0.328-0.186,0.505-0.285
		c0.687-0.088,0.987,0.488,1.38,0.869c1.857,1.805,3.7,3.627,5.536,5.453c0.409,0.406,0.366,0.834-0.051,1.24
		c-1.386,1.35-2.949,2.467-4.666,3.332c-8.208,4.129-16.727,4.779-25.373,1.727c-6.972-2.461-11.496-7.453-13.561-14.568
		c-1.502-5.176-1.629-10.408-0.157-15.617c2.538-8.986,8.57-14.3,17.565-16.297c4.756-1.057,9.54-0.859,14.243,0.456
		c6.984,1.952,11.687,6.345,13.958,13.263c1.397,4.252,1.77,8.625,1.38,13.068c-0.097,1.092-0.326,1.277-1.466,1.287
		c-2.878,0.02-5.757,0.008-8.636,0.008c-7.676,0-15.352-0.008-23.028,0.01C216.711,201.709,215.75,201.514,214.741,201.961z
		 M214.863,191.969c0.668,0.078,1.132,0.176,1.597,0.178c2.88,0.014,5.76,0.008,8.639,0.008c4.32,0,8.64,0.01,12.959-0.01
		c1.433-0.008,1.634-0.354,1.196-1.771c-0.98-3.176-3.113-5.268-6.203-6.314c-3.062-1.037-6.205-1.096-9.365-0.367
		c-1.612,0.373-3.104,1.004-4.442,1.963C217.076,187.206,215.606,189.239,214.863,191.969z"/>
	<path fill-rule="evenodd" clip-rule="evenodd" fill="#3C2521" d="M121.683,201.698c-4.991,0-9.982-0.004-14.973,0.002
		c-0.766,0-1.533,0.01-2.297,0.064c-0.463,0.033-0.634,0.385-0.55,0.805c0.601,3.01,2.354,5.186,4.925,6.766
		c2.092,1.287,4.418,1.896,6.82,2.064c4.718,0.326,9.148-0.648,13.122-3.336c1.169-0.789,1.19-0.803,2.132,0.111
		c1.859,1.807,3.703,3.625,5.536,5.457c0.679,0.68,0.646,0.932-0.118,1.631c-2.298,2.104-4.965,3.611-7.873,4.658
		c-6.498,2.338-13.12,2.738-19.792,0.869c-9.489-2.656-14.876-9.061-16.474-18.662c-0.65-3.9-0.582-7.852,0.455-11.715
		c2.514-9.363,8.662-14.889,18.056-16.859c4.379-0.918,8.772-0.754,13.126,0.322c7.994,1.977,13.007,6.98,15.182,14.893
		c1.084,3.945,1.119,7.961,0.885,11.998c-0.031,0.549-0.311,0.885-0.889,0.898c-0.767,0.018-1.534,0.031-2.302,0.031
		C131.663,201.698,126.673,201.698,121.683,201.698z M116.245,192.151c0,0.002,0,0.002,0,0.004c1.914,0,3.828,0.002,5.743,0
		c1.818-0.002,3.638,0.012,5.456-0.02c0.945-0.016,1.201-0.355,1.004-1.244c-0.691-3.137-2.57-5.314-5.518-6.496
		c-4.292-1.723-8.615-1.639-12.826,0.246c-2.73,1.221-4.621,3.35-5.766,6.121c-0.418,1.014-0.183,1.375,0.992,1.381
		C108.97,192.163,112.606,192.151,116.245,192.151z"/>
	<path fill-rule="evenodd" clip-rule="evenodd" fill="#3C2521" d="M64.972,201.698c-4.89,0-9.779,0-14.669,0
		c-0.671,0-1.343-0.014-2.013,0.008c-1.086,0.035-1.266,0.328-0.924,1.457c0.945,3.119,2.928,5.33,5.859,6.713
		c3.219,1.516,6.613,1.926,10.099,1.418c3.344-0.486,6.557-1.389,9.259-3.582c0.414-0.338,0.854-0.34,1.27,0.072
		c2.045,2.02,4.105,4.027,6.148,6.051c0.425,0.422,0.311,0.836-0.102,1.227c-2.405,2.283-5.242,3.873-8.34,4.957
		c-6.506,2.281-13.143,2.646-19.781,0.711c-9.307-2.713-14.602-9.043-16.217-18.541c-0.686-4.027-0.564-8.021,0.508-11.969
		c2.476-9.119,8.5-14.534,17.6-16.598c4.261-0.967,8.578-0.866,12.847,0.06c8.823,1.914,14.647,8.003,16.294,16.899
		c0.579,3.133,0.692,6.283,0.532,9.451c-0.079,1.551-0.167,1.65-1.688,1.656c-4.698,0.021-9.396,0.008-14.094,0.01
		C66.697,201.698,65.835,201.698,64.972,201.698z M59.796,192.143c0,0.004,0,0.006,0,0.01c3.541,0,7.081-0.008,10.622,0.004
		c1.48,0.004,1.85-0.24,1.308-1.939c-0.933-2.918-2.867-4.945-5.746-5.986c-4.027-1.455-8.07-1.424-12.037,0.221
		c-2.971,1.23-5.032,3.412-6.218,6.404c-0.337,0.85-0.065,1.273,0.874,1.279C52.331,192.155,56.063,192.143,59.796,192.143z"/>
	<path fill-rule="evenodd" clip-rule="evenodd" fill="#3C2521" d="M306.86,213.87c1.786-2.578,3.577-5.166,5.313-7.674
		c0.824,0.1,1.161,0.611,1.611,0.945c4.193,3.111,8.907,4.797,14.107,5.117c2.145,0.133,4.213-0.188,6.082-1.334
		c1.083-0.664,1.969-1.502,2.395-2.76c0.649-1.922,0.048-3.684-1.72-4.672c-1.356-0.76-2.856-1.063-4.397-1.225
		c-2.858-0.299-5.735-0.447-8.552-1.094c-2.347-0.537-4.591-1.326-6.721-2.457c-8.912-4.738-8.515-17.148-0.83-21.957
		c2.395-1.498,4.953-2.534,7.685-3.095c4.959-1.019,9.915-0.868,14.819,0.413c3.474,0.907,6.178,2.445,8.906,4.979
		c-0.925,1.74-4.145,5.639-6.113,7.412c-1.302-0.816-2.526-1.775-3.899-2.412c-3.7-1.713-7.607-1.754-11.547-1.053
		c-0.649,0.115-1.284,0.391-1.884,0.678c-1.495,0.717-2.448,1.869-2.437,3.586c0.011,1.57,0.827,2.723,2.175,3.48
		c1.18,0.666,2.454,1.074,3.806,1.219c1.716,0.184,3.432,0.367,5.149,0.527c2.777,0.256,5.499,0.756,8.133,1.703
		c1.361,0.49,2.651,1.115,3.834,1.941c1.762,1.232,3.161,2.785,4.023,4.777c2.134,4.93,2.026,12.746-4.554,17.502
		c-2.292,1.656-4.858,2.727-7.605,3.254c-5.835,1.119-11.633,0.924-17.338-0.852c-3.834-1.195-7.09-3.33-9.921-6.145
		C307.19,214.487,307.079,214.215,306.86,213.87z"/>
	<path fill-rule="evenodd" clip-rule="evenodd" fill="#3C2521" d="M297.899,179.225c-2.048,2.424-3.902,4.617-5.756,6.811
		c-0.366,0.434-0.765,0.471-1.238,0.15c-1.03-0.697-2.012-1.506-3.123-2.037c-3.786-1.807-7.781-1.871-11.819-1.115
		c-0.738,0.139-1.477,0.455-2.128,0.836c-2.805,1.641-2.843,5.045-0.084,6.787c1.148,0.725,2.438,1.129,3.784,1.287
		c1.811,0.215,3.626,0.387,5.441,0.559c2.683,0.254,5.31,0.758,7.86,1.643c1.461,0.508,2.835,1.178,4.092,2.072
		c2.267,1.613,3.835,3.736,4.551,6.447c1.86,7.033-0.687,13.279-6.756,16.77c-3.058,1.76-6.419,2.516-9.887,2.791
		c-4.632,0.367-9.207,0-13.647-1.453c-3.995-1.309-7.4-3.533-10.362-6.777c1.834-2.65,3.62-5.234,5.32-7.693
		c0.909-0.119,1.207,0.465,1.635,0.789c4.263,3.215,9.079,4.898,14.388,5.176c2.25,0.117,4.4-0.295,6.288-1.629
		c1.324-0.938,2.167-2.145,2.17-3.842c0.002-1.48-0.605-2.592-1.911-3.295c-1.372-0.74-2.858-1.066-4.4-1.23
		c-2.86-0.305-5.74-0.445-8.56-1.092c-2.35-0.539-4.606-1.311-6.729-2.461c-9.011-4.881-8.498-17.102-0.822-21.959
		c2.391-1.512,4.958-2.537,7.691-3.098c4.964-1.017,9.929-0.873,14.832,0.427C292.114,174.985,295.11,176.622,297.899,179.225z"/>
	<path fill-rule="evenodd" clip-rule="evenodd" fill="#3C2521" d="M171.226,208.467c0.941-1.232,1.151-2.279,1.5-3.248
		c3.404-9.461,6.894-18.889,10.879-28.125c0.228-0.527,0.439-1.062,0.646-1.598c0.304-0.788,0.791-1.218,1.716-1.208
		c3.356,0.038,6.712,0.006,10.068,0.021c0.816,0.004,1.074,0.361,0.818,1.063c-0.196,0.539-0.43,1.065-0.654,1.595
		c-5.874,13.836-11.75,27.674-17.626,41.512c-0.188,0.439-0.425,0.867-0.551,1.324c-0.219,0.795-0.749,1.018-1.502,1.016
		c-3.355-0.012-6.712-0.033-10.067,0.014c-1.025,0.016-1.528-0.395-1.913-1.322c-1.906-4.6-3.875-9.174-5.826-13.754
		c-4.054-9.514-8.111-19.025-12.167-28.539c-0.263-0.617-0.548-1.225-0.79-1.85c-0.223-0.574,0.005-1.026,0.546-1.029
		c3.548-0.023,7.095-0.026,10.642-0.029c0.645-0.001,1.063,0.334,1.307,0.923c0.365,0.886,0.74,1.767,1.121,2.646
		c3.846,8.879,7.232,17.934,10.479,27.045C170.235,205.999,170.677,207.055,171.226,208.467z"/>
	<path fill-rule="evenodd" clip-rule="evenodd" fill="#3C2521" d="M0,246.293c1.393-3.016,2.706-5.859,3.925-8.498
		c0.676-0.307,0.996-0.053,1.351,0.07c0.634,0.217,1.266,0.482,1.921,0.588c3.865,0.625,6.195,0.002,6.879-4.666
		c0.193-1.32,0.173-2.678,0.174-4.018c0.01-17.354,0-34.707,0.012-52.061c0.003-3.77-0.454-3.392,3.338-3.407
		c2.301-0.01,4.603-0.016,6.903,0.02c0.888,0.013,1.124,0.312,1.164,1.262c0.024,0.574,0.011,1.149,0.011,1.726
		c0,17.641-0.001,35.283,0.002,52.924c0,2.695-0.273,5.355-0.957,7.967c-0.121,0.463-0.254,0.922-0.407,1.375
		c-1.839,5.457-5.713,9.42-13.083,9.844C7.304,249.645,3.656,248.639,0,246.293z"/>
	<path fill-rule="evenodd" clip-rule="evenodd" fill="#F17D23" d="M166.412,114.172c-0.011,2.679-0.029,5.357-0.724,7.974
		c-3.907-1.869-8.111-3.048-11.93-5.123c-0.117-0.146-0.207-0.333-0.355-0.435c-5.428-3.741-10.419-8.004-15.153-12.579
		c0.528-0.395,1.013-0.875,1.593-1.168c3.128-1.582,6.268-3.148,9.787-3.703c0.189,0.205,0.354,0.443,0.574,0.609
		c3.234,2.444,6.487,4.865,9.299,7.815c0.311,0.326,0.77,0.51,1.16,0.76c1.4,1.411,2.821,2.802,4.191,4.243
		C165.368,113.106,165.646,113.873,166.412,114.172z"/>
	<path fill-rule="evenodd" clip-rule="evenodd" fill="#05A094" d="M153.759,117.023c3.818,2.075,8.022,3.254,11.93,5.123
		c0.219,2.298-0.085,4.547-0.537,6.726c-0.721,0.408-1.402,0.269-2.052,0.188c-6.938-0.867-13.741-2.288-20.194-5.084
		c-2.729-1.183-5.309-2.616-7.543-4.611c-1.599-1.428-2.84-3.095-3.355-5.215c-0.086-0.357-0.027-0.75-0.037-1.126
		c2.506-0.288,4.941,0.4,7.359,0.772c2.886,0.444,5.775,1.06,8.602,1.955C149.804,116.344,151.73,117,153.759,117.023z"/>
	<path fill-rule="evenodd" clip-rule="evenodd" fill="#026529" d="M221.517,113.022c0.103,2.072-0.968,3.646-2.23,5.11
		c-1.455,1.688-3.259,2.951-5.184,4.045c-3.516,1.999-7.292,3.351-11.172,4.43c-4.063,1.13-8.209,1.854-12.386,2.406
		c-0.474,0.063-0.953,0.082-1.432,0.098c-0.567,0.018-0.891-0.285-0.929-0.841c-0.146-2.191-0.696-4.355-0.451-6.573
		c0.775,0.026,1.45-0.282,2.162-0.548c2.807-1.048,5.466-2.49,8.427-3.141c0.515-0.113,0.958-0.555,1.434-0.844
		c4.826-1.018,9.521-2.609,14.424-3.289C216.619,113.536,219.018,112.852,221.517,113.022z"/>
	<path fill-rule="evenodd" clip-rule="evenodd" fill="#038540" d="M199.756,117.163c-0.476,0.29-0.919,0.731-1.434,0.844
		c-2.961,0.651-5.62,2.092-8.427,3.141c-0.712,0.266-1.387,0.575-2.162,0.548c-0.543-2.475-0.739-4.98-0.661-7.509
		c0.507-0.415,1.059-0.785,1.513-1.25c1.242-1.275,2.443-2.59,3.66-3.889c0.366-0.297,0.755-0.571,1.095-0.895
		c3.427-3.26,7.126-6.183,10.984-8.91c3.722,1.011,7.348,2.244,10.508,4.55c-0.231,0.303-0.436,0.631-0.694,0.906
		c-3.338,3.547-7.098,6.602-10.97,9.54C201.981,115.139,200.499,115.733,199.756,117.163z"/>
	<path fill-rule="evenodd" clip-rule="evenodd" fill="#422C28" d="M237.177,245.137c0-3.055,0-6.102,0-9.082
		c0.227-0.1,0.312-0.166,0.399-0.172c4.832-0.25,4.079-0.576,4.104,3.635c0.04,6.891,0.013,13.781,0.008,20.672
		c0,0.766-0.001,1.533-0.077,2.291c-0.023,0.229-0.267,0.568-0.472,0.623c-0.931,0.248-1.887,0.238-2.824,0
		c-0.154-0.039-0.283-0.225-0.396-0.365c-0.89-1.109-0.914-1.15-1.884-0.506c-1.482,0.984-3.08,1.535-4.863,1.428
		c-3.515-0.213-6.15-2.445-7.099-6.086c-0.611-2.348-0.695-4.738-0.073-7.104c0.523-1.986,1.506-3.73,3.144-5.021
		c2.475-1.953,5.183-2.281,8.076-1.035c0.518,0.225,1.019,0.486,1.532,0.719C236.83,245.168,236.94,245.137,237.177,245.137z
		 M237.131,253.426c-0.003,0-0.006,0-0.009,0c0-1.148-0.022-2.295,0.009-3.441c0.019-0.656-0.315-1.086-0.785-1.434
		c-2.865-2.123-6.57-0.998-7.655,2.367c-0.632,1.963-0.569,3.986,0.055,5.936c0.775,2.424,3.141,3.631,5.468,2.83
		c0.705-0.244,1.352-0.701,1.97-1.141c0.651-0.463,0.997-1.109,0.959-1.963C237.095,255.53,237.131,254.477,237.131,253.426z"/>
	<path fill-rule="evenodd" clip-rule="evenodd" fill="#422C28" d="M247.575,246.346c3.178-1.975,6.43-2.891,9.996-2.588
		c3.729,0.318,6.233,2.689,6.712,6.344c0.196,1.49,0.083,11.248-0.149,12.906c-0.619,0.373-1.312,0.164-1.965,0.252
		c-1.096,0.15-1.582-0.408-1.786-1.387c-0.037-0.178-0.178-0.334-0.281-0.52c-0.994,0.092-1.688,0.828-2.543,1.217
		c-1.687,0.768-3.42,1.256-5.29,1.053c-3.047-0.334-5.071-2.08-5.432-4.664c-0.398-2.867,0.74-4.775,3.668-6.111
		c2.031-0.926,4.203-1.297,6.396-1.57c0.666-0.082,1.34-0.102,2.006-0.189c0.625-0.082,0.902-0.652,0.672-1.271
		c-0.353-0.947-0.97-1.629-1.912-2.021c-1.191-0.494-2.421-0.633-3.663-0.309c-1.016,0.266-2.05,0.541-2.994,0.986
		c-2.142,1.01-1.937,0.76-2.979-1.105C247.893,247.122,247.798,246.85,247.575,246.346z M258.377,254.026
		c-0.935,0.107-1.701,0.158-2.453,0.291c-0.657,0.117-1.326,0.256-1.938,0.512c-0.697,0.289-1.406,0.633-1.984,1.105
		c-0.695,0.568-1.05,1.391-0.771,2.313c0.267,0.887,0.894,1.455,1.817,1.639c1.242,0.246,2.478,0.209,3.68-0.215
		c2.739-0.965,3.382-2.016,3.046-4.934c-0.049-0.422-0.236-0.709-0.709-0.711C258.777,254.026,258.49,254.026,258.377,254.026z"/>
	<path fill-rule="evenodd" clip-rule="evenodd" fill="#422C28" d="M90.543,246.311c3.049-1.904,6.2-2.809,9.667-2.572
		c4.029,0.273,6.685,2.635,6.932,6.672c0.24,3.916,0.102,7.855,0.117,11.785c0.002,0.678-0.346,1.061-1.059,1.049
		c-0.287-0.004-0.577-0.016-0.862,0.012c-1.073,0.104-1.858-0.16-2.041-1.395c-0.063-0.43-0.42-0.609-0.847-0.389
		c-0.766,0.396-1.496,0.863-2.281,1.213c-1.684,0.752-3.43,1.18-5.305,0.895c-2.863-0.436-4.828-2.178-5.156-4.621
		c-0.383-2.848,0.777-4.773,3.683-6.104c2.028-0.93,4.197-1.301,6.387-1.576c0.665-0.084,1.339-0.105,2.002-0.201
		c0.638-0.092,0.877-0.635,0.661-1.289c-0.322-0.979-0.98-1.609-1.912-2.004c-1.093-0.465-2.234-0.611-3.379-0.352
		c-1.021,0.23-2.044,0.529-3.006,0.941c-2.325,0.996-2.014,1.242-3.354-1.283C90.701,246.926,90.673,246.729,90.543,246.311z
		 M102.797,256.139c0-0.412,0.004-0.604-0.001-0.793c-0.029-1.188-0.199-1.377-1.271-1.32c-1.52,0.078-3.037,0.23-4.475,0.754
		c-0.702,0.256-1.405,0.59-2.006,1.029c-0.826,0.605-1.146,1.484-0.86,2.516c0.257,0.932,0.926,1.404,1.829,1.576
		c1.748,0.33,3.378,0.025,4.937-0.848C102.2,258.35,103.183,257.553,102.797,256.139z"/>
	<path fill-rule="evenodd" clip-rule="evenodd" fill="#422C28" d="M219.301,261.399c-3.534,2.316-7.149,2.805-10.911,1.807
		c-4.843-1.283-7.567-5.85-6.85-11.148c0.637-4.689,4.437-8.146,9.176-8.326c0.668-0.025,1.344-0.02,2.008,0.045
		c3.752,0.371,6.567,2.998,7.202,6.713c0.097,0.564,0.153,1.143,0.157,1.713c0.026,3.262-0.061,2.83-2.781,2.85
		c-2.871,0.018-5.742,0.002-8.613,0.006c-0.574,0-1.149-0.004-1.722,0.035c-0.688,0.047-0.938,0.521-0.675,1.209
		c0.787,2.045,2.246,3.281,4.416,3.643c2.032,0.338,3.988,0.098,5.893-0.727c1.244-0.539,1.272-0.494,1.957,0.701
		C218.794,260.331,218.986,260.768,219.301,261.399z M206.204,251.795c3.069,0,5.931,0.01,8.792-0.006
		c0.734-0.004,1.026-0.398,0.867-1.07c-0.498-2.1-1.92-3.334-3.988-3.484c-1.281-0.094-2.481,0.137-3.529,0.9
		C207.234,248.946,206.471,249.997,206.204,251.795z"/>
	<path fill-rule="evenodd" clip-rule="evenodd" fill="#422C28" d="M147.295,244.413c0.4-0.105,0.492-0.148,0.585-0.15
		c4.881-0.109,3.941-0.594,4.003,3.775c0.06,4.221,0.015,8.443,0.011,12.666c-0.001,0.574-0.016,1.15-0.052,1.723
		c-0.026,0.432-0.284,0.697-0.708,0.764c-0.282,0.045-0.571,0.055-0.857,0.061c-1.873,0.043-1.879,0.043-2.403-1.879
		c-0.126-0.463-0.399-0.652-0.796-0.393c-0.558,0.367-1.047,0.836-1.592,1.225c-0.947,0.676-1.982,1.123-3.148,1.324
		c-4.429,0.766-7.445-1.395-7.68-5.885c-0.221-4.211-0.079-8.439-0.094-12.66c-0.001-0.449,0.252-0.729,0.687-0.744
		c0.958-0.035,1.917-0.049,2.876-0.025c0.712,0.018,0.959,0.465,0.957,1.143c-0.011,2.877-0.011,5.756,0.008,8.635
		c0.006,0.957,0.008,1.924,0.137,2.871c0.283,2.08,1.783,3.193,3.854,2.893c1.601-0.234,2.827-1.109,3.818-2.355
		c0.461-0.58,0.392-1.26,0.393-1.926c0.004-2.879,0.002-5.758,0.003-8.635C147.295,246.081,147.295,245.325,147.295,244.413z"/>
	<path fill-rule="evenodd" clip-rule="evenodd" fill="#422C28" d="M111.034,244.45c4.326-0.531,4.336-0.535,5.769,2.934
		c1.316,3.188,2.6,6.389,3.917,9.576c0.162,0.395,0.137,1.057,0.803,0.977c0.586-0.07,0.553-0.699,0.701-1.102
		c1.262-3.414,2.488-6.84,3.727-10.264c0.164-0.449,0.387-0.885,0.492-1.348c0.187-0.824,0.729-1.07,1.48-1.023
		c0.939,0.057,1.904-0.191,2.803,0.186c0.333,0.643-0.08,1.137-0.277,1.631c-2.37,5.965-4.775,11.914-7.148,17.879
		c-0.498,1.25-1.025,2.48-1.79,3.592c-2.182,3.168-5.074,3.896-8.846,3.301c-0.503-0.08-0.544-0.514-0.505-0.887
		c0.088-0.861,0.283-1.701,0.78-2.561c0.611,0,1.274,0.053,1.928-0.01c1.521-0.146,2.728-0.857,3.548-2.162
		c0.751-1.193,1.004-2.316,0.316-3.76c-2.311-4.84-4.454-9.76-6.661-14.65C111.757,246.065,111.446,245.37,111.034,244.45z"/>
	<path fill-rule="evenodd" clip-rule="evenodd" fill="#02A161" d="M188.182,91.662c2.866-5.605,6.33-10.829,10.095-15.862
		c2.452-3.277,5.092-6.398,7.808-9.457c0.618,0.344,0.615,0.94,0.536,1.506c-0.186,1.322-0.354,2.653-0.656,3.951
		c-1.325,5.675-2.705,11.337-4.579,16.863c-0.521,1.534-1.084,3.054-1.628,4.58C195.899,92.716,192.04,92.188,188.182,91.662z"/>
	<path fill-rule="evenodd" clip-rule="evenodd" fill="#FFE04F" d="M146.781,65.78c0.505,0.429,1.09,0.793,1.502,1.298
		c3.483,4.267,7.03,8.486,10.162,13.029c2.432,3.527,4.532,7.255,6.655,10.969c0.091,0.158,0.092,0.367,0.135,0.552
		c-2.822,0.397-5.646,0.797-8.47,1.191c-1.032,0.145-2.065,0.278-3.099,0.416c-0.006-1.468-0.686-2.758-1.163-4.083
		c-1.447-4.014-2.704-8.081-3.651-12.242c-0.672-2.949-1.352-5.896-1.969-8.857C146.73,67.32,146.81,66.539,146.781,65.78z"/>
	<path fill-rule="evenodd" clip-rule="evenodd" fill="#422C28" d="M188.532,258.78c0.606-0.469,0.668-1.162,0.894-1.787
		c1.396-3.873,2.819-7.738,4.21-11.613c0.296-0.822,0.751-1.293,1.686-1.191c0.922,0.102,1.888-0.195,2.854,0.254
		c-0.048,0.332-0.036,0.619-0.132,0.865c-2.111,5.445-4.251,10.881-6.342,16.334c-0.423,1.104-0.957,1.869-2.282,1.615
		c-0.093-0.018-0.191,0-0.287-0.002c-3.708-0.063-2.998,0.496-4.337-2.811c-2.119-5.232-4.184-10.488-6.346-15.92
		c1.431-0.563,2.834-0.342,4.205-0.191c0.246,0.027,0.509,0.537,0.641,0.873c0.633,1.604,1.239,3.217,1.826,4.838
		c0.88,2.43,1.739,4.869,2.597,7.307C187.904,257.881,188.033,258.434,188.532,258.78z"/>
	<path fill-rule="evenodd" clip-rule="evenodd" fill="#3C2521" d="M19.792,168.116c-3.917-0.132-6.669-2.98-6.58-6.858
		c0.1-4.391,3.403-6.719,7.124-6.593c3.893,0.132,6.659,3.167,6.44,6.993C26.521,166.151,23.362,168.051,19.792,168.116z"/>
	<path fill-rule="evenodd" clip-rule="evenodd" fill="#422C28" d="M159.571,244.417c0.707-0.396,1.484-0.207,2.23-0.209
		c1.176-0.004,1.207,0.053,1.419,1.32c0.063,0.377,0.083,0.762,0.136,1.141c0.039,0.283,0.099,0.563,0.152,0.859
		c0.894,0.229,1.082-0.602,1.49-1.012c2.261-2.273,4.982-3.123,8.121-2.73c0.469,0.057,0.932,0.201,1.381,0.354
		c0.511,0.174,0.756,0.537,0.643,1.102c-0.188,0.938-0.31,1.893-0.845,2.764c-1.313-0.072-2.64-0.275-3.947-0.193
		c-2.979,0.184-4.861,2.039-6.185,4.514c-0.291,0.543-0.221,1.307-0.228,1.969c-0.025,2.586,0.003,5.174-0.028,7.76
		c-0.01,0.922-0.277,1.182-1.232,1.178c-1.037-0.002-2.098,0.209-3.104-0.184C159.255,260.682,159.254,246.883,159.571,244.417z"/>
	<path fill-rule="evenodd" clip-rule="evenodd" fill="#02A161" d="M192.245,109.048c-1.217,1.299-2.418,2.614-3.66,3.889
		c-0.454,0.465-1.006,0.836-1.513,1.25c-0.138-0.648-0.342-1.29-0.403-1.945c-0.417-4.463-0.806-8.929-1.199-13.395
		c-0.042-0.475-0.077-0.953-0.07-1.428c0.02-1.231,0.376-1.62,1.527-1.477c3.498,0.435,7.033,0.64,10.454,1.585
		c0.12,0.685-0.065,1.301-0.382,1.905c-1.053,2.005-2.09,4.019-3.135,6.03C193.259,106.627,192.416,107.686,192.245,109.048z"/>
	<path fill-rule="evenodd" clip-rule="evenodd" fill="#FFE04F" d="M166.412,114.172c-0.766-0.3-1.044-1.066-1.558-1.607
		c-1.37-1.44-2.791-2.832-4.191-4.242c0.019-1.085-0.561-1.96-0.992-2.896c-1.215-2.636-2.83-5.083-3.714-7.875
		c1.374-0.794,2.959-0.666,4.44-0.938c2.234-0.412,4.52-0.562,6.787-0.793c0.537-0.055,0.9,0.232,0.916,0.814
		c0.012,0.379,0.001,0.762-0.033,1.139c-0.316,3.597-0.645,7.192-0.959,10.79c-0.1,1.137-0.162,2.276-0.252,3.414
		C166.796,112.726,166.925,113.515,166.412,114.172z"/>
	<path fill-rule="evenodd" clip-rule="evenodd" fill="#02A161" d="M199.756,117.163c0.743-1.43,2.226-2.024,3.412-2.924
		c3.872-2.938,7.632-5.993,10.97-9.54c0.259-0.275,0.463-0.603,0.694-0.906c2.191,0.999,3.916,2.566,5.288,4.505
		c0.986,1.395,1.749,2.909,1.396,4.725c-2.499-0.171-4.897,0.513-7.337,0.851C209.276,114.554,204.582,116.146,199.756,117.163z"/>
	<path fill-rule="evenodd" clip-rule="evenodd" fill="#02B085" d="M153.759,117.023c-2.028-0.023-3.955-0.68-5.828-1.273
		c-2.826-0.895-5.716-1.51-8.602-1.955c-2.418-0.372-4.854-1.06-7.359-0.772c-0.311-2.041,0.594-3.696,1.764-5.212
		c1.223-1.583,2.713-2.893,4.519-3.802c4.732,4.575,9.724,8.839,15.151,12.58C153.552,116.691,153.642,116.877,153.759,117.023z"/>
	<path fill-rule="evenodd" clip-rule="evenodd" fill="#038540" d="M230.827,84.927c-1.21,2.39-2.932,4.422-4.581,6.5
		c-2.118,2.667-4.271,5.306-6.409,7.957c-3.247-1.213-6.495-2.421-9.736-3.646c-0.25-0.095-0.456-0.309-0.683-0.466
		c1.023,0.011,1.765-0.636,2.558-1.129c5.736-3.565,11.832-6.412,18.02-9.079C230.245,84.957,230.549,84.97,230.827,84.927z"/>
	<path fill-rule="evenodd" clip-rule="evenodd" fill="#F17D23" d="M133.736,99.247c-3.382-3.787-6.587-7.717-9.526-11.859
		c-0.438-0.617-1.018-1.158-1.146-1.959c1.073-0.179,2.053,0.073,3.02,0.55c5.182,2.557,10.422,4.998,15.385,7.978
		c0.746,0.448,1.44,0.914,1.832,1.722C140.112,96.868,136.925,98.058,133.736,99.247z"/>
	<path fill-rule="evenodd" clip-rule="evenodd" fill="#05A094" d="M109.295,112.467c0.097-0.003,0.195,0.01,0.287-0.01
		c3.972-0.864,8.002-0.503,12.011-0.596c-0.004,2.719,0.713,5.223,2.242,7.482c-0.968,0.089-1.887-0.004-2.783-0.46
		c-3.496-1.777-7.01-3.52-10.519-5.27C110.005,113.351,109.569,113,109.295,112.467z"/>
	<path fill-rule="evenodd" clip-rule="evenodd" fill="#026529" d="M231.98,111.933c2.366-0.004,4.738,0.084,7.098-0.044
		c1.738-0.095,3.337,0.709,5.055,0.56c-0.245,0.551-0.687,0.894-1.211,1.155c-3.493,1.743-6.991,3.476-10.473,5.244
		c-0.887,0.45-1.792,0.605-2.762,0.507C231.091,117.078,231.958,114.636,231.98,111.933z"/>
	<path fill-rule="evenodd" clip-rule="evenodd" fill="#7CC044" d="M192.245,109.048c0.171-1.362,1.014-2.421,1.619-3.586
		c1.045-2.011,2.082-4.024,3.135-6.03c0.316-0.604,0.502-1.22,0.382-1.905c2.397,0.235,4.706,0.829,6.943,1.716
		c-3.858,2.727-7.558,5.65-10.984,8.91C193,108.477,192.611,108.75,192.245,109.048z"/>
	<path fill-rule="evenodd" clip-rule="evenodd" fill="#FAB041" d="M155.957,97.553c0.884,2.792,2.499,5.239,3.714,7.875
		c0.432,0.935,1.011,1.811,0.992,2.896c-0.391-0.25-0.85-0.435-1.16-0.76c-2.812-2.95-6.064-5.371-9.299-7.815
		c-0.22-0.166-0.385-0.404-0.574-0.609C151.628,98.17,153.757,97.716,155.957,97.553z"/>
	<path fill-rule="evenodd" clip-rule="evenodd" fill="#026529" d="M229.713,119.335c-0.169,0.209-0.337,0.419-0.506,0.628
		C229.23,119.637,229.411,119.438,229.713,119.335z"/>
	<path fill-rule="evenodd" clip-rule="evenodd" fill="#FFFFFF" d="M121.838,84.236c-0.281-0.091-0.714-0.061-0.466-0.579
		C121.674,83.732,121.853,83.906,121.838,84.236z"/>
	<path fill-rule="evenodd" clip-rule="evenodd" fill="#F17D23" d="M123.128,85.454c-0.346-0.064-0.501-0.292-0.539-0.622
		C122.769,85.04,122.948,85.247,123.128,85.454z"/>
</g>
</svg>
