<?xml version="1.0" encoding="utf-8"?>
<!-- Generator: Adobe Illustrator 16.0.0, SVG Export Plug-In . SVG Version: 6.00 Build 0)  -->
<!DOCTYPE svg PUBLIC "-//W3C//DTD SVG 1.1//EN" "http://www.w3.org/Graphics/SVG/1.1/DTD/svg11.dtd">
<svg version="1.1" id="Layer_1" xmlns="http://www.w3.org/2000/svg" xmlns:xlink="http://www.w3.org/1999/xlink" x="0px" y="0px"
	 width="205.238px" height="205.226px" viewBox="0 0 205.238 205.226" enable-background="new 0 0 205.238 205.226"
	 xml:space="preserve">
<g>
	<defs>
		<rect id="SVGID_1_" width="205.238" height="205.226"/>
	</defs>
	<clipPath id="SVGID_2_">
		<use xlink:href="#SVGID_1_"  overflow="visible"/>
	</clipPath>
	<path clip-path="url(#SVGID_2_)" fill="#331200" d="M80.045,205.226c-7.569,0-13.727-6.157-13.727-13.727v-3.808l-1.177-0.278
		c-15.658-3.702-29.869-12.705-40.012-25.351c-10.297-12.839-15.969-28.969-15.969-45.417v-8.317l-1.126-0.307
		c-4.726-1.286-8.026-5.603-8.026-10.496c0-6,4.88-10.879,10.879-10.879h3.399l-2.159-2.523C1.172,71.325-2.665,53.992,1.865,37.758
		c0.515-1.843,1.982-3.309,3.829-3.825c4.405-1.229,8.959-1.852,13.535-1.852c13.301,0,26.309,5.376,35.689,14.752
		c9.431,9.436,14.671,21.947,14.757,35.23l0.022,3.499l26.38-24.737c0.283-0.265,0.652-0.412,1.039-0.412
		c0.426,0,0.821,0.171,1.111,0.481c0.279,0.297,0.425,0.686,0.413,1.091c-0.013,0.406-0.184,0.783-0.479,1.061L72.992,86.646h32.77
		l0.438-0.403c13.224-12.123,18.436-30.388,13.604-47.668c-0.227-0.821-0.884-1.478-1.714-1.709
		c-4.132-1.154-8.407-1.738-12.706-1.738c-12.363,0-24.485,4.946-33.256,13.571c-0.287,0.282-0.665,0.437-1.066,0.437
		c-0.412,0-0.798-0.162-1.086-0.455c-0.589-0.599-0.581-1.565,0.018-2.155c9.335-9.177,22.236-14.441,35.395-14.441
		c4.575,0,9.125,0.623,13.522,1.851c1.845,0.515,3.312,1.979,3.827,3.822c0.562,2.016,1.004,4.109,1.313,6.22l0.42,2.859
		l2.128-1.956c2.442-2.247,4.674-4.476,6.82-6.814c6.309-6.881,12.527-14.049,18.486-21.303l0.836-1.019l-0.884-0.977
		c-3.162-3.496-3.026-8.846,0.31-12.182C153.835,0.919,156.057,0,158.422,0c2.366,0,4.587,0.918,6.255,2.586l37.971,37.971
		c1.634,1.619,2.534,3.826,2.541,6.22c0.005,2.411-0.897,4.645-2.541,6.289c-1.62,1.619-3.909,2.547-6.283,2.547
		c-2.22,0-4.31-0.789-5.884-2.222l-0.983-0.895l-1.023,0.851c-7.05,5.868-14.055,12.001-20.819,18.229
		c-3.845,3.54-7.729,7.646-11.878,12.554l-2.127,2.516h40.709c5.999,0,10.88,4.88,10.88,10.879c0,4.893-3.301,9.209-8.026,10.496
		l-1.127,0.307v8.317c0,11.619-2.658,22.722-7.901,32.998c-0.261,0.511-0.782,0.829-1.361,0.829
		c-0.241-0.001-0.472-0.056-0.686-0.165c-0.364-0.185-0.633-0.499-0.758-0.887c-0.126-0.386-0.094-0.799,0.091-1.161
		c5.023-9.844,7.57-20.48,7.57-31.614v-8.241H12.206v8.241c0,38.416,31.254,69.669,69.67,69.669h41.495
		c4.556,0,9.13-0.445,13.596-1.322l0.082-0.02c0.045-0.011,0.091-0.021,0.137-0.027l0.07-0.013
		c16.021-3.225,30.484-12.111,40.726-25.022c0.29-0.366,0.726-0.577,1.193-0.577c0.241,0,0.601,0.058,0.943,0.33
		c0.321,0.254,0.522,0.616,0.568,1.02c0.048,0.403-0.067,0.801-0.319,1.119c-10.32,13.008-24.241,21.869-40.26,25.625l-1.179,0.277
		v3.795c0,7.569-6.158,13.727-13.728,13.727H80.045z M69.364,191.499c0,5.89,4.792,10.681,10.682,10.681h45.156
		c5.891,0,10.682-4.791,10.682-10.681v-3.19l-1.752,0.259c-3.566,0.525-7.188,0.793-10.76,0.793H81.876
		c-3.587,0-7.207-0.269-10.759-0.798l-1.753-0.261V191.499z M10.888,89.691c-4.32,0-7.835,3.515-7.835,7.835
		c0,4.319,3.515,7.833,7.835,7.833h183.471c4.32,0,7.835-3.514,7.835-7.833c0-4.32-3.515-7.835-7.835-7.835H10.888z M153.873,19.168
		C148,26.3,141.874,33.351,135.664,40.123c-3.18,3.47-6.63,6.783-10.545,10.131l-0.533,0.456l-0.002,0.702
		c-0.027,12.001-4.326,23.619-12.106,32.711l-2.158,2.523h39.445l0.459-0.57c5.446-6.758,10.474-12.233,15.368-16.74
		c6.678-6.149,13.573-12.192,20.496-17.965l1.284-1.071l-32.429-32.431L153.873,19.168z M27.487,60.414
		c0.388,0,0.757,0.147,1.041,0.412l27.536,25.82h10.402l0.085-1.439c0.789-13.465-4.235-26.667-13.786-36.22
		c-8.812-8.81-21.035-13.863-33.532-13.863c-4.3,0-8.581,0.586-12.723,1.742c-0.83,0.234-1.485,0.89-1.714,1.713
		c-4.76,17.02,0.58,35.73,13.604,47.665l0.438,0.402h32.772L26.445,63.047c-0.298-0.279-0.469-0.655-0.482-1.061
		c-0.013-0.406,0.133-0.793,0.412-1.09C26.665,60.586,27.061,60.414,27.487,60.414 M158.422,3.041c-1.55,0-3.007,0.603-4.102,1.696
		c-2.262,2.264-2.26,5.944,0.002,8.205l37.972,37.971c1.069,1.082,2.524,1.681,4.092,1.681c1.563,0,3.022-0.597,4.106-1.68
		c1.088-1.088,1.686-2.551,1.683-4.122c-0.004-1.562-0.603-3.013-1.685-4.086L162.523,4.738
		C161.43,3.644,159.974,3.041,158.422,3.041 M81.876,173.087c-28.591,0-52.686-21.389-56.048-49.752
		c-0.099-0.834,0.499-1.593,1.334-1.693c0.062-0.007,0.123-0.011,0.184-0.011c0.767,0,1.415,0.578,1.505,1.344
		c3.183,26.833,25.979,47.068,53.025,47.068c0.839,0,1.522,0.683,1.522,1.522C83.398,172.404,82.715,173.087,81.876,173.087"/>
</g>
</svg>
