<?xml version="1.0" encoding="utf-8"?>
<!-- Generator: Adobe Illustrator 16.0.0, SVG Export Plug-In . SVG Version: 6.00 Build 0)  -->
<!DOCTYPE svg PUBLIC "-//W3C//DTD SVG 1.1//EN" "http://www.w3.org/Graphics/SVG/1.1/DTD/svg11.dtd">
<svg version="1.1" id="Layer_1" xmlns="http://www.w3.org/2000/svg" xmlns:xlink="http://www.w3.org/1999/xlink" x="0px" y="0px"
	 width="383.999px" height="383.992px" viewBox="0 0 383.999 383.992" enable-background="new 0 0 383.999 383.992"
	 xml:space="preserve">
<g>
	<defs>
		<rect id="SVGID_1_" width="383.999" height="383.992"/>
	</defs>
	<clipPath id="SVGID_2_">
		<use xlink:href="#SVGID_1_"  overflow="visible"/>
	</clipPath>
	<path clip-path="url(#SVGID_2_)" fill="#7BC142" d="M244.987,383.992c-0.949,0-1.902-0.004-2.863-0.012
		c-29.594-0.262-59.945-9.074-90.215-26.191c-23.765-13.44-47.656-32.094-71.004-55.445C27.698,249.142,0.483,195.152,0.015,141.879
		c-0.301-33.766,3.539-82.883,40.14-119.488C54.46,8.09,72.3,0.137,90.397,0.004L90.878,0h0.125
		c21.902,0,42.242,11.984,53.09,31.297l12.23,21.777l0.207,0.434c6.219,12.949,9.262,22.898,9.871,32.254
		c0.868,13.386-3.453,24.968-12.843,34.429l-33.989,35.231c5.051,13.972,17.981,44.101,42.547,68.719
		c24.317,24.265,53.633,36.644,67.524,41.511l34.065-35.359c9.547-9.526,20.875-14.074,33.648-13.52
		c9.816,0.43,20.165,3.715,33.547,10.648l0.446,0.242l21.354,11.992c19.353,10.871,31.344,31.266,31.297,53.227l-0.004,0.527
		c-0.133,18.039-8.086,35.883-22.387,50.184c-15.898,15.898-35.941,27.219-59.582,33.648
		C285.352,381.777,266.663,383.992,244.987,383.992 M90.995,30h-0.062h-0.317c-10.16,0.078-20.551,4.906-29.246,13.605
		c-28.633,28.629-31.609,69.645-31.359,98.008c0.398,45.133,24.66,92.074,72.105,139.52c47.942,47.941,95.133,72.449,140.27,72.848
		c28.262,0.25,69.164-2.754,98.009-31.602c8.698-8.694,13.53-19.086,13.604-29.254v-0.358c0.023-11.052-6.102-21.399-15.988-26.954
		l-21.129-11.867c-20.832-10.754-26.816-7.539-31.887-2.515l-46.215,47.968l-8.422-2.109c-2.039-0.512-50.418-12.973-89.445-51.926
		l-0.019-0.02c-38.864-38.938-52.317-87.895-52.872-89.96l-2.195-8.192l46.399-48.09c4.382-4.394,7.793-10.503-2.536-32.187
		l-11.753-20.926C112.394,36.121,102.073,30,90.995,30 M331.28,52.719C297.284,18.723,252.085,0,204.007,0v30
		c82.707,0,149.992,67.285,149.992,149.992h30C383.999,131.914,365.276,86.715,331.28,52.719 M204.007,119.996v30
		c16.539,0,29.996,13.457,29.996,29.996h30C264.003,146.91,237.089,119.996,204.007,119.996 M204.007,59.996v30
		c49.621,0,89.996,40.371,89.996,89.996h30C324.003,113.828,270.171,59.996,204.007,59.996"/>
</g>
</svg>
