<?xml version="1.0" encoding="utf-8"?>
<!-- Generator: Adobe Illustrator 16.0.0, SVG Export Plug-In . SVG Version: 6.00 Build 0)  -->
<!DOCTYPE svg PUBLIC "-//W3C//DTD SVG 1.1//EN" "http://www.w3.org/Graphics/SVG/1.1/DTD/svg11.dtd">
<svg version="1.1" id="Layer_1" xmlns="http://www.w3.org/2000/svg" xmlns:xlink="http://www.w3.org/1999/xlink" x="0px" y="0px"
	 width="229.088px" height="229.169px" viewBox="0 0 229.088 229.169" enable-background="new 0 0 229.088 229.169"
	 xml:space="preserve">
<g>
	<defs>
		<rect id="SVGID_1_" width="229.088" height="229.169"/>
	</defs>
	<clipPath id="SVGID_2_">
		<use xlink:href="#SVGID_1_"  overflow="visible"/>
	</clipPath>
	<path clip-path="url(#SVGID_2_)" fill="#331200" d="M77.576,209.776v-4.118h137.815c5.275-0.009,9.568-4.305,9.574-9.575v-15.517
		c-0.006-5.273-4.299-9.568-9.57-9.577H13.698c-5.275,0.009-9.569,4.304-9.574,9.575v15.517c-0.003,2.105,0.694,4.144,1.951,5.801
		l-2.779,3.113c-2.109-2.471-3.292-5.633-3.292-8.914v-15.515c0.013-4.742,2.546-9.211,6.612-11.655l2.14-1.287l-1.881-1.643
		c-2.699-2.356-4.723-5.396-5.85-8.792c-3.484-10.493,2.221-21.865,12.715-25.35c0.664-0.224,1.326-0.417,2.028-0.622
		c0.316-0.092,0.631-0.184,0.946-0.278l0.678-0.204l12.77-21.468c4.881-8.307,13.327-13.99,23.18-15.602l2.029-0.332l-0.577-1.973
		c-1.488-5.092,0.448-10.536,4.815-13.547l1.317-0.908l-0.732-1.423c-2.951-5.727-4.503-12.16-4.49-18.606
		c-0.004-1.819,0.12-3.648,0.371-5.443c0.772-5.765,2.72-11.183,5.789-16.114l0.623-1l-0.659-0.977
		c-1.088-1.614-1.951-3.376-2.566-5.238C55.563,16.902,61.67,4.78,72.873,1.083C75.052,0.364,77.309,0,79.58,0
		c9.249,0,17.413,5.906,20.314,14.696l0.366,1.109l1.162,0.129c0.257,0.028,0.524,0.047,0.792,0.067
		c0.347,0.024,0.675,0.048,0.935,0.092c5.644,0.833,10.905,2.792,15.676,5.833c7.094,4.452,12.58,10.862,15.876,18.545l0.634,1.478
		l1.545-0.447c1.109-0.322,2.254-0.485,3.401-0.485c4.7,0,9.034,2.748,11.04,7l2.904,6.15c2.85,6.08,0.23,13.376-5.84,16.259
		l-1.363,0.646l0.385,1.46c1.615,6.128,2.361,12.447,2.219,18.78l-0.041,1.859h21.085c11.536,0,22.401,5.945,28.354,15.516
		l12.307,19.75l0.768,0.157c9.898,2.022,17.043,10.824,16.988,20.929c0.01,6.218-2.656,12.126-7.313,16.225l-1.934,1.701
		l2.248,1.252c4.301,2.397,6.982,6.945,6.998,11.869v15.509c-0.008,7.545-6.152,13.688-13.697,13.695h0.002H77.576z
		 M110.639,158.954c0.062,0,0.124,0.004,0.186,0.01l89.141,7.905h8.057c9.344,0,16.943-7.776,16.943-17.334
		c0-8.872-6.514-16.278-15.154-17.227c-0.584-0.07-1.188-0.106-1.773-0.106h-0.873l-49.404,4.376l-50.465,7.203l-53.094,19.562
		l0.628,3.526h32.225L110,159.07C110.225,158.99,110.43,158.954,110.639,158.954 M37.017,131.043
		c-7.469,0.749-14.862,2.33-21.973,4.698c-6.531,2.179-10.92,8.268-10.923,15.152c0,8.807,7.165,15.972,15.971,15.972h12.63
		l73.353-27.024c0.135-0.051,0.28-0.087,0.43-0.109l49.371-7.046l-10.986-8.242h-42.071L37.017,131.043z M149.151,98.89
		c-0.15,1.222-0.334,2.404-0.545,3.514c-1.031,5.445-3.146,10.515-6.287,15.07l-1.967,2.852h5.232c0.438,0,0.873,0.145,1.223,0.408
		l15.125,11.347l44.416-3.851l-10.818-17.359c-5.209-8.374-14.736-13.577-24.86-13.577h-21.321L149.151,98.89z M56.14,97.465
		c-9.434,0.847-17.821,6.043-22.436,13.9L23.13,129.142l3.981-0.77c3.468-0.67,6.574-1.137,9.495-1.428l55.62-5.563l-3.357-2.777
		c-4.541-3.758-8.585-8.098-12.021-12.896l-0.914-1.276l-1.42,0.727l-0.043,0.02c-1.621,0.753-3.341,1.133-5.113,1.133
		c-4.727,0-9.065-2.769-11.053-7.055l-0.901-1.905L56.14,97.465z M59.836,57.104c0.012,5.843,1.455,11.669,4.172,16.851
		l11.178,21.468c0.945,1.827,1.999,3.618,3.13,5.321c5.092,7.885,12.015,14.687,20.008,19.65l0.449,0.279l35.691-0.35l0.514-0.466
		c0.952-0.865,1.846-1.813,2.655-2.821c3.505-4.497,5.892-9.809,6.923-15.384c0.406-2.17,0.684-4.383,0.826-6.573
		c0.689-8.292-0.232-16.552-2.744-24.518c-0.59-1.964-1.311-3.939-2.135-5.849l-9.426-22.313c-2.27-5.37-5.83-10.186-10.301-13.928
		l-1.996-1.67l-1.272,3.53l-3.873-1.396l1.579-4.383l-1.412-0.733c-2.445-1.271-5.036-2.257-7.697-2.934l-1.769-0.451l-2.868,11.472
		l-3.993-0.999l2.756-11.028l-2.244-0.081c-0.434-0.016-0.868-0.023-1.301-0.023c-4.011,0-7.97,0.66-11.767,1.962L83.001,22.4
		l5.565,11.832l-3.732,1.756l-5.561-11.829L77.54,25.22c-3.954,2.421-7.37,5.524-10.156,9.221l-1.159,1.539l9.165,6.111
		l-2.285,3.427l-8.986-5.992l-0.889,1.937c-1.073,2.34-1.902,4.803-2.462,7.32l-0.348,1.564l4.345,1.565l-1.395,3.873l-3.538-1.276
		L59.836,57.104z M60.938,81.984c-2.564,2.417-3.294,6.191-1.816,9.391l2.915,6.128c1.299,2.829,4.172,4.672,7.309,4.672
		c0.716,0,1.432-0.097,2.127-0.286l2.236-0.612l-1.126-2.025c-0.335-0.604-0.682-1.234-1.049-1.93l-8.845-16.986L60.938,81.984z
		 M140.28,45.12c-0.352,0-0.706,0.023-1.056,0.069l-2.367,0.312l7.432,17.593c0.149,0.346,0.276,0.718,0.412,1.111
		c0.112,0.329,0.226,0.657,0.35,0.978l0.838,2.151l1.896-1.317c3.244-2.256,4.389-6.494,2.721-10.076l-2.914-6.178
		C146.264,46.943,143.395,45.12,140.28,45.12 M79.516,4.206c-2.357,0-4.651,0.476-6.819,1.412c-4.225,1.823-7.486,5.183-9.183,9.461
		c-1.697,4.277-1.626,8.958,0.199,13.183l1.108,2.564l1.896-2.052c6.946-7.51,16.387-12.116,26.584-12.968l2.806-0.235l-1.368-2.461
		c-3.044-5.479-8.83-8.892-15.099-8.904L79.516,4.206z"/>
	<path clip-path="url(#SVGID_2_)" fill="#331200" d="M80.915,85.47c4.114-3,8.806-5.206,13.74-6.46l0.825,4.04
		c-4.294,1.116-8.379,3.037-11.979,5.634L80.915,85.47z"/>
	<path clip-path="url(#SVGID_2_)" fill="#331200" d="M109.17,101.333c2.904-0.221,5.708-0.961,8.354-2.205
		c1.307-0.613,2.555-1.344,3.727-2.179l2.647,3.166c-4.262,3.109-9.362,4.975-14.631,5.343L109.17,101.333z"/>
	<path clip-path="url(#SVGID_2_)" fill="#331200" d="M73.113,78.07c3.345-6.547,9.808-10.541,17.26-10.541
		c1.405,0,2.82,0.146,4.224,0.437l-1.171,3.967c-1.032-0.192-2.067-0.29-3.091-0.29c-5.716,0-10.699,3.017-13.384,7.983
		L73.113,78.07z"/>
	<path clip-path="url(#SVGID_2_)" fill="#331200" d="M106.964,62.15c3.479-6.565,9.917-10.571,17.187-10.571
		c1.435,0,2.873,0.159,4.297,0.477l-1.245,3.946c-1.022-0.202-2.052-0.305-3.073-0.305c-5.588,0-10.566,3.054-13.363,8.082
		L106.964,62.15z"/>
	
		<rect x="106.412" y="71.198" transform="matrix(-0.9048 0.4259 -0.4259 -0.9048 241.2311 108.599)" clip-path="url(#SVGID_2_)" fill="#331200" width="4.125" height="20.138"/>
	<path clip-path="url(#SVGID_2_)" fill="#331200" d="M115.633,69.666c4.111-2.997,8.802-5.203,13.736-6.458l0.83,4.041
		c-4.295,1.117-8.379,3.039-11.979,5.635L115.633,69.666z"/>
	<path clip-path="url(#SVGID_2_)" fill="#331200" d="M50.759,229.169c-2.859,0-5.655-1.162-7.673-3.188l-1.183-1.188l-1.281,1.085
		c-1.284,1.087-2.733,1.947-4.31,2.558c-1.248,0.479-2.556,0.724-3.885,0.724c-4.153,0-7.992-2.423-9.778-6.171
		c-1.195-2.614-1.146-5.62,0.149-8.222l0.77-1.548l-1.504-0.848c-1.346-0.758-2.556-1.719-3.597-2.856l-0.408-0.448
		c-1.798-1.935-2.71-4.534-2.516-7.15c0.2-2.649,1.506-5.12,3.583-6.777l0.115-0.09c1.902-1.539,4.273-2.379,6.693-2.379
		c0.589,0,1.184,0.05,1.766,0.148l1.69,0.285l0.385-1.669c0.357-1.546,0.969-3.007,1.82-4.343c1.868-2.938,5.169-4.692,8.833-4.692
		c1.913,0,3.792,0.503,5.435,1.454c2.427,1.373,4.192,3.7,4.858,6.393c0.051,0.206,0.091,0.414,0.127,0.621l0.289,1.673l1.688-0.173
		c0.537-0.055,1.082-0.083,1.621-0.083c1.208,0,2.417,0.139,3.593,0.411c2.757,0.614,5.181,2.335,6.666,4.723
		c1.371,2.181,1.812,4.858,1.213,7.355c-0.693,2.875-2.627,5.254-5.303,6.521l-1.634,0.773l0.764,1.638
		c0.677,1.454,1.101,3.005,1.26,4.614c0.257,2.596-0.565,5.222-2.258,7.207c-1.804,2.126-4.432,3.443-7.211,3.615
		C51.265,229.162,51.01,229.169,50.759,229.169 M45.026,211.318c0.833,2.816,0.735,5.882-0.278,8.631l-0.271,0.737l0.35,0.702
		c1.125,2.259,3.391,3.663,5.913,3.663c0.166,0,0.332-0.007,0.5-0.02c1.645-0.088,3.242-0.87,4.344-2.145
		c0.986-1.155,1.464-2.674,1.317-4.175c-0.485-5-4.655-9.087-9.914-9.717l-2.744-0.328L45.026,211.318z M27.924,214.792
		c-1.933,1.585-2.55,4.278-1.502,6.549c1,2.21,3.414,3.704,6.001,3.704c0.828,0,1.631-0.149,2.39-0.443
		c2.657-0.984,4.828-3.066,5.93-5.703c0.786-1.92,0.938-3.987,0.445-5.988l-0.617-2.506l-2.152,1.424
		c-2.544,1.683-5.5,2.571-8.549,2.571c-0.274,0-0.488-0.006-0.702-0.018l-0.701-0.034L27.924,214.792z M25.942,196.801
		c-1.47,0-2.913,0.502-4.063,1.412l-0.118,0.093c-1.208,0.942-1.978,2.364-2.107,3.896c-0.102,1.524,0.43,3.008,1.457,4.102
		l0.397,0.436c2.165,2.282,5.181,3.578,8.298,3.578c1.781,0,3.564-0.427,5.155-1.234l2.601-1.32l-2.33-1.754
		c-2.447-1.844-4.229-4.361-5.149-7.279l-0.21-0.665l-0.6-0.354C28.265,197.116,27.113,196.801,25.942,196.801 M54.419,196.401
		c-4.178,0-8.025,2.262-9.799,5.763l-1.284,2.533l2.839,0.106c3.181,0.119,6.218,1.182,8.783,3.072l0.503,0.37l0.624-0.017
		c2.828-0.075,5.225-1.892,5.828-4.417c0.338-1.453,0.073-2.999-0.726-4.25c-0.916-1.451-2.413-2.494-4.101-2.858
		C56.227,196.505,55.32,196.401,54.419,196.401 M40.403,186.513c-2.228,0-4.221,1.042-5.332,2.786
		c-1.426,2.229-1.88,4.985-1.242,7.558c0.56,2.228,1.854,4.238,3.647,5.667l1.953,1.556l0.882-2.336
		c1.077-2.853,3.083-5.328,5.649-6.971l0.649-0.415l0.153-0.756c0.16-0.786,0.143-1.61-0.047-2.385
		c-0.423-1.632-1.498-3.016-2.952-3.818C42.774,186.826,41.601,186.513,40.403,186.513"/>
</g>
</svg>
