<?xml version="1.0" encoding="utf-8"?>
<!-- Generator: Adobe Illustrator 16.0.0, SVG Export Plug-In . SVG Version: 6.00 Build 0)  -->
<!DOCTYPE svg PUBLIC "-//W3C//DTD SVG 1.1//EN" "http://www.w3.org/Graphics/SVG/1.1/DTD/svg11.dtd">
<svg version="1.1" id="Layer_1" xmlns="http://www.w3.org/2000/svg" xmlns:xlink="http://www.w3.org/1999/xlink" x="0px" y="0px"
	 width="223.658px" height="200.291px" viewBox="0 0 223.658 200.291" enable-background="new 0 0 223.658 200.291"
	 xml:space="preserve">
<g>
	<path fill="#331200" d="M3.522,200.291c-1.942,0-3.522-1.58-3.522-3.522v-22.014c0-1.942,1.58-3.522,3.522-3.522h41.285v-17.268
		H30.719c-11.653,0-21.133-9.48-21.133-21.134v-14.651c0-3.89,1.787-7.474,4.903-9.832l0.806-0.61L6.97,99.412
		c-1.373-1.374-1.374-3.608,0-4.982c0.665-0.665,1.55-1.031,2.491-1.031s1.826,0.366,2.491,1.031l6.44,6.44v-9.107
		c0-1.942,1.58-3.522,3.522-3.522c1.942,0,3.522,1.58,3.522,3.522v9.107l6.44-6.44c0.665-0.665,1.55-1.031,2.491-1.031
		s1.826,0.366,2.491,1.031c1.374,1.374,1.374,3.608,0,4.981l-8.325,8.325l0.806,0.61c3.116,2.358,4.903,5.942,4.903,9.832v11.13
		h10.567V80.438c0-4.994,2.529-9.581,6.767-12.271l0.927-0.589l-8.108-8.109c-1.373-1.374-1.373-3.608,0-4.982
		c0.665-0.665,1.549-1.031,2.49-1.031c0.941,0,1.826,0.366,2.491,1.031l6.44,6.44V51.82c0-1.942,1.58-3.522,3.522-3.522
		s3.522,1.58,3.522,3.522v9.107l6.44-6.44c0.665-0.665,1.55-1.031,2.491-1.031s1.825,0.366,2.491,1.031
		c0.665,0.665,1.032,1.55,1.032,2.491s-0.366,1.825-1.031,2.49l-8.108,8.109l0.927,0.589c4.237,2.69,6.767,7.278,6.767,12.271
		v23.693h10.566v-1.843c0-3.89,1.788-7.474,4.904-9.833l0.806-0.61l-8.325-8.324c-1.373-1.374-1.373-3.608,0-4.982
		c0.665-0.665,1.55-1.031,2.491-1.031s1.826,0.367,2.491,1.032l6.44,6.44v-9.107c0-1.942,1.58-3.522,3.522-3.522
		c1.942,0,3.522,1.58,3.522,3.522v9.107l6.439-6.44c0.666-0.665,1.55-1.031,2.491-1.031s1.826,0.367,2.491,1.032
		c1.373,1.373,1.373,3.608,0,4.981l-8.325,8.324l0.806,0.61c3.116,2.359,4.903,5.943,4.903,9.833v5.364
		c0,11.653-9.48,21.134-21.133,21.134H73.866v42.445h15.752c1.942,0,3.522,1.58,3.522,3.521c0,1.942-1.58,3.522-3.522,3.522H7.044
		v14.97h209.569v-14.97h-91.772c-1.942,0-3.522-1.58-3.522-3.522c0-1.941,1.58-3.521,3.522-3.521h18.37l0.13-0.726
		c0.613-3.432,1.939-6.624,3.939-9.489l0.422-0.605l-3.922-3.922c-1.373-1.374-1.372-3.608,0.001-4.981
		c0.665-0.665,1.55-1.031,2.49-1.031c0.941,0,1.825,0.366,2.49,1.031l3.922,3.922l0.605-0.422c2.866-2.001,6.059-3.326,9.489-3.94
		l0.726-0.13v-5.536c0-1.942,1.58-3.522,3.522-3.522c1.941,0,3.521,1.58,3.521,3.522v5.536l0.726,0.13
		c3.431,0.614,6.623,1.939,9.489,3.94l0.605,0.422l3.922-3.923c0.665-0.665,1.55-1.03,2.49-1.03s1.825,0.365,2.49,1.03
		c1.374,1.374,1.374,3.608,0,4.981l-3.921,3.923l0.422,0.604c2,2.867,3.326,6.06,3.939,9.49l0.13,0.725h29.295
		c1.942,0,3.522,1.581,3.522,3.523v22.014c0,1.942-1.58,3.522-3.522,3.522H3.522z M167.025,157.729
		c-7.571,0-14.305,5.092-16.375,12.382l-0.318,1.12h33.387l-0.318-1.12C181.331,162.821,174.598,157.729,167.025,157.729z
		 M21.914,112.895c-2.913,0-5.283,2.37-5.283,5.283v14.651c0,7.769,6.32,14.089,14.089,14.089h17.611
		c1.942,0,3.522,1.58,3.522,3.522v20.79h14.969v-45.968c0-1.942,1.58-3.522,3.522-3.522h17.611c7.769,0,14.088-6.32,14.088-14.088
		v-5.365c0-2.913-2.37-5.283-5.283-5.283s-5.283,2.37-5.283,5.283v5.365c0,1.941-1.58,3.521-3.522,3.521H70.344
		c-1.942,0-3.522-1.58-3.522-3.521V80.438c0-4.127-3.357-7.484-7.484-7.484c-4.127,0-7.485,3.357-7.485,7.484v52.392
		c0,1.942-1.58,3.522-3.522,3.522H30.72c-1.942,0-3.522-1.58-3.522-3.522v-14.651C27.197,115.265,24.827,112.895,21.914,112.895z"/>
	<path fill="#331200" d="M107.229,178.276c-1.942,0-3.522-1.58-3.522-3.522s1.58-3.522,3.522-3.522c1.942,0,3.522,1.58,3.522,3.522
		S109.172,178.276,107.229,178.276z"/>
	<path fill="#331200" d="M168.281,84.337c-15.969,0-28.961-12.992-28.961-28.96s12.992-28.96,28.961-28.96
		s28.961,12.992,28.961,28.96S184.25,84.337,168.281,84.337z M168.281,33.46c-12.085,0-21.916,9.832-21.916,21.916
		s9.831,21.917,21.916,21.917c12.084,0,21.916-9.832,21.916-21.917S180.365,33.46,168.281,33.46z"/>
	<path fill="#331200" d="M168.281,15.85c-1.942,0-3.522-1.58-3.522-3.522V3.522c0-1.942,1.58-3.522,3.522-3.522
		c1.941,0,3.521,1.58,3.521,3.522v8.806C171.803,14.27,170.223,15.85,168.281,15.85z"/>
	<path fill="#331200" d="M198.722,28.459c-0.94,0-1.825-0.367-2.49-1.032c-1.374-1.374-1.374-3.608,0-4.981l6.226-6.226
		c0.665-0.665,1.55-1.031,2.491-1.031c0.94,0,1.825,0.366,2.49,1.031c1.373,1.374,1.373,3.608,0,4.981l-6.227,6.227
		C200.547,28.092,199.663,28.459,198.722,28.459z"/>
	<path fill="#331200" d="M211.33,58.898c-1.941,0-3.521-1.58-3.521-3.522c0-1.942,1.58-3.522,3.521-3.522h8.806
		c1.942,0,3.522,1.58,3.522,3.522c0,1.942-1.58,3.522-3.522,3.522H211.33z"/>
	<path fill="#331200" d="M204.948,95.567c-0.94,0-1.825-0.367-2.49-1.032l-6.227-6.227c-0.666-0.665-1.032-1.55-1.032-2.491
		s0.367-1.825,1.032-2.491c0.665-0.665,1.55-1.031,2.49-1.031c0.941,0,1.825,0.366,2.49,1.031l6.228,6.226
		c0.665,0.666,1.031,1.55,1.031,2.491s-0.366,1.825-1.031,2.491C206.773,95.2,205.889,95.567,204.948,95.567z"/>
	<path fill="#331200" d="M168.281,110.754c-1.942,0-3.522-1.58-3.522-3.522v-8.806c0-1.942,1.58-3.522,3.522-3.522
		c1.941,0,3.521,1.58,3.521,3.522v8.806C171.803,109.174,170.223,110.754,168.281,110.754z"/>
	<path fill="#331200" d="M131.614,95.567c-0.94,0-1.825-0.367-2.49-1.032c-1.373-1.374-1.373-3.608,0-4.982l6.227-6.227
		c0.665-0.665,1.55-1.031,2.49-1.031s1.825,0.366,2.49,1.031c1.373,1.374,1.373,3.608,0,4.981l-6.227,6.227
		C133.439,95.2,132.555,95.567,131.614,95.567z"/>
	<path fill="#331200" d="M116.426,58.898c-1.941,0-3.521-1.58-3.521-3.522c0-1.942,1.58-3.522,3.521-3.522h8.806
		c1.942,0,3.522,1.58,3.522,3.522c0,1.942-1.58,3.522-3.522,3.522H116.426z"/>
	<path fill="#331200" d="M137.841,28.459c-0.94,0-1.825-0.367-2.49-1.032l-6.227-6.227c-0.666-0.665-1.032-1.55-1.032-2.49
		c0-0.941,0.367-1.826,1.032-2.491s1.55-1.031,2.49-1.031c0.941,0,1.825,0.366,2.49,1.031l6.227,6.226
		c1.373,1.374,1.373,3.608,0,4.982C139.666,28.092,138.782,28.459,137.841,28.459z"/>
</g>
</svg>
