<?xml version="1.0" encoding="utf-8"?>
<!-- Generator: Adobe Illustrator 16.0.0, SVG Export Plug-In . SVG Version: 6.00 Build 0)  -->
<!DOCTYPE svg PUBLIC "-//W3C//DTD SVG 1.1//EN" "http://www.w3.org/Graphics/SVG/1.1/DTD/svg11.dtd">
<svg version="1.1" id="Layer_1" xmlns="http://www.w3.org/2000/svg" xmlns:xlink="http://www.w3.org/1999/xlink" x="0px" y="0px"
	 width="179.919px" height="192.11px" viewBox="0 0 179.919 192.11" enable-background="new 0 0 179.919 192.11"
	 xml:space="preserve">
<g>
	<path fill="#331200" d="M124.122,42.892c-6.801,0-13.865-5.655-14.163-5.896c-0.559-0.442-0.904-1.068-0.984-1.772
		c-0.08-0.705,0.117-1.398,0.554-1.951c0.499-0.63,1.252-0.992,2.067-0.992c0.605,0,1.175,0.198,1.647,0.571
		c0.064,0.05,5.916,4.576,10.653,4.724l0.226,0.007l0.21-0.079c0.692-0.26,1.851-1.057,3.292-2.071l0.088-0.061
		c3.543-2.448,8.898-6.147,15.769-6.147c1.465,0,2.657,1.192,2.657,2.657c0,1.465-1.192,2.657-2.657,2.657
		c-5.229,0-9.399,2.895-12.75,5.22l-0.046,0.031C128.311,41.458,126.266,42.892,124.122,42.892z"/>
	<path fill="#331200" d="M147.656,116.531c-0.229,0-0.494-0.047-0.813-0.143c-0.669-0.215-1.226-0.686-1.545-1.319
		c-0.313-0.623-0.36-1.335-0.133-2.006c1.025-3.24,1.162-13.299,1.009-18.883c-0.025-0.707,0.228-1.372,0.711-1.882
		c0.488-0.516,1.146-0.807,1.854-0.82l0.116-0.002c1.406,0,2.57,1.151,2.597,2.566l0.004,0.313
		c0.197,12.877-0.586,18.152-1.278,20.309C149.842,115.77,148.808,116.531,147.656,116.531z"/>
	<path fill="#331200" d="M53.141,176.314c-5.651,0-10.249-4.598-10.249-10.249c0-4.818,6.275-12.687,8.199-14.983
		c0.505-0.611,1.25-0.959,2.05-0.959s1.544,0.348,2.045,0.953c1.928,2.303,8.204,10.171,8.204,14.989
		C63.389,171.716,58.792,176.314,53.141,176.314z M52.209,158.35c-1.182,1.679-3.938,5.788-4.002,7.676l-0.001,0.039
		c0,2.721,2.213,4.935,4.935,4.935c2.721,0,4.935-2.214,4.935-4.935l-0.001-0.039c-0.065-1.888-2.821-5.997-4.002-7.676
		l-0.931-1.323L52.209,158.35z"/>
	<path fill="#331200" d="M18.599,120.895c-5.651,0-10.249-4.597-10.249-10.248c0-4.819,6.275-12.688,8.199-14.983
		c0.505-0.612,1.25-0.959,2.05-0.959c0.799,0,1.544,0.347,2.045,0.953c1.928,2.302,8.204,10.17,8.204,14.989
		C28.848,116.298,24.25,120.895,18.599,120.895z M17.668,102.931c-1.182,1.68-3.938,5.789-4.003,7.677l0,0.039
		c0,2.721,2.213,4.935,4.935,4.935c2.721,0,4.935-2.214,4.935-4.935l-0.001-0.039c-0.065-1.888-2.821-5.997-4.002-7.677
		l-0.931-1.323L17.668,102.931z"/>
	<path fill="#331200" d="M106.282,188.271c-6.697,0-12.146-5.449-12.146-12.146c0-4.548,5.204-12.673,10.075-18.762
		c0.501-0.606,1.279-0.977,2.071-0.977c0.791,0,1.57,0.37,2.082,0.99c4.859,6.075,10.064,14.2,10.064,18.748
		C118.428,182.822,112.979,188.271,106.282,188.271z M105.35,164.726c-1.384,1.966-5.901,8.597-5.901,11.398
		c0,3.767,3.065,6.832,6.833,6.832c3.767,0,6.832-3.065,6.832-6.832c0-2.66-4.125-8.854-5.898-11.395l-0.93-1.331L105.35,164.726z"
		/>
	<circle fill="#331200" cx="106.282" cy="135.129" r="2.657"/>
	<circle fill="#331200" cx="83.127" cy="91.858" r="2.657"/>
	<circle fill="#331200" cx="83.127" cy="107.041" r="2.657"/>
	<circle fill="#331200" cx="53.141" cy="137.597" r="2.657"/>
	<circle fill="#331200" cx="167.66" cy="60.011" r="2.657"/>
	<path fill="#331200" d="M140.627,192.11c-1.826,0-3.47-2.188-4.531-4.035c-0.919-1.847-1.73-4.289-2.478-7.467
		c-1.62-6.896-2.513-15.66-2.513-24.678c0-2.694,0.313-8.231,0.54-12.275c0.141-2.476,0.219-3.897,0.219-4.35
		c0-3.947-0.543-7.392-1.763-11.168c-0.524-1.643-1.821-4.829-3.854-9.468l-0.169-0.386c-2.369-5.293-4.967-11.706-5.912-21.074
		l-0.394-3.91l-1.758,3.515c-1.072,2.147-2.113,4.015-3.092,5.553c-2.881,4.637-4.101,11.914-4.406,14.033l-0.02,0.13l-0.003,0.075
		c-0.069,2.084-0.682,5.584-3.998,5.618c-1.833,0-3.815-0.796-5.163-2.078c-1.282-1.211-2.229-2.715-2.982-4.734
		c-1.246-3.336-1.826-7.454-1.826-12.964c0-2.614,0.521-8.167,0.799-11.15c0.15-1.604,0.188-2.031,0.188-2.21
		c0-4.535-2.463-8.727-6.43-10.939l-17.551-9.728l-0.226,1.648c-0.788,5.751-2.053,14.424-3.934,23.301
		c-4.436,20.982-9.606,30.753-16.271,30.753c-5.468,0-7.065-6.431-7.791-11.269c-0.474-3.156-1.151-22.965-1.406-30.422
		c-0.05-1.455-0.086-2.5-0.104-2.955c-0.302-7.622-0.971-13.397-2.046-17.656c-0.782-3.131-1.868-5.604-3.056-6.962l-0.025-0.029
		l-0.027-0.027c-1.312-1.312-3.007-2.064-4.65-2.064c-2.065,0-3.776,1.189-4.591,3.186c-1.081,2.059-2.748,8.314-2.878,8.818
		l0.01-0.039c-0.699,2.407-1.313,4.398-2.305,6.276c-0.691,1.279-1.434,2.22-2.332,2.952c-1.204,1.009-2.809,1.605-4.305,1.605
		l-0.114-0.001c-1.786,0-3.063-1.03-3.529-1.472l-0.034-0.031c-0.761-0.666-1.416-1.531-2.189-2.893
		c-1.143-2.103-2.132-4.734-3.196-8.515C6.83,56.561,5.288,48.551,3.822,38.141C1.521,21.958,0.083,3.926,0,2.881
		c0.005-0.5,0.109-1.387,0.711-2.021C1.238,0.305,1.929,0,2.657,0h83.127c1.663,0,90.987,0.038,90.987,0.038l0.078-0.011
		C176.981,0.009,177.115,0,177.247,0c0.647,0,1.266,0.225,1.739,0.634c0.619,0.536,0.934,1.216,0.934,2.023
		c0,11.119-2.307,22.106-5.323,35.313c-0.42,1.909-0.839,3.848-1.257,5.825c-0.264,1.211-1.359,2.096-2.605,2.096
		c-0.199,0-0.372,0-0.484-0.032l-0.049-0.014l-0.049-0.01c-0.651-0.125-1.243-0.536-1.666-1.155c-0.391-0.574-0.52-1.267-0.362-1.95
		c0.139-0.638,0.27-1.257,0.399-1.869c0.235-1.119,0.459-2.175,0.701-3.215c2.579-11.889,4.591-21.708,5.113-30.978l0.068-1.202
		L5.41,5.313l0.097,1.229c0.267,3.392,0.614,6.87,0.951,10.235c1.184,11.326,2.464,21.119,3.806,29.113
		c1.265,7.35,2.554,13.134,3.833,17.196c0.768,2.458,2.548,6.125,2.794,6.453l0.788,1.051l0.929-0.929
		c0.196-0.196,1.254-1.767,1.821-3.415c0.194-0.511,0.569-1.793,1.159-3.827c0.75-2.584,1.683-5.801,2.207-7.108
		c0.946-2.271,2.266-4.832,4.835-6.488c1.377-0.873,3.097-1.376,4.711-1.376l0.154,0.001c0.617,0,1.725,0.098,2.691,0.283
		l1.786,0.344l-4.152-15.497c-0.37-1.428,0.475-2.9,1.886-3.273c0.221-0.057,0.453-0.087,0.684-0.087
		c1.22,0,2.287,0.811,2.594,1.972l7.183,26.72l0.01,0.03c0.969,2.942,1.665,6.429,2.19,10.972c0.64,5.616,0.885,11.684,1.056,19.064
		c0.073,2.961,0.263,10.709,0.265,11.021c0.129,4.447,0.342,7.966,0.652,10.789c0.603,5.421,1.481,7.584,2.112,8.444l0.586,0.799
		l0.872-0.47c1.603-0.863,5.813-5.151,10.292-26.274c2.937-13.858,6.772-45.634,6.811-45.953c0.168-1.325,1.273-2.293,2.625-2.293
		c0.117,0,0.235,0.007,0.352,0.022c0.704,0.089,1.327,0.446,1.754,1.004c0.429,0.56,0.615,1.261,0.524,1.973l-2.035,15.681
		l19.271,10.728c0.081,0.066,0.171,0.123,0.267,0.166c5.59,3.148,9.06,9.085,9.06,15.513c0,0.244-0.132,1.685-0.258,3.079
		c-0.291,3.194-0.729,8.021-0.729,10.282c0,3.488,0.286,6.557,0.827,8.875c0.202,0.809,0.404,1.579,0.701,2.3l1.608,3.912
		l0.572-4.19c0.7-5.115,2.31-9.624,4.923-13.783c2.298-3.615,4.632-8.524,6.933-14.587c1.853-4.762,3.766-11.174,3.785-11.239
		c0.323-1.16,1.371-1.957,2.552-1.957c0.176,0,0.378,0.028,0.593,0.059c1.354,0.311,2.248,1.603,2.04,2.957
		c-0.79,5.34-1.19,10.39-1.19,15.015c0,9.969,1.84,16.271,3.64,21.121c0.83,2.302,1.804,4.482,2.745,6.591l0.054,0.119
		c1.164,2.612,2.484,5.573,3.563,8.885c1.342,4.21,1.994,8.393,1.994,12.781c0,0.51-0.11,2.494-0.239,4.792
		c-0.219,3.931-0.52,9.313-0.52,11.833c0,12.328,1.734,22.05,3.357,27.037l0.88,2.702l1.229-2.562
		c0.564-1.175,6.989-16.846,9.438-24.793c3.988-12.961,10.679-38.583,10.679-64.56c0-5.475,0.254-11.201,0.755-17.021
		c0.055-0.683,0.345-1.274,0.84-1.716c0.513-0.464,1.146-0.708,1.836-0.708c0.068,0,0.139,0.003,0.208,0.008
		c0.69,0.051,1.328,0.381,1.795,0.93c0.449,0.556,0.659,1.219,0.604,1.949c-0.486,5.507-0.724,10.929-0.724,16.558
		c0,8.945-0.737,18.39-2.189,28.071c-1.212,8.269-3.005,17.054-5.329,26.115c-1.993,7.668-4.23,14.991-6.649,21.764
		c-2.062,5.809-4.196,11.031-6.177,15.106l-0.02,0.042C144.953,189.479,142.647,192.11,140.627,192.11z"/>
</g>
</svg>
