<?xml version="1.0" encoding="utf-8"?>
<!-- Generator: Adobe Illustrator 16.0.0, SVG Export Plug-In . SVG Version: 6.00 Build 0)  -->
<!DOCTYPE svg PUBLIC "-//W3C//DTD SVG 1.1//EN" "http://www.w3.org/Graphics/SVG/1.1/DTD/svg11.dtd">
<svg version="1.1" id="Capa_1" xmlns="http://www.w3.org/2000/svg" xmlns:xlink="http://www.w3.org/1999/xlink" x="0px" y="0px"
	 width="512px" height="512px" viewBox="0 0 512 512" enable-background="new 0 0 512 512" xml:space="preserve">
<g>
	<path fill="#331200" d="M441.743,165.745c-2.254-6.581-5.393-12.693-9.252-18.227l5.737,0.012
		c31.539,0,57.199-25.659,57.199-57.199c0-31.54-25.66-57.198-57.199-57.198c-1.56,0-3.136,0.067-4.716,0.2
		C419.995,12.649,396.859,0,371.964,0c-31.953,0-59.652,20.206-69.632,49.934c-1.59-0.156-3.188-0.234-4.787-0.234
		c-15.729,0-30.361,7.718-39.42,20.066c-4.451-5.512-9.5-10.563-15.07-15.025c-17.395-13.934-39.272-21.607-61.604-21.607
		c-21.286,0-41.557,6.676-58.617,19.305c-3.329,2.465-4.03,7.161-1.567,10.491c2.466,3.329,7.161,4.029,10.49,1.566
		c14.46-10.705,31.644-16.361,49.693-16.361c29.425,0,55.709,15.094,70.668,38.791l0.926,1.512
		c3.392,5.635,6.149,11.735,8.172,18.217c-17.756,9.917-29.285,28.844-29.285,49.946c0,4.142,3.357,7.5,7.5,7.5
		c4.143,0,7.5-3.358,7.5-7.5c0-17.244,10.433-32.515,25.981-38.969c0.022-0.009-0.022,0.01,0,0c5.13-2.127,10.632-3.23,16.218-3.23
		c16.234,0,31.216,9.494,38.166,24.186c0.942,1.996,2.72,3.475,4.853,4.042c2.132,0.566,4.409,0.166,6.22-1.1
		c9.894-6.909,21.51-10.561,33.593-10.561c26.853,0,50.263,18.141,56.925,44.115c0.871,3.401,3.944,5.735,7.498,5.633
		c0,0,1.397-0.049,1.842-0.049c32.403,0,58.766,26.362,58.766,58.765c0,32.403-26.361,58.766-58.766,58.766
		s-58.766-26.362-58.766-58.766c0-4.142-3.356-7.5-7.499-7.5c-4.144,0-7.5,3.358-7.5,7.5c0,23.962,11.49,45.283,29.243,58.766
		h-88.648l4.12-12.358c1.601-4.801,0.789-10.115-2.169-14.22c-2.957-4.104-7.744-6.556-12.805-6.556h-64.464
		c-7.591,0-14.114,5.416-15.513,12.875l-3.799,20.258h-73.991c-4.143,0-7.5,3.357-7.5,7.5c0,4.142,3.357,7.5,7.5,7.5h71.182
		L192.487,393.9c-0.869,4.631,0.358,9.364,3.367,12.989c3.008,3.625,7.435,5.704,12.145,5.704h38.147c0.091,0,0.365,0,0.601,0.278
		c0.234,0.279,0.187,0.55,0.171,0.64l-14.815,84.908c-0.947,5.68,2.184,10.981,7.613,12.895c1.321,0.466,2.662,0.689,3.976,0.689
		c4.085,0,7.904-2.166,10.04-5.961c0.048-0.085,0.095-0.172,0.14-0.259l60.61-118.345c2.526-4.932,2.311-10.7-0.58-15.428
		c-2.892-4.729-7.924-7.551-13.466-7.551H284.06c-0.1,0-0.401,0-0.636-0.325s-0.139-0.612-0.107-0.706l16.745-50.234h138.167
		c40.674,0,73.766-33.09,73.766-73.765C511.994,199.93,480.793,167.584,441.743,165.745L441.743,165.745z M336.746,124.914
		c-10.508-15.723-28.412-25.517-47.613-25.517c-4.74,0-9.4,0.574-13.932,1.712c-2.021-6.166-4.668-12.108-7.854-17.749
		c5.676-11.28,17.402-18.663,30.197-18.663c2.809,0,5.606,0.348,8.315,1.033c1.95,0.493,4.021,0.182,5.739-0.865
		c1.721-1.047,2.946-2.741,3.403-4.702C321.208,33.572,344.629,15,371.964,15c17.9,0,34.66,8.222,45.667,21.953
		c-21.732,8.336-36.602,29.295-36.602,53.378c0,4.142,3.357,7.5,7.5,7.5s7.5-3.358,7.5-7.5c0-20.506,14.601-37.951,34.734-41.539
		c0.052-0.008,5.065-0.66,7.464-0.66c23.27,0,42.199,18.931,42.199,42.199c0,23.269-18.931,42.199-42.184,42.199l-19.733-0.04
		c-12.816-10.412-29.099-16.526-46.547-16.526C359.544,115.964,347.518,119.038,336.746,124.914z M269.085,358.684
		c-1.6,4.799-0.788,10.115,2.169,14.219c2.958,4.104,7.745,6.555,12.805,6.555h16.375c0.132,0,0.438,0,0.668,0.375
		c0.229,0.375,0.089,0.648,0.027,0.766l-50.423,98.454l10.988-62.963c0.803-4.603-0.46-9.293-3.466-12.869
		c-3.007-3.577-7.41-5.628-12.083-5.628h-38.147c-0.091,0-0.367,0-0.603-0.283c-0.234-0.282-0.184-0.555-0.167-0.645L224,307.21
		c0.001-0.005,0.002-0.009,0.003-0.014l4.968-26.497c0.068-0.369,0.393-0.637,0.77-0.637h64.464c0.101,0,0.401,0,0.637,0.324
		c0.234,0.325,0.139,0.611,0.107,0.706l-7.453,22.357c-0.002,0.007-0.004,0.013-0.006,0.021L269.085,358.684z"/>
	<path fill="#331200" d="M106.438,298.192H90.338c-41.538,0-75.331-33.793-75.331-75.331c0-41.513,33.754-75.291,75.257-75.332
		c0.142,0.005,0.283,0.009,0.425,0.01c0.004,0,0.007-0.001,0.011-0.001c41.372,0.196,74.97,33.906,74.97,75.322
		c0,4.142,3.357,7.5,7.5,7.5c4.143,0,7.5-3.358,7.5-7.5c0-47.275-36.505-86.178-82.806-90.016c-0.005-0.365-0.025-0.738-0.025-1.099
		c0-17.117,5.134-33.569,14.848-47.58c2.359-3.404,1.514-8.077-1.891-10.437c-3.406-2.361-8.077-1.514-10.438,1.891
		c-11.46,16.532-17.52,35.939-17.52,56.125c0,0.362,0.002,0.726,0.006,1.091c-46.314,3.821-82.837,42.738-82.837,90.023
		c0,49.809,40.522,90.331,90.331,90.331h16.102c4.142,0,7.5-3.358,7.5-7.5C113.938,301.551,110.581,298.192,106.438,298.192
		L106.438,298.192z"/>
	<path fill="#331200" d="M40.639,331.324c-4.143,0-7.5,3.358-7.5,7.5v66.266c0,4.142,3.357,7.5,7.5,7.5c4.143,0,7.5-3.358,7.5-7.5
		v-66.266C48.139,334.683,44.782,331.324,40.639,331.324z"/>
	<path fill="#331200" d="M148.319,331.324c-4.143,0-7.5,3.358-7.5,7.5v66.266c0,4.142,3.357,7.5,7.5,7.5c4.143,0,7.5-3.358,7.5-7.5
		v-66.266C155.819,334.683,152.462,331.324,148.319,331.324z"/>
	<path fill="#331200" d="M94.479,430.722c-4.143,0-7.5,3.358-7.5,7.5v66.266c0,4.142,3.357,7.5,7.5,7.5c4.143,0,7.5-3.358,7.5-7.5
		v-66.266C101.979,434.08,98.622,430.722,94.479,430.722z"/>
	<path fill="#331200" d="M363.681,331.324c-4.143,0-7.5,3.358-7.5,7.5v66.266c0,4.142,3.357,7.5,7.5,7.5s7.5-3.358,7.5-7.5v-66.266
		C371.181,334.683,367.823,331.324,363.681,331.324z"/>
	<path fill="#331200" d="M471.361,331.324c-4.144,0-7.5,3.358-7.5,7.5v66.266c0,4.142,3.356,7.5,7.5,7.5c4.143,0,7.5-3.358,7.5-7.5
		v-66.266C478.861,334.683,475.503,331.324,471.361,331.324z"/>
	<path fill="#331200" d="M417.521,430.722c-4.143,0-7.5,3.358-7.5,7.5v66.266c0,4.142,3.357,7.5,7.5,7.5s7.5-3.358,7.5-7.5v-66.266
		C425.021,434.08,421.664,430.722,417.521,430.722z"/>
</g>
</svg>
